<svg xmlns="http://www.w3.org/2000/svg" viewBox="0 0 24 15"><defs><style>.cls-1{fill:#fff;}</style></defs><title>behance</title><g id="Слой_2" data-name="Слой 2"><g id="Слой_1-2" data-name="Слой 1"><path class="cls-1" d="M22,2H15V0h7Zm1.73,10c-.44,1.3-2,3-5.1,3s-5.56-1.73-5.56-5.68S15.39,3.4,18.53,3.4A5,5,0,0,1,23.9,7.83,13.39,13.39,0,0,1,24,10H16a2.69,2.69,0,0,0,4.59,2ZM16,8h5a2.23,2.23,0,0,0-2.48-2.22A2.29,2.29,0,0,0,16,8ZM6.47,15H0V0H7c5.48.08,5.58,5.44,2.72,6.91C13.13,8.19,13.25,15,6.47,15ZM3,6H6.58c2.51,0,2.91-3-.31-3H3ZM6.39,9H3v3H6.34C9.4,12,9.21,9,6.39,9Z"/></g></g></svg>