<svg xmlns="http://www.w3.org/2000/svg" viewBox="0 0 24 14"><defs><style>.cls-1{fill:#fff;}</style></defs><title>Ресурс 1</title><g id="Слой_2" data-name="Слой 2"><g id="Слой_1-2" data-name="Слой 1"><path class="cls-1" d="M13.16,14a.8.8,0,0,0,.85-.92c0-1.92.71-2.95,2.06-1.6S17.87,14,19.68,14h3.2c.81,0,1.13-.26,1.13-.67,0-.86-1.42-2.39-2.62-3.5-1.69-1.57-1.76-1.6-.31-3.49C22.86,4,25.22,1,23.14,1h-4c-.77,0-.83.43-1.1,1.08-1,2.35-2.89,5.39-3.6,4.92S14,4.6,14.1,1.74C14.11,1,14.11.47,13,.2A8.07,8.07,0,0,0,11.15,0C8.88,0,7.31,1,8.2,1.12c1.57.29,1.42,3.69,1.05,5.16-.64,2.56-3-2-4-4.3C5,1.43,4.9,1,4,1H.79C.29,1,0,1.16,0,1.52c0,.6,3,6.72,5.79,9.77S11.27,14,13.16,14Z"/></g></g></svg>