<svg xmlns="http://www.w3.org/2000/svg" viewBox="0 0 255.48 48"><defs><style>.cls-1{fill:#1789fc;}</style></defs><title>Ресурс 1</title><g id="Слой_2" data-name="Слой 2"><g id="Layer_1" data-name="Layer 1"><path class="cls-1" d="M15.14,16.16a5.72,5.72,0,0,0-3.28.89,7.05,7.05,0,0,0-2.16,2.3,10,10,0,0,0-1.18,3.11,17,17,0,0,0-.34,3.37,16.21,16.21,0,0,0,.34,3.27,10.06,10.06,0,0,0,1.12,3,6.51,6.51,0,0,0,2.1,2.22,5.78,5.78,0,0,0,3.23.86,6,6,0,0,0,4.52-1.64,7.81,7.81,0,0,0,2-4.41h7.89q-.81,5.93-4.61,9A14.9,14.9,0,0,1,15,41.32,16.26,16.26,0,0,1,8.9,40.2a13.47,13.47,0,0,1-4.75-3.14,14.32,14.32,0,0,1-3-4.81A16.56,16.56,0,0,1,0,26.12,19.82,19.82,0,0,1,1,19.7a14.42,14.42,0,0,1,3-5.13A13.6,13.6,0,0,1,8.75,11.2,16.27,16.27,0,0,1,15.2,10a18.76,18.76,0,0,1,5.1.69,13.57,13.57,0,0,1,4.38,2.1,11.28,11.28,0,0,1,3.14,3.52,11.17,11.17,0,0,1,1.38,5h-8Q20.38,16.16,15.14,16.16Z"/><path class="cls-1" d="M40.86,33.18a4.71,4.71,0,0,0,1.41,1.56,6,6,0,0,0,2,.9,9.53,9.53,0,0,0,2.33.28,8.41,8.41,0,0,0,1.81-.2,6,6,0,0,0,1.73-.63,3.86,3.86,0,0,0,1.3-1.15A3,3,0,0,0,52,32.11q0-1.84-2.45-2.76a48.77,48.77,0,0,0-6.83-1.85c-1.19-.26-2.35-.59-3.49-.95a11.88,11.88,0,0,1-3-1.44A7,7,0,0,1,34,22.87a6.35,6.35,0,0,1-.81-3.31,9,9,0,0,1,1.12-4.72,8.33,8.33,0,0,1,3-2.91,13,13,0,0,1,4.15-1.5A25.32,25.32,0,0,1,46.19,10a23.7,23.7,0,0,1,4.69.46A12.44,12.44,0,0,1,54.95,12a9.31,9.31,0,0,1,3,2.91,9.77,9.77,0,0,1,1.41,4.58H51.55a3.58,3.58,0,0,0-1.78-3.2,8.23,8.23,0,0,0-3.8-.83,14.48,14.48,0,0,0-1.5.08,5.07,5.07,0,0,0-1.47.38,3.05,3.05,0,0,0-1.12.84,2.2,2.2,0,0,0-.46,1.47A2.25,2.25,0,0,0,42.21,20a6.31,6.31,0,0,0,2.1,1.12,25.08,25.08,0,0,0,3,.78c1.11.23,2.25.48,3.4.75a33.94,33.94,0,0,1,3.48,1,11.45,11.45,0,0,1,3,1.52,7.55,7.55,0,0,1,2.13,2.36A7,7,0,0,1,60.13,31a9.05,9.05,0,0,1-4.26,8.12,12.76,12.76,0,0,1-4.35,1.7,25.59,25.59,0,0,1-5,.48,24.46,24.46,0,0,1-5.07-.52,13.47,13.47,0,0,1-4.41-1.73,9.85,9.85,0,0,1-3.17-3.2,10,10,0,0,1-1.35-5h7.77A4.46,4.46,0,0,0,40.86,33.18Z"/><path class="cls-1" d="M71.79,33.18a4.71,4.71,0,0,0,1.41,1.56,6,6,0,0,0,2,.9,9.53,9.53,0,0,0,2.33.28,8.42,8.42,0,0,0,1.81-.2,6,6,0,0,0,1.73-.63,3.91,3.91,0,0,0,1.3-1.15,3,3,0,0,0,.52-1.81q0-1.84-2.45-2.76a48.77,48.77,0,0,0-6.82-1.85c-1.19-.26-2.35-.59-3.48-.95a12,12,0,0,1-3-1.44A7,7,0,0,1,65,22.87a6.33,6.33,0,0,1-.81-3.31,8.92,8.92,0,0,1,1.12-4.72,8.3,8.3,0,0,1,3-2.91,13,13,0,0,1,4.15-1.5A25.31,25.31,0,0,1,77.12,10a23.69,23.69,0,0,1,4.69.46A12.49,12.49,0,0,1,85.88,12a9.29,9.29,0,0,1,3,2.91,9.77,9.77,0,0,1,1.41,4.58H82.48a3.58,3.58,0,0,0-1.79-3.2,8.22,8.22,0,0,0-3.8-.83,14.48,14.48,0,0,0-1.5.08,5.1,5.1,0,0,0-1.47.38,3.06,3.06,0,0,0-1.12.84,2.2,2.2,0,0,0-.46,1.47A2.25,2.25,0,0,0,73.14,20a6.34,6.34,0,0,0,2.1,1.12,25.18,25.18,0,0,0,3,.78c1.11.23,2.25.48,3.4.75a33.73,33.73,0,0,1,3.48,1,11.45,11.45,0,0,1,3,1.52,7.61,7.61,0,0,1,2.14,2.36A7,7,0,0,1,91.06,31a9,9,0,0,1-4.26,8.12,12.75,12.75,0,0,1-4.35,1.7,25.59,25.59,0,0,1-5,.48,24.46,24.46,0,0,1-5.07-.52A13.48,13.48,0,0,1,68,39.07a9.84,9.84,0,0,1-3.17-3.2,10,10,0,0,1-1.35-5h7.77A4.45,4.45,0,0,0,71.79,33.18Z"/><path class="cls-1" d="M103.44,10.8l-.92,4.49h.11a11.55,11.55,0,0,1,4.67-3.89,14,14,0,0,1,5.93-1.3q4.21,0,6.25,1.84t2,5.82a18.39,18.39,0,0,1-.23,2.53q-.23,1.56-.64,3.29l-3.63,17h-4.9l3.8-17.4c0-.31.1-.67.17-1.07s.15-.83.23-1.26.15-.86.2-1.27a7.12,7.12,0,0,0,.09-1,3.52,3.52,0,0,0-1.5-3.14,6.44,6.44,0,0,0-3.69-1,9,9,0,0,0-4,1,11.3,11.3,0,0,0-3.37,2.47,8.12,8.12,0,0,0-2.07,2.8,20.72,20.72,0,0,0-1.21,3.42L97.34,40.59H92.5l6.22-29.78h4.72Z"/><path class="cls-1" d="M130.23,29.76a7.23,7.23,0,0,0,.63,3.08,6.35,6.35,0,0,0,1.73,2.25,8.28,8.28,0,0,0,2.48,1.38,8.64,8.64,0,0,0,2.88.49,9.33,9.33,0,0,0,5.41-1.47,8.64,8.64,0,0,0,3.17-4.23h4.9a12.89,12.89,0,0,1-1.84,4.34,11.76,11.76,0,0,1-3.05,3.11,13.43,13.43,0,0,1-4,1.87,16.54,16.54,0,0,1-4.61.64,14.72,14.72,0,0,1-6.13-1.12,10.64,10.64,0,0,1-3.89-2.88,10.28,10.28,0,0,1-2-3.86,15.29,15.29,0,0,1-.58-4.06,23.49,23.49,0,0,1,1.24-7.81,19.45,19.45,0,0,1,3.34-6.07,14.86,14.86,0,0,1,4.9-3.92,13,13,0,0,1,5.85-1.39q6.57,0,9.59,3.46t3,9.73a13.18,13.18,0,0,1-.17,2.19q-.17,1-.29,1.67H130.4A19.19,19.19,0,0,0,130.23,29.76Zm17.94-10A7.18,7.18,0,0,0,147,17.05a6.15,6.15,0,0,0-2.22-1.9,7.32,7.32,0,0,0-3.4-.72,10.53,10.53,0,0,0-3.83.66,9.45,9.45,0,0,0-3,1.81,10.77,10.77,0,0,0-2.13,2.68,15.69,15.69,0,0,0-1.38,3.25h17.28A11.1,11.1,0,0,0,148.17,19.76Z"/><path class="cls-1" d="M159.2,10.8h5.65l4.49,10.83,8.87-10.83h5.94L171.36,25.2,179,40.58h-5.59L168,28.37,157.82,40.58h-5.87L165.83,24.8Z"/><path class="cls-1" d="M202.06,10.8l-.93,4.32H195.2l-3.69,17.51c0,.35-.08.67-.12,1a7.72,7.72,0,0,0-.06,1,1.6,1.6,0,0,0,.9,1.58,4.61,4.61,0,0,0,2.05.44,7.24,7.24,0,0,0,1.44-.15,13.35,13.35,0,0,0,1.38-.37l-.86,4.49c-.57.08-1.15.15-1.73.2a16.42,16.42,0,0,1-1.73.09,16.08,16.08,0,0,1-2.59-.2,5.88,5.88,0,0,1-2.1-.75,4.16,4.16,0,0,1-1.44-1.47,4.56,4.56,0,0,1-.55-2.36,7.83,7.83,0,0,1,.09-1.21c.06-.38.13-.81.2-1.27l3.92-18.49h-5l.92-4.32h5L193.07,2H198l-1.85,8.81h5.94Z"/><path class="cls-1" d="M231.71,3.11a2.52,2.52,0,0,0-2.27,1.42,9.56,9.56,0,0,0-1.14,3.13L226.38,17a9.83,9.83,0,0,1-1.22,3.09,10.23,10.23,0,0,1-1.68,2.07,8.31,8.31,0,0,1-1.74,1.24,6.41,6.41,0,0,1-1.32.55l0,.15a4,4,0,0,1,.93.31,3.45,3.45,0,0,1,1.11.85,5.28,5.28,0,0,1,.93,1.5,5.89,5.89,0,0,1,.39,2.3,4.21,4.21,0,0,1-.1.93c-.07.31-.14.66-.21,1l-1.91,9.31a10,10,0,0,0-.15,1.76,5.57,5.57,0,0,0,.31,2,1.32,1.32,0,0,0,1.4.8h2.59L225,48h-3.62a4.32,4.32,0,0,1-1.58-.31,4.43,4.43,0,0,1-1.42-.88,4.2,4.2,0,0,1-1-1.45,5,5,0,0,1-.39-2q0-.47,0-1c0-.36.09-.73.16-1.11l2-9.36c.07-.38.12-.75.15-1.12s0-.69,0-1a4.13,4.13,0,0,0-1-2.87,3,3,0,0,0-2.3-1.06l.77-3.52a3.65,3.65,0,0,0,1.68-.44,6.05,6.05,0,0,0,1.6-1.21,8.24,8.24,0,0,0,1.35-1.91,10.3,10.3,0,0,0,.9-2.54l2-9.42a8.66,8.66,0,0,1,1.09-2.92,9,9,0,0,1,1.76-2.12A7.27,7.27,0,0,1,229.28.44,5.52,5.52,0,0,1,231.34,0H235l-.67,3.1h-2.58Z"/><path class="cls-1" d="M239.59,8.57l-6.14,31.6H230l6.13-31.6Z"/><path class="cls-1" d="M245.54,10.34,240,38.4h-2.46l5.58-28.07h2.44Z"/><path class="cls-1" d="M251.05,11.66l-5,25.42h-1.67l5-25.42Z"/><path class="cls-1" d="M255.48,13.56l-4.39,21.61h-.93l4.37-21.61Z"/></g></g></svg>