<svg xmlns="http://www.w3.org/2000/svg" viewBox="0 0 108.92 120"><defs><style>.cls-1{fill:#1789fc;}</style></defs><title>js</title><g id="Слой_2" data-name="Слой 2"><g id="Слой_1-2" data-name="Слой 1"><path class="cls-1" d="M49.56,1.28a10.06,10.06,0,0,1,9.82,0l44.87,25.35a9.24,9.24,0,0,1,4.67,8v50.8a9.34,9.34,0,0,1-5,8.13L59.19,118.78a9.78,9.78,0,0,1-9.93-.28l-13.42-7.76a7.9,7.9,0,0,1-2.59-1.86c.57-.77,1.59-.86,2.42-1.2A31.31,31.31,0,0,0,41,105.21a1.24,1.24,0,0,1,1.38.08c3.82,2.19,7.61,4.45,11.44,6.62.82.47,1.65-.15,2.35-.54Q78.08,99,100,86.59a1.45,1.45,0,0,0,.8-1.43V34.84a1.57,1.57,0,0,0-.94-1.57L55.34,8.16a1.55,1.55,0,0,0-1.75,0L9,33.28a1.55,1.55,0,0,0-.94,1.56V85.16a1.42,1.42,0,0,0,.81,1.41l11.9,6.72c2.23,1.2,5,1.92,7.44,1A5.64,5.64,0,0,0,31.9,89V39a1.26,1.26,0,0,1,1.23-1.28H39a1.32,1.32,0,0,1,1.24,1.52V89.58c0,4.47-1.83,9.34-6,11.53-5.1,2.64-11.39,2.08-16.43-.45C13.44,98.48,9.28,95.92,5,93.59a9.32,9.32,0,0,1-5-8.13V34.58a9.25,9.25,0,0,1,4.83-8.06Z"/><path class="cls-1" d="M62.56,36.5c6.5-.42,13.46-.25,19.31,3,4.53,2.45,7,7.6,7.12,12.64a1.37,1.37,0,0,1-1.48,1H81.85a1.46,1.46,0,0,1-1.38-1.47,8.61,8.61,0,0,0-4.12-6C72.87,43.93,68.84,44,65,44c-2.77.15-5.75.39-8.09,2a5.13,5.13,0,0,0-1.71,5.73c.61,1.44,2.27,1.9,3.63,2.33C66.71,56.11,75,56,82.7,58.65c3.18,1.1,6.29,3.24,7.38,6.57,1.42,4.46.8,9.8-2.38,13.38-2.58,2.95-6.33,4.55-10.07,5.43a48.38,48.38,0,0,1-15.2.65c-4.75-.54-9.7-1.79-13.37-5a14,14,0,0,1-4.52-11.07,1.27,1.27,0,0,1,1.39-1.12h5.7A1.33,1.33,0,0,1,53,68.79v0c.35,2.29,1.21,4.7,3.21,6.06,3.86,2.49,8.7,2.32,13.12,2.39C73,77.1,77.09,77,80.08,74.63A5.94,5.94,0,0,0,81.72,69c-.46-1.68-2.22-2.46-3.72-3-7.73-2.45-16.13-1.56-23.79-4.33-3.11-1.1-6.12-3.18-7.31-6.37-1.67-4.52-.9-10.11,2.61-13.58s8.35-4.72,13-5.22Z"/></g></g></svg>