<svg xmlns="http://www.w3.org/2000/svg" viewBox="0 0 930.1 1031.6"><defs><style>.cls-1{fill:#8ed6fb;}.cls-2{fill:#1789fc;}</style></defs><title>webpack</title><g id="Слой_2" data-name="Слой 2"><g id="Слой_1-2" data-name="Слой 1"><path class="cls-1" d="M901.5,795.1,483.4,1031.6V847.4L743.9,704.1Zm28.6-25.9V274.6l-153,88.3V680.8l153,88.4ZM28.6,795.1l418.1,236.5V847.4L186.2,704.1l-157.6,91ZM0,769.2V274.6l153,88.3V680.8L0,769.2ZM17.9,242.6,446.7,0V178.1L172,329.2l-2.1,1.2Zm894.3,0L483.4,0V178.1L758.1,329.2l2.1,1.2Z"/><path class="cls-2" d="M446.7,805.5l-257-141.3v-280l257,148.4V805.5Zm36.7,0,257-141.3v-280l-257,148.4V805.5ZM207.1,351.8l258-141.9,258,141.9-258,149Z"/></g></g></svg>