<?xml version="1.0" standalone="no"?>
<!DOCTYPE svg PUBLIC "-//W3C//DTD SVG 1.1//EN" "http://www.w3.org/Graphics/SVG/1.1/DTD/svg11.dtd" >
<svg xmlns="http://www.w3.org/2000/svg" xmlns:xlink="http://www.w3.org/1999/xlink" version="1.1">
<metadata>
Created by FontForge 20161013 at Tue Mar 28 03:25:51 2017
 By ,,,
Copyright (c) 2016 by Andrij Shevchenko. All rights reserved.
</metadata>
<defs>
<font id="Mariupol-Bold" horiz-adv-x="600" >
  <font-face 
    font-family="Mariupol"
    font-weight="700"
    font-stretch="normal"
    units-per-em="1024"
    panose-1="2 1 8 0 2 2 1 1 0 4"
    ascent="819"
    descent="-205"
    x-height="500"
    cap-height="677"
    bbox="-90 -209 1560 881"
    underline-thickness="50"
    underline-position="-200"
    unicode-range="U+0020-FB00"
  />
<missing-glyph horiz-adv-x="774" 
d="M280 614q0 -13 1 -18q56 18 105 18q53 0 107 -18q1 5 1 18q0 43 -31.5 74t-76.5 31q-43 0 -74.5 -31t-31.5 -74zM40 266h147l-69 -119q26 -62 88 -111t131 -59q6 39 14 114q6 99 6 199q0 101 -30 155q-16 23 -41 42q-59 49 -59 127q0 65 47 111.5t112 46.5
q67 0 114 -46.5t47 -111.5q0 -78 -60 -127q-27 -22 -40 -42q-30 -54 -30 -155q0 -133 7 -199q5 -64 13 -114q69 10 131 59t88 111l-69 119h147q0 -140 -97.5 -244t-250.5 -104q-152 0 -249 104t-97 244z" />
    <glyph glyph-name="ff" unicode="ff" horiz-adv-x="706" 
d="M20 385v115h80v5q0 83 47 127.5t137 44.5h79v-115h-86q-30 0 -42.5 -14t-14.5 -48h203v5q0 83 47 127.5t137 44.5h79v-115h-86q-30 0 -42.5 -14t-14.5 -48h143v-115h-123v-385h-140v385h-183v-385h-140v385h-80z" />
    <glyph glyph-name="logotype" unicode="&#x28;&#x2d;&#x2b;" horiz-adv-x="774" 
d="M280 614q0 -13 1 -18q56 18 105 18q53 0 107 -18q1 5 1 18q0 43 -31.5 74t-76.5 31q-43 0 -74.5 -31t-31.5 -74zM40 266h147l-69 -119q26 -62 88 -111t131 -59q6 39 14 114q6 99 6 199q0 101 -30 155q-16 23 -41 42q-59 49 -59 127q0 65 47 111.5t112 46.5
q67 0 114 -46.5t47 -111.5q0 -78 -60 -127q-27 -22 -40 -42q-30 -54 -30 -155q0 -133 7 -199q5 -64 13 -114q69 10 131 59t88 111l-69 119h147q0 -140 -97.5 -244t-250.5 -104q-152 0 -249 104t-97 244z" />
    <glyph glyph-name="swashleft" unicode="&#x28;&#x2d;&#x2d;&#x2d;" horiz-adv-x="505" 
d="M30 305q0 91 72 143t181 52h297v-115h-297q-50 0 -78.5 -21t-28.5 -59t28.5 -59t78.5 -21v-115q-109 0 -181 52t-72 143z" />
    <glyph glyph-name="swashtop" unicode="&#x28;&#x3d;&#x3d;&#x3d;" horiz-adv-x="500" 
d="M30 462q0 100 77.5 157.5t195.5 57.5h297v-120h-297q-122 0 -122 -95t122 -95v-120q-118 0 -195.5 57.5t-77.5 157.5z" />
    <glyph glyph-name="swashright" unicode="&#x2d;&#x2d;&#x2d;&#x29;" horiz-adv-x="505" 
d="M-75 0v120h297q102 0 102 75t-102 75v120q109 0 181 -52t72 -143t-72 -143t-181 -52h-297z" />
    <glyph glyph-name="ft" unicode="ft" horiz-adv-x="716" 
d="M20 385v115h80v5q0 83 47 127.5t137 44.5h79v-115h-86q-30 0 -42.5 -14t-14.5 -48h213v120h140v-120h123v-115h-123v-173q0 -91 47 -91h76v-121h-89q-87 0 -130.5 48.5t-43.5 133.5v203h-193v-385h-140v385h-80z" />
    <glyph glyph-name="tt" unicode="tt" horiz-adv-x="716" 
d="M20 385v115h80v120h140v-120h193v120h140v-120h123v-115h-123v-173q0 -91 47 -91h76v-121h-89q-87 0 -130.5 48.5t-43.5 133.5v203h-193v-173q0 -91 47 -91h76v-121h-89q-87 0 -130.5 48.5t-43.5 133.5v203h-80z" />
    <glyph glyph-name="uni0457_uni0457" unicode="&#x457;&#x457;" horiz-adv-x="540" 
d="M340 0v500h130v-500h-130zM70 0v500h130v-500h-130zM-51 630q0 33 24.5 53.5t61.5 20.5q59 0 79 -46q19 46 81 46q51 0 74 -37q24 37 76 37q59 0 79 -46q19 46 81 46q37 0 61 -20.5t24 -53.5q0 -34 -24 -54t-61 -20q-62 0 -81 45q-19 -45 -79 -45q-53 0 -76 36
q-22 -36 -74 -36q-62 0 -81 45q-19 -45 -79 -45q-37 0 -61.5 20t-24.5 54z" />
    <glyph glyph-name="uni0456_uni0457" unicode="&#x456;&#x457;" horiz-adv-x="540" 
d="M419 630q0 33 24.5 53.5t61.5 20.5t61 -20.5t24 -53.5q0 -34 -24 -54t-61 -20t-61.5 20t-24.5 54zM340 0v500h130v-500h-130zM234 630q0 33 24.5 53.5t61.5 20.5t61 -20.5t24 -53.5q0 -34 -24 -54t-61 -20t-61.5 20t-24.5 54zM70 0v500h130v-500h-130zM50 630
q0 33 24.5 53.5t61.5 20.5t61 -20.5t24 -53.5q0 -34 -24 -54t-61 -20t-61.5 20t-24.5 54z" />
    <glyph glyph-name=".notdef" horiz-adv-x="774" 
d="M280 614q0 -13 1 -18q56 18 105 18q53 0 107 -18q1 5 1 18q0 43 -31.5 74t-76.5 31q-43 0 -74.5 -31t-31.5 -74zM40 266h147l-69 -119q26 -62 88 -111t131 -59q6 39 14 114q6 99 6 199q0 101 -30 155q-16 23 -41 42q-59 49 -59 127q0 65 47 111.5t112 46.5
q67 0 114 -46.5t47 -111.5q0 -78 -60 -127q-27 -22 -40 -42q-30 -54 -30 -155q0 -133 7 -199q5 -64 13 -114q69 10 131 59t88 111l-69 119h147q0 -140 -97.5 -244t-250.5 -104q-152 0 -249 104t-97 244z" />
    <glyph glyph-name=".null" horiz-adv-x="0" 
 />
    <glyph glyph-name="nonmarkingreturn" horiz-adv-x="341" 
 />
    <glyph glyph-name="space" unicode=" " horiz-adv-x="290" 
 />
    <glyph glyph-name="exclam" unicode="!" horiz-adv-x="280" 
d="M67 220v457h145v-457h-145zM52 73q0 39 25.5 63.5t62.5 24.5t62.5 -24.5t25.5 -63.5q0 -40 -25 -64t-63 -24t-63 24t-25 64z" />
    <glyph glyph-name="quotedbl" unicode="&#x22;" horiz-adv-x="480" 
d="M290 383v294h115v-294h-115zM75 383v294h115v-294h-115z" />
    <glyph glyph-name="numbersign" unicode="#" horiz-adv-x="785" 
d="M315 208h155v182h-155v-182zM100 98v110h100v182h-100v110h100v107h115v-107h155v107h115v-107h100v-110h-100v-182h100v-110h-100v-98h-115v98h-155v-98h-115v98h-100z" />
    <glyph glyph-name="dollar" unicode="$" 
d="M351 103q73 14 73 92q0 56 -73 76v-168zM181 482q0 -62 75 -82v173q-75 -13 -75 -91zM40 183h145q0 -63 71 -79v183q-87 19 -149 70.5t-62 134.5q0 79 52.5 133.5t158.5 64.5v87h95v-88q106 -13 154 -70t48 -125h-145q0 60 -57 77v-186q86 -17 147.5 -64.5t61.5 -125.5
q0 -87 -50.5 -142.5t-158.5 -65.5v-87h-95v88q-62 5 -106.5 25t-67 49.5t-32.5 59t-10 61.5z" />
    <glyph glyph-name="percent" unicode="%" horiz-adv-x="753" 
d="M499 147q0 -35 15.5 -56t42.5 -21t42 21.5t15 55.5t-15 53.5t-42 19.5q-28 0 -43 -19.5t-15 -53.5zM400 147q0 69 43.5 112.5t112.5 43.5t113 -43.5t44 -112.5t-44.5 -115.5t-112.5 -46.5t-112 46.5t-44 115.5zM139 536q0 -35 15.5 -56t42.5 -21t42 21.5t15 55.5
t-15 53.5t-42 19.5q-28 0 -43 -19.5t-15 -53.5zM77 0l465 677h128l-465 -677h-128zM40 536q0 69 43.5 112.5t112.5 43.5t113 -43.5t44 -112.5t-44.5 -115.5t-112.5 -46.5t-112 46.5t-44 115.5z" />
    <glyph glyph-name="ampersand" unicode="&#x26;" horiz-adv-x="660" 
d="M220 507q0 -45 55 -86q75 38 75 86q0 34 -17.5 52t-45.5 18q-27 0 -47 -20t-20 -50zM185 194q0 -41 25.5 -67.5t76.5 -26.5q55 0 95 38l-128 157q-69 -45 -69 -101zM40 179q0 114 120 183q-85 69 -85 155q0 73 62.5 124t149.5 51q88 0 148 -49t60 -126q0 -56 -34.5 -93
t-96.5 -70l82 -102q6 22 10.5 44.5t5.5 33.5l1 12h138q-10 -106 -65 -202l114 -140h-155l-37 44q-72 -59 -171 -59q-111 0 -179 52.5t-68 141.5z" />
    <glyph glyph-name="quotesingle" unicode="'" horiz-adv-x="265" 
d="M75 383v294h115v-294h-115z" />
    <glyph glyph-name="parenleft" unicode="(" horiz-adv-x="350" 
d="M70 255q0 81 15 154t36 119.5t42.5 82t36.5 51.5l15 15h135q-6 -6 -15.5 -18.5t-34.5 -53.5t-44.5 -86.5t-35 -117.5t-15.5 -146t15 -146t36.5 -121.5t42.5 -88.5t36 -57l15 -19h-135q-6 6 -15.5 17.5t-34.5 51.5t-44.5 86.5t-35 121t-15.5 155.5z" />
    <glyph glyph-name="parenright" unicode=")" horiz-adv-x="350" 
d="M0 -177q6 6 15.5 18.5t34.5 53.5t44.5 86.5t35 117.5t15.5 146t-15 146t-36 121.5t-42.5 88.5t-36.5 57l-15 19h135q6 -6 15.5 -17.5t34.5 -51.5t44.5 -86.5t35 -121t15.5 -155.5t-15 -154t-36 -119.5t-42.5 -82t-36.5 -51.5l-15 -15h-135z" />
    <glyph glyph-name="asterisk" unicode="*" horiz-adv-x="536" 
d="M40 468l37 114l131 -43v138h120v-138l131 43l37 -114l-131 -43l81 -111l-97 -70l-81 111l-81 -111l-97 70l81 111z" />
    <glyph glyph-name="plus" unicode="+" horiz-adv-x="500" 
d="M40 225v115h150v150h120v-150h150v-115h-150v-155h-120v155h-150z" />
    <glyph glyph-name="comma" unicode="," horiz-adv-x="302" 
d="M3 -66l147 254l100 -57l-147 -254z" />
    <glyph glyph-name="hyphen" unicode="-" horiz-adv-x="400" 
d="M40 225v115h320v-115h-320z" />
    <glyph glyph-name="period" unicode="." horiz-adv-x="280" 
d="M52 73q0 39 25.5 63.5t62.5 24.5t62.5 -24.5t25.5 -63.5q0 -40 -25 -64t-63 -24t-63 24t-25 64z" />
    <glyph glyph-name="slash" unicode="/" horiz-adv-x="540" 
d="M50 -77l290 854h150l-290 -854h-150z" />
    <glyph glyph-name="zero" unicode="0" horiz-adv-x="622" 
d="M186 346q0 -246 125 -246t125 246q0 231 -125 231t-125 -231zM40 346q0 176 75.5 261t194.5 85q57 0 105 -19.5t86 -60t59.5 -108.5t21.5 -158q0 -179 -75 -270t-197 -91q-121 0 -195.5 91t-74.5 270z" />
    <glyph glyph-name="one" unicode="1" horiz-adv-x="410" 
d="M50 557v120h240v-677h-140v557h-100z" />
    <glyph glyph-name="two" unicode="2" horiz-adv-x="570" 
d="M40 0v75l189 179q145 138 145 236q0 87 -92 87q-42 0 -69.5 -20.5t-27.5 -56.5h-145q0 25 7 50t24.5 51t44.5 46t70 32.5t97 12.5q112 0 174.5 -57.5t62.5 -145.5q0 -79 -56 -158.5t-146 -165.5l-48 -45h260v-120h-490z" />
    <glyph glyph-name="three" unicode="3" horiz-adv-x="580" 
d="M40 165h145q0 -23 30.5 -44t69.5 -21q46 0 78 25.5t32 69.5t-38.5 68t-89.5 24h-98v120h97q49 0 82 26.5t33 63.5q0 36 -27 58t-72 22q-42 0 -68 -20.5t-26 -56.5h-145q0 25 6.5 49.5t24 51t43.5 46.5t69 32.5t97 12.5q112 0 177 -56t65 -138q0 -106 -122 -145
q137 -44 137 -158q0 -94 -67.5 -152t-187.5 -58q-114 0 -179.5 57t-65.5 123z" />
    <glyph glyph-name="four" unicode="4" horiz-adv-x="590" 
d="M152 288h183v236zM20 168v140l295 369h165v-389h90v-120h-90v-168h-145v168h-315z" />
    <glyph glyph-name="five" unicode="5" horiz-adv-x="570" 
d="M40 165h145q0 -34 25.5 -49.5t58.5 -15.5q115 0 115 125q0 115 -115 115q-89 0 -102 -63h-105l30 400h380v-120h-265l-10 -129q42 22 99 22q106 0 170 -61.5t64 -163.5q0 -107 -67 -173.5t-193 -66.5q-108 0 -169 57t-61 123z" />
    <glyph glyph-name="six" unicode="6" horiz-adv-x="590" 
d="M185 225q0 -125 114 -125q45 0 75 30t30 95q0 60 -28.5 87.5t-76.5 27.5q-111 0 -114 -106v-9zM40 303q0 389 271 389q57 0 100 -16.5t64 -40.5t34 -48t16 -41l3 -16h-135q0 2 -1 5t-5.5 11t-12.5 14.5t-24.5 11.5t-38.5 5q-58 0 -87.5 -40.5t-36.5 -144.5q55 58 141 58
q98 0 160 -62t62 -163q0 -106 -65 -173t-185 -67q-260 0 -260 318z" />
    <glyph glyph-name="seven" unicode="7" horiz-adv-x="565" 
d="M20 557v120h525v-50l-290 -627h-150l257 557h-342z" />
    <glyph glyph-name="eight" unicode="8" horiz-adv-x="590" 
d="M200 497q0 -43 26.5 -65t68.5 -22t68.5 22t26.5 65q0 38 -26 59t-69 21t-69 -21t-26 -59zM185 205q0 -43 28 -74t82 -31t82 31t28 74q0 45 -30.5 71.5t-79.5 26.5t-79.5 -26.5t-30.5 -71.5zM40 195q0 120 125 160q-110 44 -110 152q0 81 68.5 133t171.5 52t171.5 -52
t68.5 -133q0 -108 -111 -152q126 -40 126 -160q0 -95 -70.5 -152.5t-184.5 -57.5t-184.5 57.5t-70.5 152.5z" />
    <glyph glyph-name="nine" unicode="9" horiz-adv-x="590" 
d="M186 452q0 -60 28.5 -87.5t76.5 -27.5q114 0 114 112v3q0 125 -114 125q-45 0 -75 -29.5t-30 -95.5zM40 452q0 106 65 173t185 67q260 0 260 -318q0 -389 -271 -389q-57 0 -100 16.5t-64 40.5t-34 48t-16 40l-3 17h135q0 -2 1 -5t5.5 -11t12.5 -14.5t24.5 -11.5t38.5 -5
q58 0 87 40.5t36 144.5q-52 -58 -140 -58q-98 0 -160 62t-62 163z" />
    <glyph glyph-name="colon" unicode=":" horiz-adv-x="280" 
d="M52 427q0 39 25.5 63.5t62.5 24.5t62.5 -24.5t25.5 -63.5q0 -40 -25 -64t-63 -24t-63 24t-25 64zM52 73q0 39 25.5 63.5t62.5 24.5t62.5 -24.5t25.5 -63.5q0 -40 -25 -64t-63 -24t-63 24t-25 64z" />
    <glyph glyph-name="semicolon" unicode=";" horiz-adv-x="302" 
d="M63 427q0 39 25.5 63.5t62.5 24.5t62.5 -24.5t25.5 -63.5q0 -40 -25 -64t-63 -24t-63 24t-25 64zM3 -66l147 254l100 -57l-147 -254z" />
    <glyph glyph-name="less" unicode="&#x3c;" horiz-adv-x="360" 
d="M10 293l320 197v-128l-121 -69l121 -69v-128z" />
    <glyph glyph-name="equal" unicode="=" horiz-adv-x="400" 
d="M20 325v115h360v-115h-360zM20 125v115h360v-115h-360z" />
    <glyph glyph-name="greater" unicode="&#x3e;" horiz-adv-x="360" 
d="M10 96v128l121 69l-121 69v128l320 -197z" />
    <glyph glyph-name="question" unicode="?" horiz-adv-x="550" 
d="M192 73q0 39 25.5 63.5t62.5 24.5t62.5 -24.5t25.5 -63.5q0 -40 -25 -64t-63 -24t-63 24t-25 64zM40 500q0 25 6.5 50t23.5 51t42.5 46t67 32.5t93.5 12.5q108 0 172.5 -54t64.5 -135q0 -38 -17.5 -71t-43 -57.5t-50.5 -47.5t-42.5 -50.5t-17.5 -56.5h-127q0 42 15.5 77
t38 58.5t45 45t38 47t15.5 54.5q0 75 -92 75q-38 0 -62.5 -20.5t-24.5 -56.5h-145z" />
    <glyph glyph-name="at" unicode="@" horiz-adv-x="1070" 
d="M426 235q0 -71 29.5 -108t65.5 -37q33 0 61 31t30 92v26q-2 66 -29.5 98.5t-61.5 32.5q-35 0 -65 -33.5t-30 -101.5zM60 255q0 203 138 320t352 117q201 0 330.5 -111.5t129.5 -288.5q0 -128 -58 -210t-155 -82q-78 0 -113 20.5t-44 68.5q-22 -48 -61 -76t-89 -28
q-83 0 -141.5 69t-58.5 181q0 110 59.5 175t140.5 65q87 0 137 -81l25 66h95v-286q0 -39 9.5 -53.5t34.5 -15.5q40 2 62 49.5t22 137.5q0 132 -90 212.5t-235 80.5q-146 0 -250.5 -88t-104.5 -242q0 -172 86 -257t242 -85h59v-105h-57q-229 0 -347 118t-118 329z" />
    <glyph glyph-name="A" unicode="A" horiz-adv-x="700" 
d="M256 258h183l-92 277zM20 0l249 677h159l252 -677h-155l-46 138h-263l-46 -138h-150z" />
    <glyph glyph-name="B" unicode="B" horiz-adv-x="680" 
d="M215 400h104q140 0 140 83q0 74 -130 74h-114v-157zM215 120h144q130 0 130 85q0 40 -40 62.5t-100 22.5h-134v-170zM70 0v677h260q139 0 209.5 -51t70.5 -133q0 -102 -96 -141q126 -45 126 -157q0 -90 -71.5 -142.5t-208.5 -52.5h-290z" />
    <glyph glyph-name="C" unicode="C" horiz-adv-x="720" 
d="M40 344q0 168 91.5 258t248.5 90q144 0 221.5 -71.5t77.5 -170.5h-147q0 53 -40.5 87.5t-110.5 34.5q-80 0 -132.5 -56t-52.5 -172q0 -117 53.5 -178t131.5 -61q69 0 111.5 39t42.5 93h145q0 -100 -78 -176t-222 -76q-156 0 -248 95t-92 264z" />
    <glyph glyph-name="D" unicode="D" horiz-adv-x="750" 
d="M215 120h154q75 0 132.5 57t57.5 166t-55 161.5t-135 52.5h-154v-437zM70 0v677h300q157 0 248.5 -86.5t91.5 -247.5q0 -160 -94.5 -251.5t-245.5 -91.5h-300z" />
    <glyph glyph-name="E" unicode="E" 
d="M70 0v677h490v-120h-345v-139h285v-120h-285v-178h345v-120h-490z" />
    <glyph glyph-name="F" unicode="F" horiz-adv-x="550" 
d="M70 0v677h460v-120h-315v-169h275v-120h-275v-268h-145z" />
    <glyph glyph-name="G" unicode="G" horiz-adv-x="740" 
d="M40 344q0 168 91.5 258t248.5 90q150 0 224.5 -70.5t74.5 -171.5h-147q0 54 -37.5 88t-113.5 34q-80 0 -132.5 -56t-52.5 -172q0 -118 55 -178.5t140 -60.5q72 0 121.5 36.5t65.5 103.5h-208v120h350v-70q0 -139 -86.5 -224.5t-243.5 -85.5q-163 0 -256.5 94.5
t-93.5 264.5z" />
    <glyph glyph-name="H" unicode="H" horiz-adv-x="725" 
d="M70 0v677h145v-259h295v259h145v-677h-145v298h-295v-298h-145z" />
    <glyph glyph-name="I" unicode="I" horiz-adv-x="285" 
d="M70 0v677h145v-677h-145z" />
    <glyph glyph-name="J" unicode="J" horiz-adv-x="550" 
d="M40 203h145q0 -62 20 -82.5t64 -20.5q41 0 58.5 20t17.5 75v482h145v-482q0 -105 -54 -157.5t-167 -52.5q-121 0 -175 56t-54 162z" />
    <glyph glyph-name="K" unicode="K" horiz-adv-x="675" 
d="M70 0v677h145v-259h48l211 259h164l-267 -322l284 -355h-174l-234 298h-32v-298h-145z" />
    <glyph glyph-name="L" unicode="L" horiz-adv-x="550" 
d="M70 0v677h145v-557h315v-120h-460z" />
    <glyph glyph-name="M" unicode="M" horiz-adv-x="835" 
d="M70 0v677h170l177 -318l178 318h170v-677h-145v469l-154 -279h-99l-152 272v-462h-145z" />
    <glyph glyph-name="N" unicode="N" horiz-adv-x="755" 
d="M70 0v677h170l300 -478v478h145v-677h-170l-300 478v-478h-145z" />
    <glyph glyph-name="O" unicode="O" horiz-adv-x="780" 
d="M195 344q0 -112 57 -175.5t138 -63.5t138 63.5t57 175.5q0 111 -56.5 169.5t-138.5 58.5t-138.5 -58.5t-56.5 -169.5zM40 344q0 162 95.5 255t254.5 93t254.5 -93t95.5 -255q0 -163 -96 -261t-254 -98t-254 98t-96 261z" />
    <glyph glyph-name="P" unicode="P" horiz-adv-x="660" 
d="M215 320h117q137 5 137 123q0 62 -37.5 88t-112.5 26h-104v-237zM70 0v677h250q300 0 300 -234q0 -118 -76.5 -180.5t-223.5 -62.5h-105v-200h-145z" />
    <glyph glyph-name="Q" unicode="Q" horiz-adv-x="780" 
d="M195 344q0 -112 57 -175.5t138 -63.5h1l-78 139l127 65l82 -146q63 66 63 181q0 111 -56.5 169.5t-138.5 58.5t-138.5 -58.5t-56.5 -169.5zM40 344q0 162 95.5 255t254.5 93t254.5 -93t95.5 -255q0 -101 -38.5 -179.5t-109.5 -124.5l123 -217h-164l-95 167q-35 -5 -66 -5
q-158 0 -254 98t-96 261z" />
    <glyph glyph-name="R" unicode="R" horiz-adv-x="660" 
d="M215 340h104q150 0 150 104q0 113 -150 113h-104v-217zM70 0v677h250q146 0 223 -61t77 -172q0 -148 -139 -199l139 -245h-164l-125 220h-11h-105v-220h-145z" />
    <glyph glyph-name="S" unicode="S" horiz-adv-x="666" 
d="M40 213h151q0 -49 41.5 -78.5t115.5 -29.5q56 0 91 22.5t35 57.5q0 29 -22.5 47.5t-58.5 28t-79.5 17t-87.5 21t-80 35t-58.5 63t-22.5 100.5q0 79 74.5 137t202.5 58q74 0 130 -20.5t86.5 -54.5t45.5 -71t15 -77h-151q0 45 -30 74t-96 29q-54 0 -89.5 -20.5t-35.5 -54.5
q0 -33 22.5 -54.5t58.5 -31.5t80 -18t87.5 -20.5t79.5 -32t58.5 -59t22.5 -96.5q0 -86 -72.5 -143t-205.5 -57q-81 0 -142.5 20t-96.5 53.5t-52 72.5t-17 82z" />
    <glyph glyph-name="T" unicode="T" horiz-adv-x="585" 
d="M20 557v120h545v-120h-200v-557h-145v557h-200z" />
    <glyph glyph-name="U" unicode="U" horiz-adv-x="684" 
d="M60 260v417h145v-417q0 -86 39.5 -121t97.5 -35t97.5 35t39.5 121v417h145v-417q0 -140 -78.5 -207.5t-204.5 -67.5q-125 0 -203 67.5t-78 207.5z" />
    <glyph glyph-name="V" unicode="V" horiz-adv-x="700" 
d="M20 677h160l172 -486l173 486h155l-259 -677h-139z" />
    <glyph glyph-name="W" unicode="W" horiz-adv-x="895" 
d="M20 677h135l106 -482l128 482h119l127 -473l105 473h135l-150 -677h-160l-118 444l-117 -444h-160z" />
    <glyph glyph-name="X" unicode="X" horiz-adv-x="700" 
d="M20 0l229 338l-221 339h159l163 -263l163 263h159l-221 -339l229 -338h-170l-158 257l-168 -257h-164z" />
    <glyph glyph-name="Y" unicode="Y" horiz-adv-x="680" 
d="M20 677h156l167 -283l167 283h150l-247 -402v-275h-145v278z" />
    <glyph glyph-name="Z" unicode="Z" horiz-adv-x="582" 
d="M20 0v60l337 497h-337v120h542v-55l-341 -502h341v-120h-542z" />
    <glyph glyph-name="bracketleft" unicode="[" horiz-adv-x="390" 
d="M100 -177v854h260v-115h-120v-624h120v-115h-260z" />
    <glyph glyph-name="backslash" unicode="\" horiz-adv-x="540" 
d="M50 777h150l290 -854h-150z" />
    <glyph glyph-name="bracketright" unicode="]" horiz-adv-x="390" 
d="M30 -62h120v624h-120v115h260v-854h-260v115z" />
    <glyph glyph-name="underscore" unicode="_" horiz-adv-x="640" 
d="M10 50h620v-115h-620v115z" />
    <glyph glyph-name="a" unicode="a" horiz-adv-x="627" 
d="M186 253q0 -72 32.5 -112.5t82.5 -40.5q47 0 78 38t33 107v15q-2 69 -32.5 104.5t-78.5 35.5q-50 0 -82.5 -37.5t-32.5 -109.5zM40 253q0 116 64 189t166 73q99 0 154 -89l28 74h105v-500h-105l-31 73q-54 -88 -151 -88q-101 0 -165.5 76t-64.5 192z" />
    <glyph glyph-name="b" unicode="b" horiz-adv-x="622" 
d="M210 250q0 -68 29 -109t82 -41q54 0 84.5 41t30.5 109q0 69 -30 109.5t-85 40.5q-52 0 -81.5 -44t-29.5 -106zM70 0v677h140v-235q53 73 142 73q107 0 168.5 -73.5t61.5 -191.5q0 -117 -63 -191t-167 -74q-99 0 -154 89l-28 -74h-100z" />
    <glyph glyph-name="c" unicode="c" horiz-adv-x="565" 
d="M40 253q0 115 73 188.5t187 73.5q118 0 183 -75q40 -46 40 -123h-145q0 37 -16 57q-20 26 -67 26q-48 0 -78.5 -39.5t-30.5 -107.5t30.5 -110.5t78.5 -42.5q46 0 68 27q17 21 17 58h145q0 -76 -39 -122q-67 -78 -186 -78q-114 0 -187 76t-73 192z" />
    <glyph glyph-name="d" unicode="d" horiz-adv-x="622" 
d="M186 253q0 -72 32.5 -112.5t82.5 -40.5q49 0 80 40t31 113v7q-2 69 -32.5 104.5t-78.5 35.5q-50 0 -82.5 -37.5t-32.5 -109.5zM40 253q0 116 64 189t166 73q88 0 142 -71v233h140v-677h-100l-31 73q-54 -88 -151 -88q-101 0 -165.5 76t-64.5 192z" />
    <glyph glyph-name="e" unicode="e" horiz-adv-x="585" 
d="M188 310h215q-1 43 -28.5 71.5t-77.5 28.5t-79 -28.5t-30 -71.5zM40 253q0 121 72 191.5t185 70.5q110 0 179 -71t69 -178v-41h-357q1 -54 32.5 -89.5t82.5 -35.5q55 0 79 31q14 18 14 34h145q0 -48 -36 -93q-69 -87 -202 -87q-113 0 -188 73.5t-75 194.5z" />
    <glyph glyph-name="f" unicode="f" horiz-adv-x="383" 
d="M20 385v115h80v5q0 83 47 127.5t137 44.5h79v-115h-86q-30 0 -42.5 -14t-14.5 -48h143v-115h-123v-385h-140v385h-80z" />
    <glyph glyph-name="g" unicode="g" horiz-adv-x="612" 
d="M186 270q0 -63 35 -96.5t80 -33.5q40 0 69.5 34t31.5 90v6q0 58 -29.5 94t-71.5 36q-45 0 -80 -33.5t-35 -96.5zM40 270q0 104 62 174.5t168 70.5q90 0 144 -89l28 74h100v-407q0 -285 -261 -285q-210 0 -210 148h145q0 -33 65 -33q61 0 90.5 36t30.5 137
q-52 -71 -132 -71q-106 0 -168 70.5t-62 174.5z" />
    <glyph glyph-name="h" unicode="h" horiz-adv-x="630" 
d="M70 0v677h140v-233q57 71 150 71q102 0 156 -60.5t54 -164.5v-290h-140v280v5q0 49 -29 82t-80 33q-48 0 -78.5 -35t-32.5 -82v-283h-140z" />
    <glyph glyph-name="i" unicode="i" horiz-adv-x="270" 
d="M70 0v500h130v-500h-130zM50 630q0 33 24.5 53.5t61.5 20.5t61 -20.5t24 -53.5q0 -34 -24 -54t-61 -20t-61.5 20t-24.5 54z" />
    <glyph glyph-name="j" unicode="j" horiz-adv-x="315" 
d="M84 630q0 33 24.5 53.5t61.5 20.5t61 -20.5t24 -53.5q0 -34 -24 -54t-61 -20t-61.5 20t-24.5 54zM5 -56h36q59 0 59 96v460h140v-500q0 -86 -53 -131.5t-133 -45.5h-49v121z" />
    <glyph glyph-name="k" unicode="k" horiz-adv-x="559" 
d="M70 0v677h140v-357h34l143 180h154l-190 -240l198 -260h-164l-156 205h-19v-205h-140z" />
    <glyph glyph-name="l" unicode="l" horiz-adv-x="280" 
d="M70 0v677h140v-677h-140z" />
    <glyph glyph-name="m" unicode="m" horiz-adv-x="890" 
d="M70 0v500h100l23 -61q46 76 137 76q108 0 132 -125q43 125 178 125q91 0 140.5 -56t49.5 -169v-290h-140v280v10q0 58 -18.5 84t-60.5 26q-38 0 -63.5 -35t-27.5 -82v-283h-140v290q0 58 -19 84t-60 26q-38 0 -63.5 -35t-27.5 -82v-283h-140z" />
    <glyph glyph-name="n" unicode="n" horiz-adv-x="630" 
d="M70 0v500h100l27 -73q56 88 163 88q102 0 156 -60.5t54 -164.5v-290h-140v290q-2 47 -31 78.5t-78 31.5q-48 0 -78.5 -35t-32.5 -82v-283h-140z" />
    <glyph glyph-name="o" unicode="o" 
d="M185 253q0 -69 30.5 -111t84.5 -42t84.5 42t30.5 111q0 68 -30.5 107.5t-84.5 39.5t-84.5 -39.5t-30.5 -107.5zM40 253q0 115 73 188.5t187 73.5t187 -73.5t73 -188.5q0 -116 -73 -192t-187 -76t-187 76t-73 192z" />
    <glyph glyph-name="p" unicode="p" horiz-adv-x="622" 
d="M210 253q0 -69 29 -111t82 -42q54 0 84.5 42.5t30.5 110.5t-30 107.5t-85 39.5q-50 0 -79.5 -41t-31.5 -100v-6zM70 -177v677h100l27 -77q55 92 155 92q108 0 169 -72t61 -190q0 -117 -63 -192.5t-167 -75.5q-89 0 -142 73v-235h-140z" />
    <glyph glyph-name="q" unicode="q" horiz-adv-x="622" 
d="M186 253q0 -72 32.5 -112.5t82.5 -40.5q47 0 78 38t33 107v15q-2 69 -32.5 104.5t-78.5 35.5q-50 0 -82.5 -37.5t-32.5 -109.5zM40 253q0 116 64 189t166 73q99 0 154 -89l28 74h100v-677h-140v236q-54 -74 -142 -74q-101 0 -165.5 76t-64.5 192z" />
    <glyph glyph-name="r" unicode="r" horiz-adv-x="380" 
d="M70 0v500h100l35 -92q36 92 135 92h20v-125h-20q-62 0 -95 -33t-35 -88v-254h-140z" />
    <glyph glyph-name="s" unicode="s" horiz-adv-x="530" 
d="M40 153h145q0 -53 90 -53q33 0 51 12.5t18 32.5q0 17 -21.5 29.5t-53.5 19t-69.5 19t-69.5 28t-53.5 47.5t-21.5 77q0 69 51.5 109.5t152.5 40.5q110 0 167 -49.5t57 -118.5h-145q0 28 -19 40.5t-60 12.5q-58 0 -58 -45q0 -23 30 -36t72.5 -21t84.5 -21t72 -46t30 -86
q0 -70 -55 -115t-160 -45q-122 0 -178.5 48.5t-56.5 119.5z" />
    <glyph glyph-name="t" unicode="t" horiz-adv-x="383" 
d="M20 385v115h80v120h140v-120h123v-115h-123v-173q0 -91 47 -91h76v-121h-89q-87 0 -130.5 48.5t-43.5 133.5v203h-80z" />
    <glyph glyph-name="u" unicode="u" horiz-adv-x="630" 
d="M60 210v290h140v-280v-8q0 -112 99 -112q64 0 92.5 40.5t28.5 90.5v269h140v-500h-100l-25 65q-52 -80 -165 -80q-104 0 -157 57.5t-53 167.5z" />
    <glyph glyph-name="v" unicode="v" 
d="M20 500h155l127 -316l128 316h150l-209 -500h-139z" />
    <glyph glyph-name="w" unicode="w" horiz-adv-x="750" 
d="M20 500h130l81 -295l83 295h122l83 -295l81 295h130l-120 -500h-140l-95 304l-95 -304h-140z" />
    <glyph glyph-name="x" unicode="x" horiz-adv-x="590" 
d="M30 0l169 251l-161 249h154l108 -179l98 179h154l-161 -249l169 -251h-165l-102 172l-104 -172h-159z" />
    <glyph glyph-name="y" unicode="y" horiz-adv-x="580" 
d="M20 500h150l128 -335l117 335h145l-187 -495q-74 -182 -229 -182h-49v121h46q55 0 85 69z" />
    <glyph glyph-name="z" unicode="z" horiz-adv-x="492" 
d="M30 0v55l233 330h-233v115h432v-55l-234 -330h234v-115h-432z" />
    <glyph glyph-name="braceleft" unicode="{" horiz-adv-x="456" 
d="M100 190v121h36q34 0 45.5 16.5t11.5 64.5v113q0 83 47 127.5t137 44.5h59v-121h-46q-34 0 -45.5 -16.5t-11.5 -64.5v-113q0 -81 -66 -112q66 -29 66 -111v-114q0 -48 11.5 -64.5t45.5 -16.5h46v-121h-59q-90 0 -137 44.5t-47 127.5v114q0 48 -11.5 64.5t-45.5 16.5h-36z
" />
    <glyph glyph-name="bar" unicode="|" horiz-adv-x="280" 
d="M70 -77v854h140v-854h-140z" />
    <glyph glyph-name="braceright" unicode="}" horiz-adv-x="456" 
d="M20 -56h46q34 0 45.5 16.5t11.5 64.5v113q0 83 66 111q-66 30 -66 112v114q0 48 -11.5 64.5t-45.5 16.5h-46v121h59q90 0 137 -44.5t47 -127.5v-114q0 -48 11.5 -64.5t45.5 -16.5h36v-121h-36q-34 0 -45.5 -16.5t-11.5 -64.5v-113q0 -83 -47 -127.5t-137 -44.5h-59v121z
" />
    <glyph glyph-name="asciitilde" unicode="~" horiz-adv-x="668" 
d="M20 291l21 20q45 46 74 64.5t60 18.5q27 0 66 -12l206 -63q5 -2 16 -2q31 0 66 36l33 33l86 -85l-42 -42q-39 -39 -64.5 -54.5t-54.5 -15.5q-26 0 -71 14l-206 63q-10 2 -15 2q-27 0 -65 -35l-24 -27z" />
    <glyph glyph-name="exclamdown" unicode="&#xa1;" horiz-adv-x="280" 
d="M67 -177v457h145v-457h-145zM52 427q0 39 25.5 63.5t62.5 24.5t62.5 -24.5t25.5 -63.5q0 -40 -25 -64t-63 -24t-63 24t-25 64z" />
    <glyph glyph-name="sterling" unicode="&#xa3;" horiz-adv-x="620" 
d="M40 0v75q5 3 14 9t31.5 25t39.5 39.5t31 51.5t14 62v3h-110v115h86q-23 67 -23 111q0 101 59.5 151t160.5 50t155.5 -52.5t54.5 -125.5h-145q0 30 -18 46.5t-47 16.5q-32 0 -53 -22.5t-21 -62.5q0 -16 3 -32t9 -40t9 -40h170v-115h-160v-3q0 -70 -45 -142h325v-120h-540z
" />
    <glyph glyph-name="yen" unicode="&#xa5;" horiz-adv-x="680" 
d="M20 677h145l177 -287l178 287h140l-152 -247h105v-115h-176l-24 -39v-14h200v-115h-200v-147h-145v147h-200v115h200v17l-23 36h-177v115h106z" />
    <glyph glyph-name="brokenbar" unicode="&#xa6;" horiz-adv-x="280" 
d="M70 423v354h140v-354h-140zM70 -77v354h140v-354h-140z" />
    <glyph glyph-name="section" unicode="&#xa7;" horiz-adv-x="610" 
d="M176 305q0 -34 26 -64t68 -50l97 -45q0 -1 2 -1l1 -1q10 -5 23 -5q19 0 30 15t11 41q0 34 -26 64t-68 50l-97 45q-2 0 -2 1h-2q-10 5 -23 5q-19 0 -29.5 -15t-10.5 -40zM40 298q0 52 29 85.5t73 46.5q-32 43 -32 102q0 69 57 114.5t160 45.5q102 0 156.5 -49.5
t54.5 -118.5h-145q0 53 -67 53q-36 0 -53 -16.5t-17 -38.5q0 -50 58 -76l87 -41q81 -38 125 -86.5t44 -116.5q0 -52 -29 -86t-73 -47q32 -45 32 -101q0 -69 -57 -114.5t-160 -45.5q-102 0 -156.5 49.5t-54.5 118.5h145q0 -53 67 -53q36 0 53 16.5t17 38.5q0 50 -58 76
l-87 41q-81 38 -125 86.5t-44 116.5z" />
    <glyph glyph-name="dieresis" unicode="&#xa8;" horiz-adv-x="280" 
d="M154 630q0 33 24.5 53.5t61.5 20.5t61 -20.5t24 -53.5q0 -34 -24 -54t-61 -20t-61.5 20t-24.5 54zM-46 630q0 33 24.5 53.5t61.5 20.5t61 -20.5t24 -53.5q0 -34 -24 -54t-61 -20t-61.5 20t-24.5 54z" />
    <glyph glyph-name="copyright" unicode="&#xa9;" horiz-adv-x="801" 
d="M222 345q0 80 50 131t125 51q73 0 118 -39t45 -99h-101q0 58 -59 58q-34 0 -55 -27t-21 -75t21.5 -78t54.5 -30q60 0 60 59h101q0 -60 -45.5 -100t-118.5 -40q-74 0 -124.5 54.5t-50.5 134.5zM138 345q0 -127 78 -200t185 -73t184.5 73t77.5 200q0 125 -76.5 192.5
t-185.5 67.5t-186 -67.5t-77 -192.5zM40 344q0 161 100 254.5t260 93.5t260.5 -93.5t100.5 -254.5q0 -162 -101 -260.5t-260 -98.5t-259.5 98.5t-100.5 260.5z" />
    <glyph glyph-name="guillemotleft" unicode="&#xab;" horiz-adv-x="624" 
d="M270 263l170 197h144l-164 -197l164 -197h-144zM20 263l170 197h144l-164 -197l164 -197h-144z" />
    <glyph glyph-name="uni00AD" unicode="&#xad;" horiz-adv-x="400" 
d="M40 225v115h320v-115h-320z" />
    <glyph glyph-name="registered" unicode="&#xae;" horiz-adv-x="669" 
d="M302 420h40q26 0 37.5 6.5t11.5 23.5q0 22 -41 24h-48v-54zM215 258v288h135q56 0 89.5 -25t33.5 -71q0 -62 -61 -85l59 -107h-95l-53 96h-21v-96h-87zM120 409q0 -104 63.5 -163.5t151.5 -59.5q87 0 150 59.5t63 163.5q0 102 -62 157t-151 55t-152 -55t-63 -157zM40 408
q0 131 81.5 207.5t212.5 76.5t213 -76.5t82 -207.5q0 -132 -82.5 -212.5t-212.5 -80.5t-212 80.5t-82 212.5z" />
    <glyph glyph-name="degree" unicode="&#xb0;" horiz-adv-x="393" 
d="M139 452q0 -35 15.5 -56t42.5 -21t42 21.5t15 55.5t-15 53.5t-42 19.5q-28 0 -43 -19.5t-15 -53.5zM40 452q0 69 43.5 112.5t112.5 43.5t113 -43.5t44 -112.5t-44.5 -115.5t-112.5 -46.5t-112 46.5t-44 115.5z" />
    <glyph glyph-name="plusminus" unicode="&#xb1;" horiz-adv-x="500" 
d="M70 5v115h360v-115h-360zM40 375v115h150v150h120v-150h150v-115h-150v-155h-120v155h-150z" />
    <glyph glyph-name="twosuperior" unicode="&#xb2;" horiz-adv-x="341" 
d="M14 610q0 48 37 86.5t118 38.5q71 0 111.5 -37t40.5 -95q0 -75 -122 -184l-9 -8h127v-91h-293v45l103 107q88 77 88 132q0 54 -47 54q-21 0 -35 -12.5t-14 -35.5h-105z" />
    <glyph glyph-name="threesuperior" unicode="&#xb3;" horiz-adv-x="347" 
d="M14 439h105q0 -50 52 -50q24 0 40.5 13t16.5 35q0 24 -20.5 37.5t-47.5 13.5h-59v81h58q25 0 42.5 15t17.5 35q0 17 -13.5 28t-36.5 11q-21 0 -34.5 -12.5t-13.5 -35.5h-105q0 48 36.5 86.5t116.5 38.5q71 0 113 -33.5t42 -82.5q0 -62 -78 -84q87 -28 87 -98
q0 -57 -43 -91.5t-119 -34.5q-75 0 -116 37.5t-41 90.5z" />
    <glyph glyph-name="mu" unicode="&#xb5;" horiz-adv-x="640" 
d="M70 -177v677h140v-280v-8q0 -112 99 -112q64 0 92.5 40.5t28.5 90.5v269h140v-500h-100l-23 60q-48 -72 -147 -75h-5q-54 0 -85 28v-190h-140z" />
    <glyph glyph-name="paragraph" unicode="&#xb6;" horiz-adv-x="730" 
d="M35 492q0 81 68.5 133t171.5 52h385v-854h-145v734h-95v-734h-145v465q-106 0 -173 53t-67 151z" />
    <glyph glyph-name="periodcentered" unicode="&#xb7;" horiz-adv-x="280" 
d="M52 255q0 39 25.5 63.5t62.5 24.5t62.5 -24.5t25.5 -63.5q0 -40 -25 -64t-63 -24t-63 24t-25 64z" />
    <glyph glyph-name="onesuperior" unicode="&#xb9;" horiz-adv-x="244" 
d="M20 636v90h162v-406h-102v316h-60z" />
    <glyph glyph-name="guillemotright" unicode="&#xbb;" horiz-adv-x="624" 
d="M270 66l163 197l-163 197h144l170 -197l-170 -197h-144zM20 66l163 197l-163 197h144l170 -197l-170 -197h-144z" />
    <glyph glyph-name="onequarter" unicode="&#xbc;" horiz-adv-x="880" 
d="M510 122h93v125zM414 41v93l177 222h117v-234h44v-81h-44v-91h-105v91h-189zM66 0l465 677h128l-465 -677h-128zM20 636v90h162v-406h-102v316h-60z" />
    <glyph glyph-name="onehalf" unicode="&#xbd;" horiz-adv-x="813" 
d="M486 240q0 48 37 86.5t118 38.5q71 0 111.5 -37t40.5 -95q0 -75 -122 -184l-9 -8h127v-91h-293v45l103 107q88 77 88 132q0 54 -47 54q-21 0 -35 -12.5t-14 -35.5h-105zM66 0l465 677h128l-465 -677h-128zM20 636v90h162v-406h-102v316h-60z" />
    <glyph glyph-name="threequarters" unicode="&#xbe;" horiz-adv-x="864" 
d="M610 122h93v125zM514 41v93l177 222h117v-234h44v-81h-44v-91h-105v91h-189zM166 0l465 677h128l-465 -677h-128zM14 439h105q0 -50 52 -50q24 0 40.5 13t16.5 35q0 24 -20.5 37.5t-47.5 13.5h-59v81h58q25 0 42.5 15t17.5 35q0 17 -13.5 28t-36.5 11q-21 0 -34.5 -12.5
t-13.5 -35.5h-105q0 48 36.5 86.5t116.5 38.5q71 0 113 -33.5t42 -82.5q0 -62 -78 -84q87 -28 87 -98q0 -57 -43 -91.5t-119 -34.5q-75 0 -116 37.5t-41 90.5z" />
    <glyph glyph-name="questiondown" unicode="&#xbf;" horiz-adv-x="550" 
d="M192 427q0 39 25.5 63.5t62.5 24.5t62.5 -24.5t25.5 -63.5q0 -40 -25 -64t-63 -24t-63 24t-25 64zM40 -3q0 38 17.5 71t43 57.5t50.5 47.5t42.5 50.5t17.5 56.5h127q0 -42 -15.5 -77t-38 -58.5t-45 -45t-38 -47t-15.5 -54.5q0 -75 92 -75q38 0 62.5 20.5t24.5 56.5h145
q0 -25 -6.5 -50t-23.5 -51t-42.5 -46t-67 -32.5t-93.5 -12.5q-108 0 -172.5 54t-64.5 135z" />
    <glyph glyph-name="AE" unicode="&#xc6;" horiz-adv-x="870" 
d="M270 258h149l-47 258zM10 0l299 677h521v-120h-335l31 -139h244v-120h-217l40 -178h237v-120h-365l-25 138h-220l-60 -138h-150z" />
    <glyph glyph-name="multiply" unicode="&#xd7;" horiz-adv-x="500" 
d="M59 224l106 106l-106 106l85 85l106 -106l106 106l85 -85l-106 -106l106 -106l-85 -85l-106 106l-106 -106z" />
    <glyph glyph-name="ae" unicode="&#xe6;" horiz-adv-x="957" 
d="M562 310h211q-14 100 -104 100q-87 0 -107 -100zM186 253q0 -72 32.5 -112.5t82.5 -40.5q49 0 80 40t31 113q0 72 -30.5 109.5t-80.5 37.5t-82.5 -37.5t-32.5 -109.5zM40 253q0 116 64 189t166 73q99 0 154 -89l28 74h105v-36q45 51 132 51q102 0 165 -71t63 -178v-41
h-358q6 -64 38 -94.5t78 -30.5q42 0 67.5 22.5t25.5 42.5h145q0 -59 -63 -119.5t-155 -60.5q-93 0 -138 54v-39h-105l-31 73q-54 -88 -151 -88q-101 0 -165.5 76t-64.5 192z" />
    <glyph glyph-name="divide" unicode="&#xf7;" horiz-adv-x="500" 
d="M162 467q0 39 25.5 63.5t62.5 24.5t62.5 -24.5t25.5 -63.5q0 -40 -25 -64t-63 -24t-63 24t-25 64zM162 98q0 39 25.5 63.5t62.5 24.5t62.5 -24.5t25.5 -63.5q0 -40 -25 -64t-63 -24t-63 24t-25 64zM20 225v115h460v-115h-460z" />
    <glyph glyph-name="dotlessi" unicode="&#x131;" horiz-adv-x="270" 
d="M70 0v500h130v-500h-130z" />
    <glyph glyph-name="OE" unicode="&#x152;" horiz-adv-x="1126" 
d="M196 344q0 -112 57 -175.5t138 -63.5t138 63.5t57 175.5q0 111 -56.5 169.5t-138.5 58.5t-138.5 -58.5t-56.5 -169.5zM40 344q0 162 92.5 255t247.5 93q143 0 216 -75v60h490v-120h-345v-139h285v-120h-285v-178h345v-120h-490v64q-74 -79 -216 -79q-153 0 -246.5 98
t-93.5 261z" />
    <glyph glyph-name="oe" unicode="&#x153;" horiz-adv-x="961" 
d="M566 310h211q-14 100 -104 100q-87 0 -107 -100zM185 253q0 -69 30.5 -111t84.5 -42t84.5 42t30.5 111q0 68 -30.5 107.5t-84.5 39.5t-84.5 -39.5t-30.5 -107.5zM40 253q0 115 73 188.5t187 73.5q127 0 201 -90q51 90 182 90q109 0 173.5 -70.5t64.5 -178.5v-41h-358
q6 -64 38 -94.5t78 -30.5q42 0 67.5 22.5t25.5 42.5h145q0 -60 -64.5 -120t-163.5 -60q-136 0 -188 93q-74 -93 -201 -93q-114 0 -187 76t-73 192z" />
    <glyph glyph-name="breve" unicode="&#x2d8;" horiz-adv-x="620" 
d="M122 677h136q2 -16 15 -32t30 -16h10q17 0 30 16t15 32h136q-8 -53 -60 -91t-118 -38h-16q-66 0 -118 38t-60 91z" />
    <glyph glyph-name="dotaccent" unicode="&#x2d9;" horiz-adv-x="280" 
d="M54 630q0 33 24.5 53.5t61.5 20.5t61 -20.5t24 -53.5q0 -34 -24 -54t-61 -20t-61.5 20t-24.5 54z" />
    <glyph glyph-name="tonos" unicode="&#x384;" horiz-adv-x="310" 
d="M75 557l30 160h130l-30 -160h-130z" />
    <glyph glyph-name="dieresistonos" unicode="&#x385;" horiz-adv-x="310" 
d="M245 616q0 27 18.5 44t47.5 17t47.5 -17t18.5 -44q0 -28 -18.5 -44.5t-47.5 -16.5t-47.5 16.5t-18.5 44.5zM75 557l30 160h130l-30 -160h-130zM-77 616q0 27 18.5 44t47.5 17t47.5 -17t18.5 -44q0 -28 -18.5 -44.5t-47.5 -16.5t-47.5 16.5t-18.5 44.5z" />
    <glyph glyph-name="Alphatonos" unicode="&#x386;" horiz-adv-x="755" 
d="M311 258h183l-92 277zM80 557l30 160h130l-30 -160h-130zM75 0l249 677h159l252 -677h-155l-46 138h-263l-46 -138h-150z" />
    <glyph glyph-name="Epsilontonos" unicode="&#x388;" horiz-adv-x="715" 
d="M185 0v677h490v-120h-345v-139h285v-120h-285v-178h345v-120h-490zM10 557l30 160h130l-30 -160h-130z" />
    <glyph glyph-name="Etatonos" unicode="&#x389;" horiz-adv-x="840" 
d="M185 0v677h145v-259h295v259h145v-677h-145v298h-295v-298h-145zM10 557l30 160h130l-30 -160h-130z" />
    <glyph glyph-name="Iotatonos" unicode="&#x38a;" horiz-adv-x="400" 
d="M185 0v677h145v-677h-145zM10 557l30 160h130l-30 -160h-130z" />
    <glyph glyph-name="Omicrontonos" unicode="&#x38c;" horiz-adv-x="841" 
d="M255 344q0 -112 57 -175.5t138 -63.5t138 63.5t57 175.5q0 111 -56.5 169.5t-138.5 58.5t-138.5 -58.5t-56.5 -169.5zM100 344q0 162 95.5 255t254.5 93t254.5 -93t95.5 -255q0 -163 -96 -261t-254 -98t-254 98t-96 261zM10 557l30 160h130l-30 -160h-130z" />
    <glyph glyph-name="Upsilontonos" unicode="&#x38e;" horiz-adv-x="835" 
d="M175 677h156l167 -283l167 283h150l-247 -402v-275h-145v278zM10 557l30 160h130l-30 -160h-130z" />
    <glyph glyph-name="Omegatonos" unicode="&#x38f;" horiz-adv-x="851" 
d="M105 0v120h127q-117 115 -117 248q0 148 92 236t252 88q159 0 250.5 -88t91.5 -236q0 -134 -118 -248h128v-120h-316v85l16.5 11t37.5 32.5t47 55.5t37 79.5t17 104.5q0 91 -54 147.5t-138 56.5t-138 -56.5t-54 -147.5q0 -55 16 -104.5t39 -80.5t45.5 -54.5t38.5 -33.5
l16 -10v-85h-316zM10 557l30 160h130l-30 -160h-130z" />
    <glyph glyph-name="iotadieresistonos" unicode="&#x390;" horiz-adv-x="290" 
d="M232 616q0 27 18.5 44t47.5 17t47.5 -17t18.5 -44q0 -28 -18.5 -44.5t-47.5 -16.5t-47.5 16.5t-18.5 44.5zM62 557l30 160h130l-30 -160h-130zM60 139v361h140v-321q0 -40 10.5 -54.5t39.5 -14.5v-110q-112 0 -151 31t-39 108zM-90 616q0 27 18.5 44t47.5 17t47.5 -17
t18.5 -44q0 -28 -18.5 -44.5t-47.5 -16.5t-47.5 16.5t-18.5 44.5z" />
    <glyph glyph-name="Alpha" unicode="&#x391;" horiz-adv-x="700" 
d="M256 258h183l-92 277zM20 0l249 677h159l252 -677h-155l-46 138h-263l-46 -138h-150z" />
    <glyph glyph-name="Beta" unicode="&#x392;" horiz-adv-x="680" 
d="M215 400h104q140 0 140 83q0 74 -130 74h-114v-157zM215 120h144q130 0 130 85q0 40 -40 62.5t-100 22.5h-134v-170zM70 0v677h260q139 0 209.5 -51t70.5 -133q0 -102 -96 -141q126 -45 126 -157q0 -90 -71.5 -142.5t-208.5 -52.5h-290z" />
    <glyph glyph-name="Gamma" unicode="&#x393;" horiz-adv-x="470" 
d="M70 0v677h380v-120h-235v-557h-145z" />
    <glyph glyph-name="uni0394" unicode="&#x394;" horiz-adv-x="700" 
d="M205 120h284l-142 374zM20 0l259 677h139l262 -677h-660z" />
    <glyph glyph-name="Epsilon" unicode="&#x395;" 
d="M70 0v677h490v-120h-345v-139h285v-120h-285v-178h345v-120h-490z" />
    <glyph glyph-name="Zeta" unicode="&#x396;" horiz-adv-x="582" 
d="M20 0v60l337 497h-337v120h542v-55l-341 -502h341v-120h-542z" />
    <glyph glyph-name="Eta" unicode="&#x397;" horiz-adv-x="725" 
d="M70 0v677h145v-259h295v259h145v-677h-145v298h-295v-298h-145z" />
    <glyph glyph-name="Theta" unicode="&#x398;" horiz-adv-x="780" 
d="M251 280v120h270v-120h-270zM195 344q0 -112 57 -175.5t138 -63.5t138 63.5t57 175.5q0 111 -56.5 169.5t-138.5 58.5t-138.5 -58.5t-56.5 -169.5zM40 344q0 162 95.5 255t254.5 93t254.5 -93t95.5 -255q0 -163 -96 -261t-254 -98t-254 98t-96 261z" />
    <glyph glyph-name="Iota" unicode="&#x399;" horiz-adv-x="285" 
d="M70 0v677h145v-677h-145z" />
    <glyph glyph-name="Kappa" unicode="&#x39a;" horiz-adv-x="675" 
d="M70 0v677h145v-259h48l211 259h164l-267 -322l284 -355h-174l-234 298h-32v-298h-145z" />
    <glyph glyph-name="Lambda" unicode="&#x39b;" horiz-adv-x="700" 
d="M20 0l259 677h139l262 -677h-155l-178 473l-177 -473h-150z" />
    <glyph glyph-name="Mu" unicode="&#x39c;" horiz-adv-x="835" 
d="M70 0v677h170l177 -318l178 318h170v-677h-145v469l-154 -279h-99l-152 272v-462h-145z" />
    <glyph glyph-name="Nu" unicode="&#x39d;" horiz-adv-x="755" 
d="M70 0v677h170l300 -478v478h145v-677h-170l-300 478v-478h-145z" />
    <glyph glyph-name="Xi" unicode="&#x39e;" horiz-adv-x="590" 
d="M100 288v120h390v-120h-390zM20 557v120h550v-120h-550zM20 0v120h550v-120h-550z" />
    <glyph glyph-name="Omicron" unicode="&#x39f;" horiz-adv-x="780" 
d="M195 344q0 -112 57 -175.5t138 -63.5t138 63.5t57 175.5q0 111 -56.5 169.5t-138.5 58.5t-138.5 -58.5t-56.5 -169.5zM40 344q0 162 95.5 255t254.5 93t254.5 -93t95.5 -255q0 -163 -96 -261t-254 -98t-254 98t-96 261z" />
    <glyph glyph-name="Pi" unicode="&#x3a0;" horiz-adv-x="715" 
d="M70 0v677h575v-677h-145v557h-285v-557h-145z" />
    <glyph glyph-name="Rho" unicode="&#x3a1;" horiz-adv-x="660" 
d="M215 320h117q137 5 137 123q0 62 -37.5 88t-112.5 26h-104v-237zM70 0v677h250q300 0 300 -234q0 -118 -76.5 -180.5t-223.5 -62.5h-105v-200h-145z" />
    <glyph glyph-name="Sigma" unicode="&#x3a3;" horiz-adv-x="582" 
d="M20 0v60l191 280l-191 282v55h531v-120h-326l146 -216l-150 -221h341v-120h-542z" />
    <glyph glyph-name="Tau" unicode="&#x3a4;" horiz-adv-x="585" 
d="M20 557v120h545v-120h-200v-557h-145v557h-200z" />
    <glyph glyph-name="Upsilon" unicode="&#x3a5;" horiz-adv-x="680" 
d="M20 677h156l167 -283l167 283h150l-247 -402v-275h-145v278z" />
    <glyph glyph-name="Phi" unicode="&#x3a6;" horiz-adv-x="875" 
d="M510 200h24q69 0 109.5 39t40.5 114q0 71 -38.5 107.5t-111.5 36.5h-24v-297zM191 353q0 -75 40.5 -114t109.5 -39h24v297h-31q-143 -5 -143 -144zM40 353q0 119 76 191.5t224 72.5h25v60h145v-60h25q148 0 224 -72.5t76 -191.5q0 -122 -78.5 -197.5t-221.5 -75.5h-25
v-80h-145v80h-25q-143 0 -221.5 75.5t-78.5 197.5z" />
    <glyph glyph-name="Chi" unicode="&#x3a7;" horiz-adv-x="700" 
d="M20 0l229 338l-221 339h159l163 -263l163 263h159l-221 -339l229 -338h-170l-158 257l-168 -257h-164z" />
    <glyph glyph-name="Psi" unicode="&#x3a8;" horiz-adv-x="793" 
d="M40 483v194h140v-194q0 -73 39 -112t105 -41v347h145v-347q66 2 105 41t39 112v194h140v-194q0 -122 -72 -197t-212 -76v-210h-145v210q-140 1 -212 76t-72 197z" />
    <glyph glyph-name="uni03A9" unicode="&#x3a9;" horiz-adv-x="786" 
d="M40 0v120h127q-117 115 -117 248q0 148 92 236t252 88q159 0 250.5 -88t91.5 -236q0 -134 -118 -248h128v-120h-316v85l16.5 11t37.5 32.5t47 55.5t37 79.5t17 104.5q0 91 -54 147.5t-138 56.5t-138 -56.5t-54 -147.5q0 -55 16 -104.5t38.5 -80.5t45.5 -54.5t39 -33.5
l16 -10v-85h-316z" />
    <glyph glyph-name="Iotadieresis" unicode="&#x3aa;" horiz-adv-x="285" 
d="M157 807q0 33 24.5 53.5t61.5 20.5t61 -20.5t24 -53.5q0 -34 -24 -54t-61 -20t-61.5 20t-24.5 54zM70 0v677h145v-677h-145zM-43 807q0 33 24.5 53.5t61.5 20.5t61 -20.5t24 -53.5q0 -34 -24 -54t-61 -20t-61.5 20t-24.5 54z" />
    <glyph glyph-name="Upsilondieresis" unicode="&#x3ab;" horiz-adv-x="680" 
d="M357 807q0 33 24.5 53.5t61.5 20.5t61 -20.5t24 -53.5q0 -34 -24 -54t-61 -20t-61.5 20t-24.5 54zM157 807q0 33 24.5 53.5t61.5 20.5t61 -20.5t24 -53.5q0 -34 -24 -54t-61 -20t-61.5 20t-24.5 54zM20 677h156l167 -283l167 283h150l-247 -402v-275h-145v278z" />
    <glyph glyph-name="alphatonos" unicode="&#x3ac;" horiz-adv-x="642" 
d="M216 557l30 160h130l-30 -160h-130zM186 253q0 -72 32.5 -112.5t82.5 -40.5q47 0 78 38t33 107v15q-2 69 -32.5 104.5t-78.5 35.5q-50 0 -82.5 -37.5t-32.5 -109.5zM40 253q0 116 64 189t166 73q99 0 154 -89l28 74h100v-321q0 -40 10.5 -54.5t39.5 -14.5v-110
q-87 0 -121.5 26.5t-38.5 90.5q-23 -60 -66.5 -96t-105.5 -36q-101 0 -165.5 76t-64.5 192z" />
    <glyph glyph-name="epsilontonos" unicode="&#x3ad;" horiz-adv-x="540" 
d="M195 557l30 160h130l-30 -160h-130zM40 135q0 104 144 125q-134 19 -134 105q0 67 59 108.5t161 41.5q113 0 166.5 -50t53.5 -118h-145q0 27 -15.5 40t-59.5 13q-74 0 -74 -45q0 -42 84 -45h60v-115h-67q-42 0 -64.5 -12t-22.5 -28q0 -27 16 -41t58 -14q95 0 95 53h145
q0 -68 -59 -118t-181 -50q-102 0 -161 41.5t-59 108.5z" />
    <glyph glyph-name="etatonos" unicode="&#x3ae;" horiz-adv-x="630" 
d="M252 557l30 160h130l-30 -160h-130zM70 0v500h100l27 -73q56 88 163 88q102 0 156 -60.5t54 -164.5v-467h-140v467q-2 47 -31 78.5t-78 31.5q-48 0 -78.5 -35t-32.5 -82v-283h-140z" />
    <glyph glyph-name="iotatonos" unicode="&#x3af;" horiz-adv-x="290" 
d="M63 557l30 160h130l-30 -160h-130zM60 139v361h140v-321q0 -40 10.5 -54.5t39.5 -14.5v-110q-112 0 -151 31t-39 108z" />
    <glyph glyph-name="upsilondieresistonos" unicode="&#x3b0;" 
d="M395 616q0 27 18.5 44t47.5 17t47.5 -17t18.5 -44q0 -28 -18.5 -44.5t-47.5 -16.5t-47.5 16.5t-18.5 44.5zM225 557l30 160h130l-30 -160h-130zM73 616q0 27 18.5 44t47.5 17t47.5 -17t18.5 -44q0 -28 -18.5 -44.5t-47.5 -16.5t-47.5 16.5t-18.5 44.5zM60 220v280h140
v-280q0 -48 24.5 -84t76.5 -36q51 0 75 36t24 84v280h140v-280q0 -235 -240 -235t-240 235z" />
    <glyph glyph-name="alpha" unicode="&#x3b1;" horiz-adv-x="642" 
d="M186 253q0 -72 32.5 -112.5t82.5 -40.5q47 0 78 38t33 107v15q-2 69 -32.5 104.5t-78.5 35.5q-50 0 -82.5 -37.5t-32.5 -109.5zM40 253q0 116 64 189t166 73q99 0 154 -89l28 74h100v-321q0 -40 10.5 -54.5t39.5 -14.5v-110q-87 0 -121.5 26.5t-38.5 90.5
q-23 -60 -66.5 -96t-105.5 -36q-101 0 -165.5 76t-64.5 192z" />
    <glyph glyph-name="beta" unicode="&#x3b2;" horiz-adv-x="620" 
d="M210 210q0 -51 34 -80.5t90 -29.5q47 0 73.5 25t26.5 70q0 47 -37 73.5t-110 26.5h-27v115h14q53 1 81.5 27t28.5 65q0 30 -22 52.5t-64 22.5q-48 0 -68 -42t-20 -146v-179zM70 -177v624q0 113 60.5 179t167.5 66q96 0 164 -53t68 -127q0 -124 -151 -150
q94 -10 147.5 -53.5t53.5 -123.5q0 -89 -60.5 -144.5t-151.5 -55.5q-106 0 -158 54v-216h-140z" />
    <glyph glyph-name="gamma" unicode="&#x3b3;" horiz-adv-x="581" 
d="M10 500h155l128 -322l128 322h150l-214 -500v-177h-130v177z" />
    <glyph glyph-name="delta" unicode="&#x3b4;" horiz-adv-x="601" 
d="M186 235q0 -60 30.5 -97.5t84.5 -37.5t84.5 37.5t30.5 97.5q0 59 -30 92t-85 33t-85 -33t-30 -92zM40 235q0 69 32.5 123.5t89.5 84.5q-61 31 -61 93q0 66 59 103.5t168 37.5h89v-121h-96q-25 0 -41 -3.5t-22.5 -10t-8.5 -12t-2 -13.5q0 -40 46 -42h7q114 0 187.5 -67
t73.5 -173q0 -107 -74 -178.5t-187 -71.5t-186.5 71.5t-73.5 178.5z" />
    <glyph glyph-name="epsilon" unicode="&#x3b5;" horiz-adv-x="540" 
d="M40 135q0 104 144 125q-134 19 -134 105q0 67 59 108.5t161 41.5q113 0 166.5 -50t53.5 -118h-145q0 27 -15.5 40t-59.5 13q-74 0 -74 -45t95 -45h49v-115h-67q-42 0 -64.5 -12t-22.5 -28q0 -27 16 -41t58 -14q95 0 95 53h145q0 -68 -59 -118t-181 -50q-102 0 -161 41.5
t-59 108.5z" />
    <glyph glyph-name="zeta" unicode="&#x3b6;" horiz-adv-x="490" 
d="M40 194q0 135 228 368h-208v115h430v-55q-12 -11 -32.5 -31t-73 -76.5t-92.5 -107.5t-73 -111.5t-33 -101.5q0 -36 25 -57.5t66 -21.5q94 0 153.5 -35.5t59.5 -112.5q0 -144 -228 -144v105q77 0 77 39q0 20 -15.5 26.5t-46.5 6.5q-119 0 -178 51t-59 143z" />
    <glyph glyph-name="eta" unicode="&#x3b7;" horiz-adv-x="630" 
d="M70 0v500h100l27 -73q56 88 163 88q102 0 156 -60.5t54 -164.5v-467h-140v467q-2 47 -31 78.5t-78 31.5q-48 0 -78.5 -35t-32.5 -82v-283h-140z" />
    <glyph glyph-name="theta" unicode="&#x3b8;" horiz-adv-x="602" 
d="M178 407h246q-7 96 -37 133t-86 37t-86.5 -37t-36.5 -133zM177 292q5 -105 35 -148.5t89 -43.5q58 0 88 43.5t36 148.5h-248zM40 346q0 175 74 260.5t186 85.5q53 0 99 -19.5t83 -59.5t58.5 -108.5t21.5 -158.5q0 -178 -73.5 -269.5t-188.5 -91.5t-187.5 91.5
t-72.5 269.5z" />
    <glyph glyph-name="iota" unicode="&#x3b9;" horiz-adv-x="290" 
d="M60 139v361h140v-321q0 -40 10.5 -54.5t39.5 -14.5v-110q-112 0 -151 31t-39 108z" />
    <glyph glyph-name="kappa" unicode="&#x3ba;" horiz-adv-x="559" 
d="M70 0v500h140v-180h34l143 180h154l-190 -240l198 -260h-164l-156 205h-19v-205h-140z" />
    <glyph glyph-name="lambda" unicode="&#x3bb;" horiz-adv-x="548" 
d="M10 0l208 490q-22 66 -77 66v121q99 0 145 -42.5t77 -139.5l98 -280q23 -55 42 -79.5t44 -24.5v-111q-84 0 -138 41t-81 131l-44 145l-124 -317h-150z" />
    <glyph glyph-name="uni03BC" unicode="&#x3bc;" horiz-adv-x="640" 
d="M70 -177v677h140v-280v-8q0 -112 99 -112q64 0 92.5 40.5t28.5 90.5v269h140v-500h-100l-23 60q-48 -72 -147 -75h-5q-54 0 -85 28v-190h-140z" />
    <glyph glyph-name="nu" unicode="&#x3bd;" 
d="M20 500h155l127 -316l128 316h150l-209 -500h-139z" />
    <glyph glyph-name="xi" unicode="&#x3be;" horiz-adv-x="500" 
d="M40 195q0 143 166 166q-156 24 -156 151q0 76 59.5 128t160.5 52q113 0 166.5 -50t53.5 -118h-145q0 27 -15.5 40t-59.5 13q-74 0 -74 -75q0 -40 30 -66t85 -26h109v-115h-127q-47 0 -77 -23.5t-30 -66.5q0 -90 111 -90q80 0 136.5 -36t56.5 -112q0 -144 -228 -144v105
q77 0 77 39q0 20 -15.5 26.5t-46.5 6.5q-119 0 -178 51t-59 144z" />
    <glyph glyph-name="omicron" unicode="&#x3bf;" 
d="M185 253q0 -69 30.5 -111t84.5 -42t84.5 42t30.5 111q0 68 -30.5 107.5t-84.5 39.5t-84.5 -39.5t-30.5 -107.5zM40 253q0 115 73 188.5t187 73.5t187 -73.5t73 -188.5q0 -116 -73 -192t-187 -76t-187 76t-73 192z" />
    <glyph glyph-name="pi" unicode="&#x3c0;" horiz-adv-x="630" 
d="M40 385v115h540v-115h-50v-206q0 -40 10.5 -54.5t39.5 -14.5v-110q-112 0 -151 31t-39 108v246h-160v-385h-140v385h-50z" />
    <glyph glyph-name="rho" unicode="&#x3c1;" horiz-adv-x="632" 
d="M200 246q2 -65 34.5 -105.5t86.5 -40.5q56 0 90.5 42.5t34.5 110.5q0 67 -34 107t-91 40q-56 0 -88.5 -39.5t-32.5 -107.5v-7zM60 -177v430q0 113 69 187.5t192 74.5q124 0 197.5 -75t73.5 -187q0 -117 -60 -192.5t-180 -75.5q-101 0 -152 64v-226h-140z" />
    <glyph glyph-name="sigma1" unicode="&#x3c2;" horiz-adv-x="533" 
d="M40 253q0 115 71.5 188.5t178.5 73.5q128 0 193 -75q40 -46 40 -123h-145q0 37 -16 57q-20 26 -67 26q-48 0 -78.5 -39.5t-30.5 -107.5q0 -79 31.5 -108.5t112.5 -29.5q80 0 136.5 -36t56.5 -112q0 -144 -228 -144v105q77 0 77 39q0 20 -15.5 26.5t-46.5 6.5
q-53 0 -98.5 12.5t-85.5 40t-63 79t-23 121.5z" />
    <glyph glyph-name="sigma" unicode="&#x3c3;" horiz-adv-x="630" 
d="M176 248q0 -68 30.5 -108t84.5 -40t84.5 40t30.5 108q0 61 -30.5 99t-84.5 38h-1q-54 -1 -84 -38.5t-30 -98.5zM30 248q0 109 73.5 180.5t186.5 71.5h310v-115h-88q39 -61 39 -137q0 -115 -73.5 -189t-187.5 -74t-187 74t-73 189z" />
    <glyph glyph-name="tau" unicode="&#x3c4;" horiz-adv-x="500" 
d="M20 385v115h460v-115h-160v-206q0 -40 10.5 -54.5t39.5 -14.5v-110q-112 0 -151 31t-39 108v246h-160z" />
    <glyph glyph-name="upsilon" unicode="&#x3c5;" 
d="M60 220v280h140v-280q0 -48 24.5 -84t76.5 -36q51 0 75 36t24 84v280h140v-280q0 -235 -240 -235t-240 235z" />
    <glyph glyph-name="phi" unicode="&#x3c6;" horiz-adv-x="802" 
d="M471 115h10q60 0 97.5 39t37.5 99t-37.5 96t-97.5 36h-10v-270zM186 253q0 -60 37.5 -99t97.5 -39h10v270h-10q-60 0 -97.5 -36t-37.5 -96zM40 253q0 104 71 175.5t189 71.5h31v177h140v-177h31q118 0 189 -71.5t71 -175.5t-73 -178.5t-187 -74.5h-31v-177h-140v177h-31
q-114 0 -187 74.5t-73 178.5z" />
    <glyph glyph-name="chi" unicode="&#x3c7;" horiz-adv-x="570" 
d="M10 -177l189 351l-181 326h149l123 -234l113 234h149l-182 -326l190 -351h-160l-117 241l-119 -241h-154z" />
    <glyph glyph-name="psi" unicode="&#x3c8;" horiz-adv-x="790" 
d="M60 255v245h140v-245q0 -59 36.5 -99.5t88.5 -40.5v562h140v-562q52 0 88.5 40.5t36.5 99.5v245h140v-245q0 -104 -68.5 -179.5t-175.5 -75.5h-21v-177h-140v177h-21q-107 0 -175.5 75.5t-68.5 179.5z" />
    <glyph glyph-name="omega" unicode="&#x3c9;" horiz-adv-x="800" 
d="M40 250q0 72 22.5 134.5t45.5 89.5l22 26h120q-8 -13 -19.5 -36t-31 -89t-19.5 -125q0 -150 83 -150q67 0 67 120v180h140v-180q0 -49 15.5 -84.5t51.5 -35.5q83 0 83 150q0 59 -17.5 121.5t-34.5 95.5l-18 33h120q4 -4 10 -10.5t21.5 -30.5t27.5 -50.5t21.5 -69.5
t9.5 -89q0 -134 -52.5 -199.5t-146.5 -65.5q-134 0 -161 109q-29 -109 -161 -109q-94 0 -146.5 65.5t-52.5 199.5z" />
    <glyph glyph-name="iotadieresis" unicode="&#x3ca;" horiz-adv-x="290" 
d="M146 630q0 33 24.5 53.5t61.5 20.5t61 -20.5t24 -53.5q0 -34 -24 -54t-61 -20t-61.5 20t-24.5 54zM60 139v361h140v-321q0 -40 10.5 -54.5t39.5 -14.5v-110q-112 0 -151 31t-39 108zM-54 630q0 33 24.5 53.5t61.5 20.5t61 -20.5t24 -53.5q0 -34 -24 -54t-61 -20t-61.5 20
t-24.5 54z" />
    <glyph glyph-name="upsilondieresis" unicode="&#x3cb;" 
d="M317 630q0 33 24.5 53.5t61.5 20.5t61 -20.5t24 -53.5q0 -34 -24 -54t-61 -20t-61.5 20t-24.5 54zM117 630q0 33 24.5 53.5t61.5 20.5t61 -20.5t24 -53.5q0 -34 -24 -54t-61 -20t-61.5 20t-24.5 54zM60 220v280h140v-280q0 -48 24.5 -84t76.5 -36q51 0 75 36t24 84v280
h140v-280q0 -235 -240 -235t-240 235z" />
    <glyph glyph-name="omicrontonos" unicode="&#x3cc;" 
d="M215 557l30 160h130l-30 -160h-130zM185 253q0 -69 30.5 -111t84.5 -42t84.5 42t30.5 111q0 68 -30.5 107.5t-84.5 39.5t-84.5 -39.5t-30.5 -107.5zM40 253q0 115 73 188.5t187 73.5t187 -73.5t73 -188.5q0 -116 -73 -192t-187 -76t-187 76t-73 192z" />
    <glyph glyph-name="upsilontonos" unicode="&#x3cd;" 
d="M225 557l30 160h130l-30 -160h-130zM60 220v280h140v-280q0 -48 24.5 -84t76.5 -36q51 0 75 36t24 84v280h140v-280q0 -235 -240 -235t-240 235z" />
    <glyph glyph-name="omegatonos" unicode="&#x3ce;" horiz-adv-x="800" 
d="M320 557l30 160h130l-30 -160h-130zM40 250q0 72 22.5 134.5t45.5 89.5l22 26h120q-8 -13 -19.5 -36t-31 -89t-19.5 -125q0 -150 83 -150q67 0 67 120v180h140v-180q0 -49 15.5 -84.5t51.5 -35.5q83 0 83 150q0 59 -17.5 121.5t-34.5 95.5l-18 33h120q4 -4 10 -10.5
t21.5 -30.5t27.5 -50.5t21.5 -69.5t9.5 -89q0 -134 -52.5 -199.5t-146.5 -65.5q-134 0 -161 109q-29 -109 -161 -109q-94 0 -146.5 65.5t-52.5 199.5z" />
    <glyph glyph-name="uni0401" unicode="&#x401;" 
d="M329 807q0 33 24.5 53.5t61.5 20.5t61 -20.5t24 -53.5q0 -34 -24 -54t-61 -20t-61.5 20t-24.5 54zM129 807q0 33 24.5 53.5t61.5 20.5t61 -20.5t24 -53.5q0 -34 -24 -54t-61 -20t-61.5 20t-24.5 54zM70 0v677h490v-120h-345v-139h285v-120h-285v-178h345v-120h-490z" />
    <glyph glyph-name="uni0402" unicode="&#x402;" horiz-adv-x="830" 
d="M20 557v120h545v-120h-200v-130h136q259 0 259 -206v-44q0 -86 -53 -131.5t-133 -45.5h-49v121h36q59 0 59 96v4q0 86 -120 86h-135v-307h-145v557h-200z" />
    <glyph glyph-name="uni0404" unicode="&#x404;" horiz-adv-x="720" 
d="M40 344q0 168 91.5 258t248.5 90q144 0 221.5 -71.5t77.5 -170.5h-147q0 53 -40.5 87.5t-110.5 34.5q-165 0 -191 -164h232v-120h-233q12 -95 64 -139t128 -44q69 0 111.5 39t42.5 93h145q0 -100 -78 -176t-222 -76q-156 0 -248 95t-92 264z" />
    <glyph glyph-name="uni0405" unicode="&#x405;" horiz-adv-x="666" 
d="M40 213h151q0 -49 41.5 -78.5t115.5 -29.5q56 0 91 22.5t35 57.5q0 29 -22.5 47.5t-58.5 28t-79.5 17t-87.5 21t-80 35t-58.5 63t-22.5 100.5q0 79 74.5 137t202.5 58q74 0 130 -20.5t86.5 -54.5t45.5 -71t15 -77h-151q0 45 -30 74t-96 29q-54 0 -89.5 -20.5t-35.5 -54.5
q0 -33 22.5 -54.5t58.5 -31.5t80 -18t87.5 -20.5t79.5 -32t58.5 -59t22.5 -96.5q0 -86 -72.5 -143t-205.5 -57q-81 0 -142.5 20t-96.5 53.5t-52 72.5t-17 82z" />
    <glyph glyph-name="uni0406" unicode="&#x406;" horiz-adv-x="285" 
d="M70 0v677h145v-677h-145z" />
    <glyph glyph-name="uni0407" unicode="&#x407;" horiz-adv-x="285" 
d="M157 807q0 33 24.5 53.5t61.5 20.5t61 -20.5t24 -53.5q0 -34 -24 -54t-61 -20t-61.5 20t-24.5 54zM70 0v677h145v-677h-145zM-43 807q0 33 24.5 53.5t61.5 20.5t61 -20.5t24 -53.5q0 -34 -24 -54t-61 -20t-61.5 20t-24.5 54z" />
    <glyph glyph-name="uni0408" unicode="&#x408;" horiz-adv-x="550" 
d="M40 203h145q0 -62 20 -82.5t64 -20.5q41 0 58.5 20t17.5 75v482h145v-482q0 -105 -54 -157.5t-167 -52.5q-121 0 -175 56t-54 162z" />
    <glyph glyph-name="uni0409" unicode="&#x409;" horiz-adv-x="1040" 
d="M595 120h104q150 0 150 123q0 62 -37.5 88t-112.5 26h-104v-237zM20 0v136h28q43 0 67.5 81t24.5 242v218h455v-200h105q300 0 300 -234q0 -118 -76.5 -180.5t-223.5 -62.5h-250v557h-165v-125q0 -432 -234 -432h-31z" />
    <glyph glyph-name="uni040A" unicode="&#x40a;" horiz-adv-x="1100" 
d="M655 120h104q150 0 150 123q0 62 -37.5 88t-112.5 26h-104v-237zM70 0v677h145v-259h295v259h145v-200h105q300 0 300 -234q0 -118 -76.5 -180.5t-223.5 -62.5h-250v298h-295v-298h-145z" />
    <glyph glyph-name="uni040B" unicode="&#x40b;" horiz-adv-x="830" 
d="M20 557v120h545v-120h-200v-130h136q140 0 199.5 -61t59.5 -172v-194h-140v194q0 56 -28 84.5t-92 28.5h-135v-307h-145v557h-200z" />
    <glyph glyph-name="uni040E" unicode="&#x40e;" horiz-adv-x="720" 
d="M180 821h136q2 -16 15 -32t30 -16h10q17 0 30 16t15 32h136q-8 -53 -60 -91t-118 -38h-16q-66 0 -118 38t-60 91zM20 677h158l199 -355l163 355h160l-249 -500q-95 -177 -247 -177h-49v126h46q73 0 102 66z" />
    <glyph glyph-name="uni040F" unicode="&#x40f;" horiz-adv-x="715" 
d="M70 0v677h145v-557h285v557h145v-677h-220v-177h-145v177h-210z" />
    <glyph glyph-name="uni0410" unicode="&#x410;" horiz-adv-x="700" 
d="M256 258h183l-92 277zM20 0l249 677h159l252 -677h-155l-46 138h-263l-46 -138h-150z" />
    <glyph glyph-name="uni0411" unicode="&#x411;" horiz-adv-x="660" 
d="M215 120h117q137 3 137 93q0 47 -36.5 65.5t-113.5 18.5h-104v-177zM70 0v677h450v-120h-305v-140h105q300 0 300 -204q0 -103 -76.5 -158t-223.5 -55h-250z" />
    <glyph glyph-name="uni0412" unicode="&#x412;" horiz-adv-x="680" 
d="M215 400h104q140 0 140 83q0 74 -130 74h-114v-157zM215 120h144q130 0 130 85q0 40 -40 62.5t-100 22.5h-134v-170zM70 0v677h260q139 0 209.5 -51t70.5 -133q0 -102 -96 -141q126 -45 126 -157q0 -90 -71.5 -142.5t-208.5 -52.5h-290z" />
    <glyph glyph-name="uni0413" unicode="&#x413;" horiz-adv-x="470" 
d="M70 0v677h380v-120h-235v-557h-145z" />
    <glyph glyph-name="uni0414" unicode="&#x414;" horiz-adv-x="715" 
d="M232 120h238v437h-195v-125q0 -194 -43 -312zM20 120h67q43 127 43 339v218h485v-557h80v-297h-145v177h-385v-177h-145v297z" />
    <glyph glyph-name="uni0415" unicode="&#x415;" 
d="M70 0v677h490v-120h-345v-139h285v-120h-285v-178h345v-120h-490z" />
    <glyph glyph-name="uni0416" unicode="&#x416;" horiz-adv-x="965" 
d="M20 0l234 356l-217 321h154l171 -259h48v259h145v-259h47l172 259h154l-218 -321l235 -356h-164l-193 298h-33v-298h-145v298h-34l-192 -298h-164z" />
    <glyph glyph-name="uni0417" unicode="&#x417;" horiz-adv-x="690" 
d="M40 213h151q0 -50 39 -79t119 -29q150 0 150 100q0 80 -150 80h-59v120h43q71 1 103.5 18t32.5 60q0 42 -37.5 65.5t-101.5 23.5q-60 0 -93 -30t-33 -73h-151q0 39 16 77t48 71.5t87.5 54t125.5 20.5q142 0 216 -60.5t74 -138.5q0 -108 -113 -145q143 -38 143 -153
q0 -88 -77 -149t-224 -61q-84 0 -146.5 20t-96.5 53.5t-50 72t-16 82.5z" />
    <glyph glyph-name="uni0418" unicode="&#x418;" horiz-adv-x="755" 
d="M70 0v677h145v-478l300 478h170v-677h-145v478l-300 -478h-170z" />
    <glyph glyph-name="uni0419" unicode="&#x419;" horiz-adv-x="755" 
d="M192 821h136q2 -16 15 -32t30 -16h10q17 0 30 16t15 32h136q-8 -53 -60 -91t-118 -38h-16q-66 0 -118 38t-60 91zM70 0v677h145v-478l300 478h170v-677h-145v478l-300 -478h-170z" />
    <glyph glyph-name="uni041A" unicode="&#x41a;" horiz-adv-x="675" 
d="M70 0v677h145v-259h48l211 259h164l-267 -322l284 -355h-174l-234 298h-32v-298h-145z" />
    <glyph glyph-name="uni041B" unicode="&#x41b;" horiz-adv-x="665" 
d="M20 0v136h28q43 0 67.5 81t24.5 242v218h455v-677h-145v557h-165v-125q0 -432 -234 -432h-31z" />
    <glyph glyph-name="uni041C" unicode="&#x41c;" horiz-adv-x="835" 
d="M70 0v677h170l177 -318l178 318h170v-677h-145v469l-154 -279h-99l-152 272v-462h-145z" />
    <glyph glyph-name="uni041D" unicode="&#x41d;" horiz-adv-x="725" 
d="M70 0v677h145v-259h295v259h145v-677h-145v298h-295v-298h-145z" />
    <glyph glyph-name="uni041E" unicode="&#x41e;" horiz-adv-x="780" 
d="M195 344q0 -112 57 -175.5t138 -63.5t138 63.5t57 175.5q0 111 -56.5 169.5t-138.5 58.5t-138.5 -58.5t-56.5 -169.5zM40 344q0 162 95.5 255t254.5 93t254.5 -93t95.5 -255q0 -163 -96 -261t-254 -98t-254 98t-96 261z" />
    <glyph glyph-name="uni041F" unicode="&#x41f;" horiz-adv-x="715" 
d="M70 0v677h575v-677h-145v557h-285v-557h-145z" />
    <glyph glyph-name="uni0420" unicode="&#x420;" horiz-adv-x="660" 
d="M215 320h117q137 5 137 123q0 62 -37.5 88t-112.5 26h-104v-237zM70 0v677h250q300 0 300 -234q0 -118 -76.5 -180.5t-223.5 -62.5h-105v-200h-145z" />
    <glyph glyph-name="uni0421" unicode="&#x421;" horiz-adv-x="720" 
d="M40 344q0 168 91.5 258t248.5 90q144 0 221.5 -71.5t77.5 -170.5h-147q0 53 -40.5 87.5t-110.5 34.5q-80 0 -132.5 -56t-52.5 -172q0 -117 53.5 -178t131.5 -61q69 0 111.5 39t42.5 93h145q0 -100 -78 -176t-222 -76q-156 0 -248 95t-92 264z" />
    <glyph glyph-name="uni0422" unicode="&#x422;" horiz-adv-x="585" 
d="M20 557v120h545v-120h-200v-557h-145v557h-200z" />
    <glyph glyph-name="uni0423" unicode="&#x423;" horiz-adv-x="720" 
d="M20 677h158l199 -355l163 355h160l-249 -500q-95 -177 -247 -177h-49v126h46q73 0 102 66z" />
    <glyph glyph-name="uni0424" unicode="&#x424;" horiz-adv-x="875" 
d="M510 200h24q69 0 109.5 39t40.5 114q0 71 -38.5 107.5t-111.5 36.5h-24v-297zM191 353q0 -75 40.5 -114t109.5 -39h24v297h-31q-143 -5 -143 -144zM40 353q0 119 76 191.5t224 72.5h25v60h145v-60h25q148 0 224 -72.5t76 -191.5q0 -122 -78.5 -197.5t-221.5 -75.5h-25
v-80h-145v80h-25q-143 0 -221.5 75.5t-78.5 197.5z" />
    <glyph glyph-name="uni0425" unicode="&#x425;" horiz-adv-x="700" 
d="M20 0l229 338l-221 339h159l163 -263l163 263h159l-221 -339l229 -338h-170l-158 257l-168 -257h-164z" />
    <glyph glyph-name="uni0426" unicode="&#x426;" horiz-adv-x="745" 
d="M70 0v677h145v-557h285v557h145v-557h80v-297h-145v177h-510z" />
    <glyph glyph-name="uni0427" unicode="&#x427;" horiz-adv-x="650" 
d="M40 483v194h140v-194q0 -70 27 -101.5t93 -31.5h135v327h145v-677h-145v230h-136q-141 0 -200 64t-59 189z" />
    <glyph glyph-name="uni0428" unicode="&#x428;" horiz-adv-x="965" 
d="M70 0v677h145v-557h195v557h145v-557h195v557h145v-677h-825z" />
    <glyph glyph-name="uni0429" unicode="&#x429;" horiz-adv-x="995" 
d="M70 0v677h145v-557h195v557h145v-557h195v557h145v-557h80v-297h-145v177h-760z" />
    <glyph glyph-name="uni042A" unicode="&#x42a;" horiz-adv-x="840" 
d="M395 120h104q150 0 150 123q0 62 -37.5 88t-112.5 26h-104v-237zM20 557v120h375v-200h105q300 0 300 -234q0 -118 -76.5 -180.5t-223.5 -62.5h-250v557h-230z" />
    <glyph glyph-name="uni042B" unicode="&#x42b;" horiz-adv-x="895" 
d="M680 0v677h145v-677h-145zM215 120h87q137 5 137 123q0 62 -37.5 88t-112.5 26h-74v-237zM70 0v677h145v-200h75q300 0 300 -234q0 -118 -76.5 -180.5t-223.5 -62.5h-220z" />
    <glyph glyph-name="uni042C" unicode="&#x42c;" horiz-adv-x="660" 
d="M215 120h104q150 0 150 123q0 62 -37.5 88t-112.5 26h-104v-237zM70 0v677h145v-200h105q300 0 300 -234q0 -118 -76.5 -180.5t-223.5 -62.5h-250z" />
    <glyph glyph-name="uni042D" unicode="&#x42d;" horiz-adv-x="720" 
d="M40 440q0 100 78 176t222 76q156 0 248 -95t92 -264q0 -168 -91.5 -258t-248.5 -90q-144 0 -221.5 71.5t-77.5 170.5h147q0 -53 40.5 -87.5t110.5 -34.5q165 0 190 164h-231v120h232q-12 94 -63.5 138.5t-127.5 44.5q-69 0 -111.5 -39t-42.5 -93h-145z" />
    <glyph glyph-name="uni042E" unicode="&#x42e;" horiz-adv-x="1071" 
d="M486 344q0 -112 57 -175.5t138 -63.5t138 63.5t57 175.5q0 111 -56.5 169.5t-138.5 58.5t-138.5 -58.5t-56.5 -169.5zM70 0v677h145v-259h130q20 130 108 202t227 72q159 0 255 -93t96 -255q0 -163 -96.5 -261t-254.5 -98q-145 0 -235 84t-103 229h-127v-298h-145z" />
    <glyph glyph-name="uni042F" unicode="&#x42f;" horiz-adv-x="660" 
d="M191 434q0 -62 37.5 -88t112.5 -26h104v237h-117q-137 -5 -137 -123zM40 0l136 225q-136 52 -136 209q0 118 76.5 180.5t223.5 62.5h250v-677h-145v200h-105h-19l-122 -200h-159z" />
    <glyph glyph-name="uni0430" unicode="&#x430;" horiz-adv-x="627" 
d="M186 253q0 -72 32.5 -112.5t82.5 -40.5q47 0 78 38t33 107v15q-2 69 -32.5 104.5t-78.5 35.5q-50 0 -82.5 -37.5t-32.5 -109.5zM40 253q0 116 64 189t166 73q99 0 154 -89l28 74h105v-500h-105l-31 73q-54 -88 -151 -88q-101 0 -165.5 76t-64.5 192z" />
    <glyph glyph-name="uni0431" unicode="&#x431;" horiz-adv-x="612" 
d="M200 225q0 -53 31.5 -89t79.5 -36q49 0 82 36t33 89q0 52 -32.5 83.5t-82.5 31.5q-49 0 -80 -31.5t-31 -83.5zM60 225v108q0 81 23.5 143t66 100t92.5 60t112 31l168 25l20 -128l-160 -25q-108 -17 -155 -56.5t-47 -135.5q23 53 65 80.5t94 27.5q103 0 168 -65t65 -165
q0 -99 -72.5 -169.5t-188.5 -70.5q-112 0 -181.5 70.5t-69.5 169.5z" />
    <glyph glyph-name="uni0432" unicode="&#x432;" horiz-adv-x="570" 
d="M200 295h90q45 0 64.5 11.5t19.5 38.5q0 50 -84 50h-90v-100zM200 105h100q84 0 84 55q0 50 -84 50h-100v-105zM70 0v500h230q220 0 220 -135q0 -87 -128 -109q138 -16 138 -111q0 -66 -53.5 -105.5t-166.5 -39.5h-240z" />
    <glyph glyph-name="uni0433" unicode="&#x433;" horiz-adv-x="450" 
d="M70 0v500h360v-115h-220v-385h-140z" />
    <glyph glyph-name="uni0434" unicode="&#x434;" horiz-adv-x="630" 
d="M229 115h161v270h-130v-23q0 -118 -31 -247zM20 115h68q32 138 32 274v111h410v-385h80v-292h-140v177h-310v-177h-140v292z" />
    <glyph glyph-name="uni0435" unicode="&#x435;" horiz-adv-x="585" 
d="M188 310h215q-1 43 -28.5 71.5t-77.5 28.5t-79 -28.5t-30 -71.5zM40 253q0 121 72 191.5t185 70.5q110 0 179 -71t69 -178v-41h-357q1 -54 32.5 -89.5t82.5 -35.5q55 0 79 31q14 18 14 34h145q0 -48 -36 -93q-69 -87 -202 -87q-113 0 -188 73.5t-75 194.5z" />
    <glyph glyph-name="uni0436" unicode="&#x436;" horiz-adv-x="798" 
d="M20 0l149 261l-141 239h149l106 -180h41v180h140v-180h43l114 180h149l-151 -239l159 -261h-154l-125 205h-35v-205h-140v205h-33l-117 -205h-154z" />
    <glyph glyph-name="uni0437" unicode="&#x437;" horiz-adv-x="545" 
d="M40 153h145q0 -63 85 -63q84 0 84 57q0 28 -21 40.5t-66 12.5h-57v105h50q84 3 84 55q0 25 -16 37.5t-58 12.5q-43 0 -59 -16t-16 -47h-145q0 68 53.5 118t166.5 50q109 0 167 -41t58 -109q0 -83 -108 -109q118 -24 118 -121q0 -67 -62.5 -108.5t-172.5 -41.5
q-116 0 -173 50t-57 118z" />
    <glyph glyph-name="uni0438" unicode="&#x438;" horiz-adv-x="620" 
d="M70 0v500h140v-295l190 295h150v-500h-140v295l-190 -295h-150z" />
    <glyph glyph-name="uni0439" unicode="&#x439;" horiz-adv-x="620" 
d="M122 677h136q2 -16 15 -32t30 -16h10q17 0 30 16t15 32h136q-8 -53 -60 -91t-118 -38h-16q-66 0 -118 38t-60 91zM70 0v500h140v-295l190 295h150v-500h-140v295l-190 -295h-150z" />
    <glyph glyph-name="uni043A" unicode="&#x43a;" horiz-adv-x="559" 
d="M70 0v500h140v-180h34l143 180h154l-190 -240l198 -260h-164l-156 205h-19v-205h-140z" />
    <glyph glyph-name="uni043B" unicode="&#x43b;" horiz-adv-x="580" 
d="M20 0v131h28q40 0 56 62t16 196v111h390v-500h-140v385h-110v-23q0 -196 -50.5 -279t-158.5 -83h-31z" />
    <glyph glyph-name="uni043C" unicode="&#x43c;" horiz-adv-x="730" 
d="M70 0v500h160l135 -226l135 226h160v-500h-140v309l-114 -192h-82l-114 192v-309h-140z" />
    <glyph glyph-name="uni043D" unicode="&#x43d;" horiz-adv-x="610" 
d="M70 0v500h140v-180h190v180h140v-500h-140v205h-190v-205h-140z" />
    <glyph glyph-name="uni043E" unicode="&#x43e;" 
d="M185 253q0 -69 30.5 -111t84.5 -42t84.5 42t30.5 111q0 68 -30.5 107.5t-84.5 39.5t-84.5 -39.5t-30.5 -107.5zM40 253q0 115 73 188.5t187 73.5t187 -73.5t73 -188.5q0 -116 -73 -192t-187 -76t-187 76t-73 192z" />
    <glyph glyph-name="uni043F" unicode="&#x43f;" 
d="M70 0v500h460v-500h-140v385h-180v-385h-140z" />
    <glyph glyph-name="uni0440" unicode="&#x440;" horiz-adv-x="622" 
d="M210 253q0 -69 29 -111t82 -42q54 0 84.5 42.5t30.5 110.5t-30 107.5t-85 39.5q-50 0 -79.5 -41t-31.5 -100v-6zM70 -177v677h100l27 -77q55 92 155 92q108 0 169 -72t61 -190q0 -117 -63 -192.5t-167 -75.5q-89 0 -142 73v-235h-140z" />
    <glyph glyph-name="uni0441" unicode="&#x441;" horiz-adv-x="565" 
d="M40 253q0 115 73 188.5t187 73.5q118 0 183 -75q40 -46 40 -123h-145q0 37 -16 57q-20 26 -67 26q-48 0 -78.5 -39.5t-30.5 -107.5t30.5 -110.5t78.5 -42.5q46 0 68 27q17 21 17 58h145q0 -76 -39 -122q-67 -78 -186 -78q-114 0 -187 76t-73 192z" />
    <glyph glyph-name="uni0442" unicode="&#x442;" horiz-adv-x="500" 
d="M20 385v115h460v-115h-160v-385h-140v385h-160z" />
    <glyph glyph-name="uni0443" unicode="&#x443;" horiz-adv-x="580" 
d="M20 500h150l128 -335l117 335h145l-187 -495q-74 -182 -229 -182h-49v121h46q55 0 85 69z" />
    <glyph glyph-name="uni0444" unicode="&#x444;" horiz-adv-x="802" 
d="M471 115h10q60 0 97.5 39t37.5 99t-37.5 96t-97.5 36h-10v-270zM186 253q0 -60 37.5 -99t97.5 -39h10v270h-10q-60 0 -97.5 -36t-37.5 -96zM40 253q0 104 71 175.5t189 71.5h31v177h140v-177h31q118 0 189 -71.5t71 -175.5t-73 -178.5t-187 -74.5h-31v-177h-140v177h-31
q-114 0 -187 74.5t-73 178.5z" />
    <glyph glyph-name="uni0445" unicode="&#x445;" horiz-adv-x="590" 
d="M30 0l169 251l-161 249h154l108 -179l98 179h154l-161 -249l169 -251h-165l-102 172l-104 -172h-159z" />
    <glyph glyph-name="uni0446" unicode="&#x446;" horiz-adv-x="630" 
d="M70 0v500h140v-385h180v385h140v-385h80v-292h-140v177h-400z" />
    <glyph glyph-name="uni0447" unicode="&#x447;" horiz-adv-x="560" 
d="M40 350v150h140v-140v-7q0 -93 79 -93q44 0 91 9v231h140v-500h-140v163q-63 -13 -120 -13q-190 0 -190 200z" />
    <glyph glyph-name="uni0448" unicode="&#x448;" horiz-adv-x="820" 
d="M70 0v500h140v-385h130v385h140v-385h130v385h140v-500h-680z" />
    <glyph glyph-name="uni0449" unicode="&#x449;" horiz-adv-x="850" 
d="M70 0v500h140v-385h130v385h140v-385h130v385h140v-385h80v-292h-140v177h-620z" />
    <glyph glyph-name="uni044A" unicode="&#x44a;" horiz-adv-x="670" 
d="M310 115h90q38 0 61 17.5t23 47.5q0 55 -87 55h-87v-120zM20 385v115h290v-150h88q108 0 170 -43t62 -127q0 -82 -58.5 -131t-161.5 -49h-240v385h-150z" />
    <glyph glyph-name="uni044B" unicode="&#x44b;" horiz-adv-x="765" 
d="M565 0v500h130v-500h-130zM210 115h67q35 2 56 19.5t21 45.5q0 55 -87 55h-57v-120zM70 0v500h140v-150h58q108 0 170 -43t62 -127q0 -82 -58.5 -131t-161.5 -49h-210z" />
    <glyph glyph-name="uni044C" unicode="&#x44c;" horiz-adv-x="570" 
d="M210 115h90q38 0 61 17.5t23 47.5q0 55 -87 55h-87v-120zM70 0v500h140v-150h88q108 0 170 -43t62 -127q0 -82 -58.5 -131t-161.5 -49h-240z" />
    <glyph glyph-name="uni044D" unicode="&#x44d;" horiz-adv-x="565" 
d="M20 325q0 70 39 112q67 78 196 78q113 0 181.5 -74t68.5 -191t-68.5 -191t-181.5 -74q-128 0 -193 75q-40 41 -40 113h145q0 -30 16 -47q20 -26 77 -26q45 0 76.5 24t32.5 66h-166v115h166q-1 42 -33.5 68.5t-75.5 26.5q-56 0 -78 -27q-17 -17 -17 -48h-145z" />
    <glyph glyph-name="uni044E" unicode="&#x44e;" horiz-adv-x="850" 
d="M435 255q0 -69 30.5 -112t84.5 -43t84.5 43t30.5 112q0 68 -30.5 106.5t-84.5 38.5t-84.5 -38.5t-30.5 -106.5zM70 0v500h140v-180h95q18 90 83 142.5t161 52.5q120 0 190.5 -71.5t70.5 -188.5q0 -118 -71 -194t-190 -76q-100 0 -166 61t-81 159h-92v-205h-140z" />
    <glyph glyph-name="uni044F" unicode="&#x44f;" horiz-adv-x="570" 
d="M186 335q0 -60 87 -60h87v110h-100q-74 -3 -74 -50zM40 0l119 185q-119 37 -119 150q0 81 60 123t160 42h240v-500h-140v170h-56l-110 -170h-154z" />
    <glyph glyph-name="uni0451" unicode="&#x451;" horiz-adv-x="585" 
d="M311 630q0 33 24.5 53.5t61.5 20.5t61 -20.5t24 -53.5q0 -34 -24 -54t-61 -20t-61.5 20t-24.5 54zM188 310h215q-1 43 -28.5 71.5t-77.5 28.5t-79 -28.5t-30 -71.5zM111 630q0 33 24.5 53.5t61.5 20.5t61 -20.5t24 -53.5q0 -34 -24 -54t-61 -20t-61.5 20t-24.5 54z
M40 253q0 121 72 191.5t185 70.5q110 0 179 -71t69 -178v-41h-357q1 -54 32.5 -89.5t82.5 -35.5q55 0 79 31q14 18 14 34h145q0 -48 -36 -93q-69 -87 -202 -87q-113 0 -188 73.5t-75 194.5z" />
    <glyph glyph-name="uni0452" unicode="&#x452;" horiz-adv-x="590" 
d="M20 442v115h80v120h140v-120h143v-115h-143v-106q65 14 120 14q190 0 190 -200v-150q0 -86 -53 -131.5t-133 -45.5h-49v121h36q26 0 42 22t17 64v120q-1 90 -79 90q-46 0 -91 -9v-231h-140v442h-80z" />
    <glyph glyph-name="uni0454" unicode="&#x454;" horiz-adv-x="565" 
d="M40 250q0 117 68.5 191t181.5 74q128 0 193 -75q40 -41 40 -113h-145q0 30 -16 47q-20 26 -77 26q-45 0 -76.5 -24.5t-32.5 -65.5h166v-115h-166q1 -42 33 -68.5t76 -26.5q56 0 78 27q17 17 17 48h145q0 -70 -39 -112q-67 -78 -196 -78q-113 0 -181.5 74t-68.5 191z" />
    <glyph glyph-name="uni0455" unicode="&#x455;" horiz-adv-x="530" 
d="M40 153h145q0 -53 90 -53q33 0 51 12.5t18 32.5q0 17 -21.5 29.5t-53.5 19t-69.5 19t-69.5 28t-53.5 47.5t-21.5 77q0 69 51.5 109.5t152.5 40.5q110 0 167 -49.5t57 -118.5h-145q0 28 -19 40.5t-60 12.5q-58 0 -58 -45q0 -23 30 -36t72.5 -21t84.5 -21t72 -46t30 -86
q0 -70 -55 -115t-160 -45q-122 0 -178.5 48.5t-56.5 119.5z" />
    <glyph glyph-name="uni0456" unicode="&#x456;" horiz-adv-x="270" 
d="M70 0v500h130v-500h-130zM50 630q0 33 24.5 53.5t61.5 20.5t61 -20.5t24 -53.5q0 -34 -24 -54t-61 -20t-61.5 20t-24.5 54z" />
    <glyph glyph-name="uni0457" unicode="&#x457;" horiz-adv-x="270" 
d="M149 630q0 33 24.5 53.5t61.5 20.5t61 -20.5t24 -53.5q0 -34 -24 -54t-61 -20t-61.5 20t-24.5 54zM70 0v500h130v-500h-130zM-51 630q0 33 24.5 53.5t61.5 20.5t61 -20.5t24 -53.5q0 -34 -24 -54t-61 -20t-61.5 20t-24.5 54z" />
    <glyph glyph-name="uni0458" unicode="&#x458;" horiz-adv-x="315" 
d="M84 630q0 33 24.5 53.5t61.5 20.5t61 -20.5t24 -53.5q0 -34 -24 -54t-61 -20t-61.5 20t-24.5 54zM5 -56h36q59 0 59 96v460h140v-500q0 -86 -53 -131.5t-133 -45.5h-49v121z" />
    <glyph glyph-name="uni0459" unicode="&#x459;" horiz-adv-x="860" 
d="M510 115h80q38 0 61 17.5t23 47.5q0 55 -87 55h-77v-120zM20 0v131h28q40 0 56 62t16 196v111h390v-150h78q108 0 170 -43t62 -127q0 -82 -58.5 -131t-161.5 -49h-240v385h-100v-23q0 -196 -50.5 -279t-158.5 -83h-31z" />
    <glyph glyph-name="uni045A" unicode="&#x45a;" horiz-adv-x="900" 
d="M540 115h90q38 0 61 17.5t23 47.5q0 55 -87 55h-87v-120zM70 0v500h140v-180h190v180h140v-150h88q108 0 170 -43t62 -127q0 -82 -58.5 -131t-161.5 -49h-240v205h-190v-205h-140z" />
    <glyph glyph-name="uni045B" unicode="&#x45b;" horiz-adv-x="590" 
d="M20 442v115h80v120h140v-120h143v-115h-143v-106q65 14 120 14q190 0 190 -200v-150h-140v140v7q0 93 -79 93q-46 0 -91 -9v-231h-140v442h-80z" />
    <glyph glyph-name="uni045E" unicode="&#x45e;" horiz-adv-x="580" 
d="M104 677h136q2 -16 15 -32t30 -16h10q17 0 30 16t15 32h136q-8 -53 -60 -91t-118 -38h-16q-66 0 -118 38t-60 91zM20 500h150l128 -335l117 335h145l-187 -495l-2 -5q-75 -177 -227 -177h-49v121h46q55 0 85 69z" />
    <glyph glyph-name="uni045F" unicode="&#x45f;" 
d="M70 0v500h140v-385h180v385h140v-500h-160v-177h-140v177h-160z" />
    <glyph glyph-name="uni0490" unicode="&#x490;" horiz-adv-x="490" 
d="M70 0v677h270v172h140v-292h-265v-557h-145z" />
    <glyph glyph-name="uni0491" unicode="&#x491;" horiz-adv-x="440" 
d="M70 0v500h220v177h140v-292h-220v-385h-140z" />
    <glyph glyph-name="endash" unicode="&#x2013;" horiz-adv-x="500" 
d="M20 225v115h460v-115h-460z" />
    <glyph glyph-name="emdash" unicode="&#x2014;" horiz-adv-x="640" 
d="M10 225v115h620v-115h-620z" />
    <glyph glyph-name="quoteleft" unicode="&#x2018;" horiz-adv-x="267" 
d="M29 655l108 39l101 -276l-108 -39z" />
    <glyph glyph-name="quoteright" unicode="&#x2019;" horiz-adv-x="267" 
d="M29 418l101 276l108 -39l-101 -276z" />
    <glyph glyph-name="quotesinglbase" unicode="&#x201a;" horiz-adv-x="267" 
d="M39 -82l101 276l108 -39l-101 -276z" />
    <glyph glyph-name="quotedblleft" unicode="&#x201c;" horiz-adv-x="467" 
d="M229 655l108 39l101 -276l-108 -39zM29 655l108 39l101 -276l-108 -39z" />
    <glyph glyph-name="quotedblright" unicode="&#x201d;" horiz-adv-x="467" 
d="M229 418l101 276l108 -39l-101 -276zM29 418l101 276l108 -39l-101 -276z" />
    <glyph glyph-name="quotedblbase" unicode="&#x201e;" horiz-adv-x="467" 
d="M239 -82l101 276l108 -39l-101 -276zM39 -82l101 276l108 -39l-101 -276z" />
    <glyph glyph-name="perthousand" unicode="&#x2030;" horiz-adv-x="1093" 
d="M839 147q0 -35 15.5 -56t42.5 -21t42 21.5t15 55.5t-15 53.5t-42 19.5q-28 0 -43 -19.5t-15 -53.5zM740 147q0 69 43.5 112.5t112.5 43.5t113 -43.5t44 -112.5t-44.5 -115.5t-112.5 -46.5t-112 46.5t-44 115.5zM499 147q0 -35 15.5 -56t42.5 -21t42 21.5t15 55.5
t-15 53.5t-42 19.5q-28 0 -43 -19.5t-15 -53.5zM400 147q0 69 43.5 112.5t112.5 43.5t113 -43.5t44 -112.5t-44.5 -115.5t-112.5 -46.5t-112 46.5t-44 115.5zM139 536q0 -35 15.5 -56t42.5 -21t42 21.5t15 55.5t-15 53.5t-42 19.5q-28 0 -43 -19.5t-15 -53.5zM77 0l465 677
h128l-465 -677h-128zM40 536q0 69 43.5 112.5t112.5 43.5t113 -43.5t44 -112.5t-44.5 -115.5t-112.5 -46.5t-112 46.5t-44 115.5z" />
    <glyph glyph-name="guilsinglleft" unicode="&#x2039;" horiz-adv-x="374" 
d="M20 263l170 197h144l-164 -197l164 -197h-144z" />
    <glyph glyph-name="guilsinglright" unicode="&#x203a;" horiz-adv-x="374" 
d="M20 66l163 197l-163 197h144l170 -197l-170 -197h-144z" />
    <glyph glyph-name="fraction" unicode="&#x2044;" horiz-adv-x="610" 
d="M65 0l465 677h128l-465 -677h-128z" />
    <glyph glyph-name="uni2080" unicode="&#x2080;" horiz-adv-x="371" 
d="M120 8q0 -139 66 -139q76 0 76 139q0 130 -76 130q-66 0 -66 -130zM24 8q0 105 45 156t116 51q76 0 124 -51t48 -156q0 -108 -47 -162.5t-125 -54.5q-73 0 -117 55t-44 162z" />
    <glyph glyph-name="uni2081" unicode="&#x2081;" horiz-adv-x="244" 
d="M20 116v90h162v-406h-102v316h-60z" />
    <glyph glyph-name="uni2082" unicode="&#x2082;" horiz-adv-x="341" 
d="M14 90q0 48 37 86.5t118 38.5q71 0 111.5 -37t40.5 -95q0 -75 -122 -184l-9 -8h127v-91h-293v45l103 107q88 77 88 132q0 54 -47 54q-21 0 -35 -12.5t-14 -35.5h-105z" />
    <glyph glyph-name="uni2083" unicode="&#x2083;" horiz-adv-x="347" 
d="M14 -81h105q0 -50 52 -50q24 0 40.5 13t16.5 35q0 24 -20.5 37.5t-47.5 13.5h-59v81h58q25 0 42.5 15t17.5 35q0 17 -13.5 28t-36.5 11q-21 0 -34.5 -12.5t-13.5 -35.5h-105q0 48 36.5 86.5t116.5 38.5q71 0 113 -33.5t42 -82.5q0 -62 -78 -84q87 -28 87 -98
q0 -57 -43 -91.5t-119 -34.5q-75 0 -116 37.5t-41 90.5z" />
    <glyph glyph-name="uni2084" unicode="&#x2084;" horiz-adv-x="352" 
d="M98 -28h93v125zM2 -16l177 222h117v-234h44v-81h-44v-91h-105v91h-189v93z" />
    <glyph glyph-name="uni2085" unicode="&#x2085;" horiz-adv-x="341" 
d="M14 -91h105q0 -40 42 -40q60 0 60 66q0 60 -60 60q-45 0 -52 -29h-82l18 240h237v-80h-150l-5 -65q19 9 50 9q68 0 109 -37t41 -98q0 -64 -43 -104t-123 -40q-69 0 -108 37.5t-39 80.5z" />
    <glyph glyph-name="uni2086" unicode="&#x2086;" horiz-adv-x="352" 
d="M119 -63v-2q0 -66 59 -66q55 0 55 66q0 60 -55 60q-59 0 -59 -58zM14 -19q0 234 172 234q40 0 69 -11t42 -28t18.5 -31t5.5 -25h-99q0 3 -2.5 6.5t-11.5 7.5t-22 4q-31 0 -46 -19.5t-19 -69.5q31 21 74 21q64 0 103.5 -37t39.5 -98q0 -64 -41.5 -104t-117.5 -40
q-165 0 -165 190z" />
    <glyph glyph-name="uni2087" unicode="&#x2087;" horiz-adv-x="337" 
d="M12 116v90h313v-29l-174 -377h-108l146 316h-177z" />
    <glyph glyph-name="uni2088" unicode="&#x2088;" horiz-adv-x="352" 
d="M128 99q0 -49 48 -49t48 49q0 39 -48 39t-48 -39zM119 -78q0 -22 14.5 -37.5t42.5 -15.5t42.5 15.5t14.5 37.5q0 27 -15.5 41t-41.5 14t-41.5 -14t-15.5 -41zM14 -83q0 71 80 96q-71 25 -71 91q0 49 43.5 80t109.5 31t109.5 -31t43.5 -80q0 -65 -72 -91q81 -24 81 -96
q0 -57 -44.5 -91.5t-117.5 -34.5q-72 0 -117 34.5t-45 91.5z" />
    <glyph glyph-name="uni2089" unicode="&#x2089;" horiz-adv-x="352" 
d="M119 71q0 -60 55 -60q59 0 59 58v2q0 66 -59 66q-55 0 -55 -66zM14 71q0 64 41.5 104t117.5 40q165 0 165 -190q0 -234 -172 -234q-40 0 -69 11t-42 28t-18.5 31t-5.5 25h99q0 -3 2.5 -6.5t11.5 -7.5t22 -4q31 0 45.5 19.5t18.5 69.5q-31 -21 -73 -21q-64 0 -103.5 37
t-39.5 98z" />
    <glyph glyph-name="Euro" unicode="&#x20ac;" horiz-adv-x="655" 
d="M20 196v115h86v33v21h-86v115h100q24 105 90.5 158.5t166.5 53.5q64 0 111.5 -19.5t71.5 -50.5t34.5 -61.5t10.5 -60.5h-135q0 27 -23.5 52t-69.5 25q-48 0 -75.5 -23t-39.5 -74h178v-115h-189v-21v-33h189v-115h-177q12 -51 39 -73.5t75 -22.5q47 0 70 25t23 52h135
q0 -30 -10.5 -60.5t-34.5 -61.5t-71.5 -50.5t-111.5 -19.5q-203 0 -255 211h-102z" />
    <glyph glyph-name="uni20B4" unicode="&#x20b4;" horiz-adv-x="690" 
d="M50 197v115h200l55 53h-255v115h368q11 17 11 37q0 28 -20.5 49t-68.5 21q-44 0 -67 -15.5t-23 -37.5h-145q0 60 61 109t174 49q107 0 168.5 -50t61.5 -120q0 -21 -8 -42h78v-115h-184l-55 -53h239v-115h-369q-10 -18 -10 -37q0 -28 20.5 -49t68.5 -21q80 0 80 53h145
q0 -61 -56.5 -109.5t-168.5 -48.5q-107 0 -168.5 50t-61.5 120q0 19 7 42h-77z" />
    <glyph glyph-name="uni20BD" unicode="&#x20bd;" horiz-adv-x="640" 
d="M255 380h71q133 3 133 93q0 43 -33.5 63.5t-106.5 20.5h-64v-177zM20 96v115h90v54h-90v115h90v297h220q133 0 206.5 -58t73.5 -146q0 -208 -280 -208h-75v-54h189v-115h-189v-96h-145v96h-90z" />
    <glyph glyph-name="uni2116" unicode="&#x2116;" horiz-adv-x="1153" 
d="M894 452q0 -35 15.5 -56t42.5 -21t42 21.5t15 55.5t-15 53.5t-42 19.5q-28 0 -43 -19.5t-15 -53.5zM795 452q0 69 43.5 112.5t112.5 43.5t113 -43.5t44 -112.5t-44.5 -115.5t-112.5 -46.5t-112 46.5t-44 115.5zM773 82v115h360v-115h-360zM70 0v677h170l300 -478v478h145
v-677h-170l-300 478v-478h-145z" />
    <glyph glyph-name="Omega" unicode="&#x2126;" horiz-adv-x="786" 
d="M40 0v120h127q-117 115 -117 248q0 148 92 236t252 88q159 0 250.5 -88t91.5 -236q0 -134 -118 -248h128v-120h-316v85l16.5 11t37.5 32.5t47 55.5t37 79.5t17 104.5q0 91 -54 147.5t-138 56.5t-138 -56.5t-54 -147.5q0 -55 16 -104.5t38.5 -80.5t45.5 -54.5t39 -33.5
l16 -10v-85h-316z" />
    <glyph glyph-name="arrowleft" unicode="&#x2190;" horiz-adv-x="694" 
d="M40 287l320 300l74 -76l-188 -172h408v-106h-408l188 -172l-74 -76z" />
    <glyph glyph-name="arrowup" unicode="&#x2191;" horiz-adv-x="722" 
d="M40 294l322 340l320 -340l-76 -74l-192 208v-428h-106v428l-192 -208z" />
    <glyph glyph-name="arrowright" unicode="&#x2192;" horiz-adv-x="694" 
d="M40 233v106h408l-188 172l74 76l320 -302l-320 -300l-74 76l188 172h-408z" />
    <glyph glyph-name="arrowdown" unicode="&#x2193;" horiz-adv-x="722" 
d="M40 325l76 74l192 -208v428h106v-428l192 208l76 -74l-322 -340z" />
    <glyph glyph-name="Delta" unicode="&#x2206;" horiz-adv-x="700" 
d="M205 120h284l-142 374zM20 0l259 677h139l262 -677h-660z" />
    <glyph glyph-name="minus" unicode="&#x2212;" horiz-adv-x="400" 
d="M20 225v115h360v-115h-360z" />
    <glyph glyph-name="uni2236" unicode="&#x2236;" horiz-adv-x="280" 
d="M52 507q0 39 25.5 63.5t62.5 24.5t62.5 -24.5t25.5 -63.5q0 -40 -25 -64t-63 -24t-63 24t-25 64zM52 153q0 39 25.5 63.5t62.5 24.5t62.5 -24.5t25.5 -63.5q0 -40 -25 -64t-63 -24t-63 24t-25 64z" />
    <glyph glyph-name="approxequal" unicode="&#x2248;" horiz-adv-x="668" 
d="M20 391l21 20q45 46 74 64.5t60 18.5q27 0 66 -12l206 -63q5 -2 16 -2q31 0 66 36l33 33l86 -85l-42 -42q-39 -39 -64.5 -54.5t-54.5 -15.5q-26 0 -71 14l-206 63q-10 2 -15 2q-27 0 -65 -35l-24 -27zM20 191l21 20q45 46 74 64.5t60 18.5q27 0 66 -12l206 -63
q5 -2 16 -2q31 0 66 36l33 33l86 -85l-42 -42q-39 -39 -64.5 -54.5t-54.5 -15.5q-26 0 -71 14l-206 63q-10 2 -15 2q-27 0 -65 -35l-24 -27z" />
    <glyph glyph-name="notequal" unicode="&#x2260;" horiz-adv-x="400" 
d="M20 125v115h87l24 85h-111v115h143l67 237h130l-67 -237h87v-115h-119l-24 -85h143v-115h-175l-35 -125h-130l35 125h-55z" />
    <glyph glyph-name="lessequal" unicode="&#x2264;" horiz-adv-x="400" 
d="M20 343l320 197v-128l-121 -69l121 -69v-128zM10 -25v115h360v-115h-360z" />
    <glyph glyph-name="greaterequal" unicode="&#x2265;" horiz-adv-x="400" 
d="M40 146v128l121 69l-121 69v128l320 -197zM30 -25v115h360v-115h-360z" />
    <glyph glyph-name="i.001" horiz-adv-x="280" 
d="M70 0v500h140v-500h-140z" />
    <glyph glyph-name="braceleft.001" horiz-adv-x="456" 
d="M90 279v121h36q36 0 51.5 17t15.5 63v125q0 172 174 172h59v-121h-46q-34 0 -45.5 -16.5t-11.5 -64.5v-125q0 -83 -66 -111q66 -31 66 -111v-126q0 -48 11.5 -64.5t45.5 -16.5h46v-121h-59q-174 0 -174 172v126q0 46 -15.5 63.5t-51.5 17.5h-36z" />
    <glyph glyph-name="bracketleft.001" horiz-adv-x="390" 
d="M100 -100v877h260v-105h-130v-667h130v-105h-260z" />
    <glyph glyph-name="parenleft.001" horiz-adv-x="340" 
d="M70 344q0 81 13 155t31 122.5t36.5 85.5t31.5 53l13 17h125q-5 -7 -12.5 -19.5t-27.5 -56t-35 -90.5t-27.5 -120t-12.5 -147t12 -147.5t28.5 -124.5t33.5 -91.5t29 -60.5l12 -20h-125q-5 6 -13.5 18.5t-30 55t-38 90t-30 123.5t-13.5 157z" />
    <glyph glyph-name="parenright.001" horiz-adv-x="340" 
d="M20 -100q5 7 12.5 19.5t27.5 56t35 90.5t27.5 120t12.5 147t-12 147.5t-28.5 124.5t-33.5 91.5t-29 60.5l-12 20h125q5 -6 13.5 -18.5t30 -55t38 -90t30 -123.5t13.5 -157t-13 -155t-31 -122.5t-36.5 -85.5t-31.5 -54l-13 -16h-125z" />
    <glyph glyph-name="bracketright.001" horiz-adv-x="390" 
d="M30 5h130v667h-130v105h260v-877h-260v105z" />
    <glyph glyph-name="braceright.001" horiz-adv-x="456" 
d="M40 21h46q34 0 45.5 16.5t11.5 64.5v125q0 81 65 110q-65 30 -65 112v126q0 48 -11.5 64.5t-45.5 16.5h-46v121h59q174 0 174 -172v-126q0 -46 15.5 -63.5t51.5 -17.5h36v-121h-36q-36 0 -51.5 -17t-15.5 -63v-125q0 -172 -174 -172h-59v121z" />
    <glyph glyph-name="question.alt" horiz-adv-x="380" 
d="M52 73q0 39 25.5 63.5t62.5 24.5t62.5 -24.5t25.5 -63.5q0 -40 -25 -64t-63 -24t-63 24t-25 64zM30 557v120h72q114 0 176 -53t62 -136q0 -38 -14.5 -69.5t-35 -53.5t-41.5 -43t-35.5 -47t-14.5 -55h-127q0 42 12.5 75.5t30.5 55t36 40.5t30.5 43t12.5 53q0 33 -25 51.5
t-67 18.5h-72z" />
    <glyph glyph-name="tf" horiz-adv-x="716" 
d="M20 385v115h80v120h140v-120h193v5q0 83 47 127.5t137 44.5h79v-115h-86q-30 0 -42.5 -14t-14.5 -48h143v-115h-123v-385h-140v385h-193v-183q3 -81 47 -81h76v-121h-89q-87 0 -130.5 48.5t-43.5 133.5v203h-80z" />
    <glyph glyph-name="H_E" horiz-adv-x="1060" 
d="M60 0v677h145v-259h295v259h490v-120h-345v-139h285v-120h-285v-178h345v-120h-490v298h-295v-298h-145z" />
    <glyph glyph-name="uni0418_uni0419" horiz-adv-x="1225" 
d="M662 821h136q2 -16 15 -32t30 -16h10q17 0 30 16t15 32h136q-8 -53 -60 -91t-118 -38h-16q-66 0 -118 38t-60 91zM70 0v677h145v-478l300 478h170v-478l300 478h170v-677h-145v478l-300 -478h-170v478l-300 -478h-170z" />
    <glyph glyph-name="uni041D_uni041D" horiz-adv-x="1165" 
d="M70 0v677h145v-259h295v259h145v-259h295v259h145v-677h-145v298h-295v-298h-145v298h-295v-298h-145z" />
    <glyph glyph-name="uni041B_uni042E" horiz-adv-x="1451" 
d="M866 344q0 -112 57 -175.5t138 -63.5t138 63.5t57 175.5q0 111 -56.5 169.5t-138.5 58.5t-138.5 -58.5t-56.5 -169.5zM20 0v136h28q43 0 67.5 81t24.5 242v218h455v-259h130q20 130 108 202t227 72q159 0 255 -93t96 -255q0 -163 -96.5 -261t-254.5 -98q-145 0 -235 84
t-103 229h-127v-298h-145v557h-165v-125q0 -432 -234 -432h-31z" />
    <glyph glyph-name="uni0438_uni0439" horiz-adv-x="960" 
d="M452 677h136q2 -16 15 -32t30 -16h10q17 0 30 16t15 32h136q-8 -53 -60 -91t-118 -38h-16q-66 0 -118 38t-60 91zM60 0v500h140v-295l190 295h150v-295l190 295h150v-500h-140v295l-190 -295h-150v295l-190 -295h-150z" />
    <glyph glyph-name="uni043D_uni043D" horiz-adv-x="940" 
d="M60 0v500h140v-180h190v180h140v-180h190v180h140v-500h-140v205h-190v-205h-140v205h-190v-205h-140z" />
    <glyph glyph-name="uni043B_uni044E" horiz-adv-x="1155" 
d="M735 255q0 -69 30.5 -112t84.5 -43t84.5 43t30.5 112q0 68 -30.5 106.5t-84.5 38.5t-84.5 -38.5t-30.5 -106.5zM30 0v131h28q40 0 56 62t16 196v111h390v-180h85q18 90 83 142.5t161 52.5q120 0 190.5 -71.5t70.5 -188.5q0 -118 -71 -194t-190 -76q-100 0 -166 61
t-81 159h-82v-205h-150v385h-100v-23q0 -196 -50.5 -279t-158.5 -83h-31z" />
    <glyph glyph-name="pi.alt" horiz-adv-x="630" 
d="M40 385v115h550v-115h-50v-385h-140v385h-170v-385h-140v385h-50z" />
    <glyph glyph-name="pi.002" horiz-adv-x="610" 
d="M40 385v115h490v-321q0 -40 10.5 -54.5t39.5 -14.5v-110q-112 0 -151 31t-39 108v246h-160v-385h-140v385h-50z" />
    <glyph glyph-name="lambda.alt" horiz-adv-x="538" 
d="M0 0l208 490q-22 66 -77 66v121q99 0 145 -42.5t77 -139.5l175 -495h-160l-94 317l-124 -317h-150z" />
    <glyph glyph-name="l.alt" horiz-adv-x="290" 
d="M60 139v538h140v-498q0 -40 10.5 -54.5t39.5 -14.5v-110q-112 0 -151 31t-39 108z" />
    <glyph glyph-name="i.alt" horiz-adv-x="290" 
d="M60 139v361h140v-321q0 -40 10.5 -54.5t39.5 -14.5v-110q-112 0 -151 31t-39 108zM44 630q0 33 24.5 53.5t61.5 20.5t61 -20.5t24 -53.5q0 -34 -24 -54t-61 -20t-61.5 20t-24.5 54z" />
    <glyph glyph-name="uni0438.alt" horiz-adv-x="640" 
d="M70 0v500h140v-295l190 295h150v-321q0 -40 10.5 -54.5t39.5 -14.5v-110q-112 0 -151 31t-39 108v156l-190 -295h-150z" />
    <glyph glyph-name="uni043D.alt" horiz-adv-x="630" 
d="M70 0v500h140v-180h190v180h140v-321q0 -40 10.5 -54.5t39.5 -14.5v-110q-112 0 -151 31t-39 108v66h-190v-205h-140z" />
    <glyph glyph-name="uni043F.alt" horiz-adv-x="620" 
d="M70 0v500h460v-321q0 -40 10.5 -54.5t39.5 -14.5v-110q-112 0 -151 31t-39 108v246h-180v-385h-140z" />
    <glyph glyph-name="uni044F.alt" horiz-adv-x="590" 
d="M186 335q0 -57 78 -60h96v110h-90q-84 0 -84 -50zM40 0l119 185q-119 37 -119 150q0 81 60 123t160 42h240v-321q0 -40 10.5 -54.5t39.5 -14.5v-110q-112 0 -151 31t-39 108v31h-56l-110 -170h-154z" />
    <glyph glyph-name="uni0456.alt" horiz-adv-x="290" 
d="M60 139v361h140v-321q0 -40 10.5 -54.5t39.5 -14.5v-110q-112 0 -151 31t-39 108zM44 630q0 33 24.5 53.5t61.5 20.5t61 -20.5t24 -53.5q0 -34 -24 -54t-61 -20t-61.5 20t-24.5 54z" />
    <glyph glyph-name="uni0457.alt" horiz-adv-x="290" 
d="M146 630q0 33 24.5 53.5t61.5 20.5t61 -20.5t24 -53.5q0 -34 -24 -54t-61 -20t-61.5 20t-24.5 54zM60 139v361h140v-321q0 -40 10.5 -54.5t39.5 -14.5v-110q-112 0 -151 31t-39 108zM-54 630q0 33 24.5 53.5t61.5 20.5t61 -20.5t24 -53.5q0 -34 -24 -54t-61 -20t-61.5 20
t-24.5 54z" />
    <glyph glyph-name="uni0430.alt" horiz-adv-x="642" 
d="M186 253q0 -72 32.5 -112.5t82.5 -40.5q47 0 78 38t33 107v15q-2 69 -32.5 104.5t-78.5 35.5q-50 0 -82.5 -37.5t-32.5 -109.5zM40 253q0 116 64 189t166 73q99 0 154 -89l28 74h100v-321q0 -40 10.5 -54.5t39.5 -14.5v-110q-87 0 -121.5 26.5t-38.5 90.5
q-23 -60 -66.5 -96t-105.5 -36q-101 0 -165.5 76t-64.5 192z" />
    <glyph glyph-name="uni0440.alt" horiz-adv-x="632" 
d="M200 246q2 -65 34.5 -105.5t86.5 -40.5q56 0 90.5 42.5t34.5 110.5q0 67 -34 107t-91 40q-56 0 -88.5 -39.5t-32.5 -107.5v-7zM60 -177v430q0 113 69 187.5t192 74.5q124 0 197.5 -75t73.5 -187q0 -117 -60 -192.5t-180 -75.5q-101 0 -152 64v-226h-140z" />
    <glyph glyph-name="uni0442.alt" horiz-adv-x="500" 
d="M20 385v115h460v-115h-160v-206q0 -40 10.5 -54.5t39.5 -14.5v-110q-112 0 -151 31t-39 108v246h-160z" />
    <glyph glyph-name="alpha.alt" horiz-adv-x="627" 
d="M186 253q0 -72 32.5 -112.5t82.5 -40.5q47 0 78 38t33 107v15q-2 69 -32.5 104.5t-78.5 35.5q-50 0 -82.5 -37.5t-32.5 -109.5zM40 253q0 116 64 189t166 73q99 0 154 -89l28 74h105v-500h-105l-31 73q-54 -88 -151 -88q-101 0 -165.5 76t-64.5 192z" />
    <glyph glyph-name="a.alt" horiz-adv-x="642" 
d="M186 253q0 -72 32.5 -112.5t82.5 -40.5q47 0 78 38t33 107v15q-2 69 -32.5 104.5t-78.5 35.5q-50 0 -82.5 -37.5t-32.5 -109.5zM40 253q0 116 64 189t166 73q99 0 154 -89l28 74h100v-321q0 -40 10.5 -54.5t39.5 -14.5v-110q-87 0 -121.5 26.5t-38.5 90.5
q-23 -60 -66.5 -96t-105.5 -36q-101 0 -165.5 76t-64.5 192z" />
    <glyph glyph-name="iota.alt" horiz-adv-x="270" 
d="M70 0v500h130v-500h-130z" />
    <glyph glyph-name="iotatonos.alt" horiz-adv-x="270" 
d="M70 0v500h130v-500h-130zM65 557l30 160h130l-30 -160h-130z" />
    <glyph glyph-name="iotadieresis.alt" horiz-adv-x="270" 
d="M149 630q0 33 24.5 53.5t61.5 20.5t61 -20.5t24 -53.5q0 -34 -24 -54t-61 -20t-61.5 20t-24.5 54zM70 0v500h130v-500h-130zM-51 630q0 33 24.5 53.5t61.5 20.5t61 -20.5t24 -53.5q0 -34 -24 -54t-61 -20t-61.5 20t-24.5 54z" />
    <glyph glyph-name="tau.alt" horiz-adv-x="500" 
d="M20 385v115h460v-115h-160v-385h-140v385h-160z" />
    <glyph glyph-name="u.alt" 
d="M60 220v280h140v-280q0 -48 24.5 -84t76.5 -36q51 0 75 36t24 84v280h140v-280q0 -235 -240 -235t-240 235z" />
    <glyph glyph-name="a.01" horiz-adv-x="565" 
d="M186 160q0 -27 19 -46t48 -19q49 0 77 37t30 92v1h-60q-114 0 -114 -65zM40 160q0 160 250 160h70v10q0 40 -18.5 60t-61.5 20q-41 0 -58 -17.5t-17 -35.5h-145q0 61 54 109.5t166 48.5q225 0 225 -180v-335h-105l-26 60q-46 -75 -135 -75q-80 0 -139.5 45.5t-59.5 129.5
z" />
    <glyph glyph-name="uni0430.01" horiz-adv-x="565" 
d="M186 160q0 -27 19 -46t48 -19q49 0 77 37t30 92v1h-60q-114 0 -114 -65zM40 160q0 160 250 160h70v10q0 40 -18.5 60t-61.5 20q-41 0 -58 -17.5t-17 -35.5h-145q0 61 54 109.5t166 48.5q225 0 225 -180v-335h-105l-26 60q-46 -75 -135 -75q-80 0 -139.5 45.5t-59.5 129.5
z" />
    <glyph glyph-name="six.alt" horiz-adv-x="590" 
d="M185 215q0 -58 32 -86.5t78 -28.5t77.5 28t31.5 87q0 115 -109 115q-110 0 -110 -115zM40 215q0 95 64 208l146 254h156l-154 -244q33 12 63 12q107 0 171 -66t64 -164q0 -99 -68 -164.5t-187 -65.5t-187 65.5t-68 164.5z" />
    <glyph glyph-name="nine.alt" horiz-adv-x="590" 
d="M186 462q0 -115 109 -115q110 0 110 115q0 58 -32 86.5t-78 28.5t-77.5 -28t-31.5 -87zM40 462q0 99 68 164.5t187 65.5t187 -65.5t68 -164.5q0 -95 -64 -208l-146 -254h-156l154 244q-28 -12 -63 -12q-107 0 -171 66t-64 164z" />
    <glyph glyph-name="three.alt" horiz-adv-x="580" 
d="M40 185h145q0 -37 29.5 -61t70.5 -24q47 0 78.5 27t31.5 78t-31.5 76.5t-78.5 25.5h-106v90l122 160h-221v120h425v-60l-159 -195q93 -14 143.5 -72t50.5 -145q0 -101 -67 -160.5t-188 -59.5q-116 0 -180.5 60t-64.5 140z" />
    <glyph glyph-name="swashtop_B" horiz-adv-x="1180" 
d="M715 400h104q140 0 140 83q0 74 -130 74h-114v-157zM715 120h144q130 0 130 85q0 40 -39.5 62t-99.5 23h-135v-170zM30 462q0 100 77.5 157.5t195.5 57.5h527q139 0 209.5 -51t70.5 -133q0 -102 -96 -141q126 -45 126 -157q0 -90 -71.5 -142.5t-208.5 -52.5h-290v557
h-280q-109 -6 -109 -95q0 -95 122 -95v-120q-118 0 -195.5 57.5t-77.5 157.5z" />
    <glyph glyph-name="swashtop_D" horiz-adv-x="1250" 
d="M715 120h154q75 0 132.5 57t57.5 166t-55 161.5t-135 52.5h-154v-437zM30 462q0 100 77.5 157.5t195.5 57.5h567q157 0 248.5 -86.5t91.5 -247.5q0 -160 -94.5 -251.5t-245.5 -91.5h-300v557h-267q-122 0 -122 -95t122 -95v-120q-118 0 -195.5 57.5t-77.5 157.5z" />
    <glyph glyph-name="swashtop_E" horiz-adv-x="1100" 
d="M30 462q0 100 77.5 157.5t195.5 57.5h757v-120h-345v-139h285v-120h-285v-178h345v-120h-490v557h-279q-110 -5 -110 -95q0 -95 122 -95v-120q-118 0 -195.5 57.5t-77.5 157.5z" />
    <glyph glyph-name="swashtop_F" horiz-adv-x="1050" 
d="M30 462q0 100 77.5 157.5t195.5 57.5h727v-120h-315v-169h275v-120h-275v-268h-145v557h-279q-110 -5 -110 -95q0 -95 122 -95v-120q-118 0 -195.5 57.5t-77.5 157.5z" />
    <glyph glyph-name="swashtop_H" horiz-adv-x="1225" 
d="M30 462q0 100 77.5 157.5t195.5 57.5h412v-259h295v259h145v-677h-145v298h-295v-298h-145v557h-279q-110 -5 -110 -95q0 -95 122 -95v-120q-118 0 -195.5 57.5t-77.5 157.5z" />
    <glyph glyph-name="swashtop_I" horiz-adv-x="785" 
d="M30 462q0 100 77.5 157.5t195.5 57.5h412v-677h-145v557h-267h-12h-1q-109 -6 -109 -95q0 -95 122 -95v-120q-118 0 -195.5 57.5t-77.5 157.5z" />
    <glyph glyph-name="swashtop_K" horiz-adv-x="1175" 
d="M30 462q0 100 77.5 157.5t195.5 57.5h412v-259h48l211 259h164l-267 -322l284 -355h-174l-234 298h-32v-298h-145v557h-267q-122 0 -122 -95t122 -95v-120q-118 0 -195.5 57.5t-77.5 157.5z" />
    <glyph glyph-name="swashtop_L" horiz-adv-x="1050" 
d="M30 462q0 100 77.5 157.5t195.5 57.5h412v-557h315v-120h-460v557h-267q-122 0 -122 -95t122 -95v-120q-118 0 -195.5 57.5t-77.5 157.5z" />
    <glyph glyph-name="swashtop_M" horiz-adv-x="1335" 
d="M30 462q0 100 77.5 157.5t195.5 57.5h437l177 -318l178 318h170v-677h-145v469l-154 -279h-99l-152 272v-462h-145v557h-267h-12h-1q-109 -6 -109 -95q0 -95 122 -95v-120q-118 0 -195.5 57.5t-77.5 157.5z" />
    <glyph glyph-name="swashtop_N" horiz-adv-x="1255" 
d="M30 462q0 100 77.5 157.5t195.5 57.5h437l300 -478v478h145v-677h-170l-300 478v-478h-145v557h-267q-122 0 -122 -95t122 -95v-120q-118 0 -195.5 57.5t-77.5 157.5z" />
    <glyph glyph-name="swashtop_P" horiz-adv-x="1160" 
d="M715 320h117q137 5 137 123q0 59 -34 85.5t-102 28.5h-118v-237zM30 462q0 100 77.5 157.5t195.5 57.5h517q300 0 300 -234q0 -118 -76.5 -180.5t-223.5 -62.5h-105v-200h-145v557h-267q-122 0 -122 -95t122 -95v-120q-118 0 -195.5 57.5t-77.5 157.5z" />
    <glyph glyph-name="swashtop_R" horiz-adv-x="1160" 
d="M715 340h104q150 0 150 104q0 113 -150 113h-104v-217zM30 462q0 100 77.5 157.5t195.5 57.5h517q146 0 223 -61t77 -172q0 -148 -139 -199l139 -245h-164l-125 220h-11h-105v-220h-145v557h-267q-122 0 -122 -95t122 -95v-120q-118 0 -195.5 57.5t-77.5 157.5z" />
    <glyph glyph-name="swashtop_U" horiz-adv-x="1184" 
d="M30 462q0 100 77.5 157.5t195.5 57.5h402v-417q0 -86 39.5 -121t97.5 -35t97.5 35t39.5 121v417h145v-417q0 -140 -78.5 -207.5t-204.5 -67.5q-125 0 -203 67.5t-78 207.5v297h-257q-122 0 -122 -95t122 -95v-120q-118 0 -195.5 57.5t-77.5 157.5z" />
    <glyph glyph-name="swashtop_W" horiz-adv-x="1415" 
d="M30 462q0 100 77.5 157.5t195.5 57.5h372l106 -482l128 482h119l127 -473l105 473h135l-150 -677h-160l-118 444l-117 -444h-160l-124 557h-263h-12h-1q-109 -6 -109 -95q0 -95 122 -95v-120q-118 0 -195.5 57.5t-77.5 157.5z" />
    <glyph glyph-name="swashtop_uni0401" horiz-adv-x="1100" 
d="M829 807q0 33 24.5 53.5t61.5 20.5t61 -20.5t24 -53.5q0 -34 -24 -54t-61 -20t-61.5 20t-24.5 54zM629 807q0 33 24.5 53.5t61.5 20.5t61 -20.5t24 -53.5q0 -34 -24 -54t-61 -20t-61.5 20t-24.5 54zM30 462q0 100 77.5 157.5t195.5 57.5h757v-120h-345v-139h285v-120
h-285v-178h345v-120h-490v557h-279q-110 -5 -110 -95q0 -95 122 -95v-120q-118 0 -195.5 57.5t-77.5 157.5z" />
    <glyph glyph-name="swashtop_uni0406" horiz-adv-x="785" 
d="M30 462q0 100 77.5 157.5t195.5 57.5h412v-677h-145v557h-267h-12h-1q-109 -6 -109 -95q0 -95 122 -95v-120q-118 0 -195.5 57.5t-77.5 157.5z" />
    <glyph glyph-name="swashtop_uni0407" horiz-adv-x="785" 
d="M657 807q0 33 24.5 53.5t61.5 20.5t61 -20.5t24 -53.5q0 -34 -24 -54t-61 -20t-61.5 20t-24.5 54zM457 807q0 33 24.5 53.5t61.5 20.5t61 -20.5t24 -53.5q0 -34 -24 -54t-61 -20t-61.5 20t-24.5 54zM30 462q0 100 77.5 157.5t195.5 57.5h412v-677h-145v557h-279
q-110 -5 -110 -95q0 -95 122 -95v-120q-118 0 -195.5 57.5t-77.5 157.5z" />
    <glyph glyph-name="swashtop_uni0409" horiz-adv-x="1470" 
d="M1025 120h104q150 0 150 123q0 62 -37.5 88t-112.5 26h-104v-237zM30 462q0 100 77.5 157.5t195.5 57.5h722v-200h105q300 0 300 -234q0 -118 -76.5 -180.5t-223.5 -62.5h-250v557h-165v-125q0 -432 -234 -432h-31v136h28q41 0 65.5 74.5t26.5 221.5v10v17v98h-279
q-110 -5 -110 -95q0 -95 122 -95v-120q-118 0 -195.5 57.5t-77.5 157.5z" />
    <glyph glyph-name="swashtop_uni040A" horiz-adv-x="1600" 
d="M1155 120h104q150 0 150 123q0 62 -37.5 88t-112.5 26h-104v-237zM30 462q0 100 77.5 157.5t195.5 57.5h412v-259h295v259h145v-200h105q300 0 300 -234q0 -118 -76.5 -180.5t-223.5 -62.5h-250v298h-295v-298h-145v557h-267q-122 0 -122 -95t122 -95v-120
q-118 0 -195.5 57.5t-77.5 157.5z" />
    <glyph glyph-name="swashtop_uni040F" horiz-adv-x="1215" 
d="M30 462q0 100 77.5 157.5t195.5 57.5h412v-557h285v557h145v-677h-220v-177h-145v177h-210v557h-267q-122 0 -122 -95t122 -95v-120q-118 0 -195.5 57.5t-77.5 157.5z" />
    <glyph glyph-name="swashtop_uni0411" horiz-adv-x="1160" 
d="M715 120h104q72 0 111 21t39 72q0 47 -36.5 65.5t-113.5 18.5h-104v-177zM30 462q0 100 77.5 157.5t195.5 57.5h717v-120h-305v-140h105q300 0 300 -204q0 -103 -76.5 -158t-223.5 -55h-250v557h-279q-110 -5 -110 -95q0 -95 122 -95v-120q-118 0 -195.5 57.5
t-77.5 157.5z" />
    <glyph glyph-name="swashtop_uni0412" horiz-adv-x="1180" 
d="M715 400h104q140 0 140 83q0 74 -130 74h-114v-157zM715 120h144q130 0 130 85q0 40 -39.5 62t-99.5 23h-135v-170zM30 462q0 100 77.5 157.5t195.5 57.5h527q139 0 209.5 -51t70.5 -133q0 -102 -96 -141q126 -45 126 -157q0 -90 -71.5 -142.5t-208.5 -52.5h-290v557
h-280q-109 -6 -109 -95q0 -95 122 -95v-120q-118 0 -195.5 57.5t-77.5 157.5z" />
    <glyph glyph-name="swashtop_uni0414" horiz-adv-x="1145" 
d="M662 120h238v437h-195v-125q0 -194 -43 -312zM30 462q0 100 77.5 157.5t195.5 57.5h742v-557h80v-297h-145v177h-385v-177h-145v297h67q43 127 43 339v98h-257h-12h-1q-109 -6 -109 -95q0 -95 122 -95v-120q-118 0 -195.5 57.5t-77.5 157.5z" />
    <glyph glyph-name="swashtop_uni0415" horiz-adv-x="1100" 
d="M30 462q0 100 77.5 157.5t195.5 57.5h757v-120h-345v-139h285v-120h-285v-178h345v-120h-490v557h-279q-110 -5 -110 -95q0 -95 122 -95v-120q-118 0 -195.5 57.5t-77.5 157.5z" />
    <glyph glyph-name="swashtop_uni0418" horiz-adv-x="1255" 
d="M30 462q0 100 77.5 157.5t195.5 57.5h412v-478l300 478h170v-677h-145v478l-300 -478h-170v557h-267q-122 0 -122 -95t122 -95v-120q-118 0 -195.5 57.5t-77.5 157.5z" />
    <glyph glyph-name="swashtop_uni0419" horiz-adv-x="1255" 
d="M692 821h136q2 -16 15 -32t30 -16h10q17 0 30 16t15 32h136q-8 -53 -60 -91t-118 -38h-16q-66 0 -118 38t-60 91zM30 462q0 100 77.5 157.5t195.5 57.5h412v-478l300 478h170v-677h-145v478l-300 -478h-170v557h-279q-110 -5 -110 -95q0 -95 122 -95v-120
q-118 0 -195.5 57.5t-77.5 157.5z" />
    <glyph glyph-name="swashtop_uni041A" horiz-adv-x="1175" 
d="M30 462q0 100 77.5 157.5t195.5 57.5h412v-259h48l211 259h164l-267 -322l284 -355h-174l-234 298h-32v-298h-145v557h-267q-122 0 -122 -95t122 -95v-120q-118 0 -195.5 57.5t-77.5 157.5z" />
    <glyph glyph-name="swashtop_uni041B" horiz-adv-x="1095" 
d="M30 462q0 100 77.5 157.5t195.5 57.5h722v-677h-145v557h-165v-125q0 -432 -234 -432h-31v136h28q42 0 66.5 76.5t25.5 229.5v115h-279q-110 -5 -110 -95q0 -95 122 -95v-120q-118 0 -195.5 57.5t-77.5 157.5z" />
    <glyph glyph-name="swashtop_uni041C" horiz-adv-x="1335" 
d="M30 462q0 100 77.5 157.5t195.5 57.5h437l177 -318l178 318h170v-677h-145v469l-154 -279h-99l-152 272v-462h-145v557h-267h-12h-1q-109 -6 -109 -95q0 -95 122 -95v-120q-118 0 -195.5 57.5t-77.5 157.5z" />
    <glyph glyph-name="swashtop_uni041D" horiz-adv-x="1225" 
d="M30 462q0 100 77.5 157.5t195.5 57.5h412v-259h295v259h145v-677h-145v298h-295v-298h-145v557h-279q-110 -5 -110 -95q0 -95 122 -95v-120q-118 0 -195.5 57.5t-77.5 157.5z" />
    <glyph glyph-name="swashtop_uni041F" horiz-adv-x="1215" 
d="M30 462q0 100 77.5 157.5t195.5 57.5h842v-677h-145v557h-285v-557h-145v557h-279q-110 -5 -110 -95q0 -95 122 -95v-120q-118 0 -195.5 57.5t-77.5 157.5z" />
    <glyph glyph-name="swashtop_uni0420" horiz-adv-x="1160" 
d="M715 320h117q137 5 137 123q0 59 -34 85.5t-102 28.5h-118v-237zM30 462q0 100 77.5 157.5t195.5 57.5h517q300 0 300 -234q0 -118 -76.5 -180.5t-223.5 -62.5h-105v-200h-145v557h-267q-122 0 -122 -95t122 -95v-120q-118 0 -195.5 57.5t-77.5 157.5z" />
    <glyph glyph-name="swashtop_uni0426" horiz-adv-x="1245" 
d="M30 462q0 100 77.5 157.5t195.5 57.5h412v-557h285v557h145v-557h80v-297h-145v177h-510v557h-279q-110 -5 -110 -95q0 -95 122 -95v-120q-118 0 -195.5 57.5t-77.5 157.5z" />
    <glyph glyph-name="swashtop_uni0427" horiz-adv-x="1150" 
d="M30 462q0 100 77.5 157.5t195.5 57.5h377v-194q0 -69 25.5 -100.5t87.5 -32.5h142v327h145v-677h-145v230h-136q-141 0 -200 64t-59 189v74h-249q-110 -5 -110 -95q0 -95 122 -95v-120q-118 0 -195.5 57.5t-77.5 157.5z" />
    <glyph glyph-name="swashtop_uni0428" horiz-adv-x="1465" 
d="M30 462q0 100 77.5 157.5t195.5 57.5h412v-557h195v557h145v-557h195v557h145v-677h-825v557h-267q-122 0 -122 -95t122 -95v-120q-118 0 -195.5 57.5t-77.5 157.5z" />
    <glyph glyph-name="swashtop_uni0429" horiz-adv-x="1495" 
d="M30 462q0 100 77.5 157.5t195.5 57.5h412v-557h195v557h145v-557h195v557h145v-557h80v-297h-145v177h-760v557h-267h-12h-1q-109 -6 -109 -95q0 -95 122 -95v-120q-118 0 -195.5 57.5t-77.5 157.5z" />
    <glyph glyph-name="swashtop_uni042C" horiz-adv-x="1160" 
d="M715 120h104q150 0 150 123q0 62 -37.5 88t-112.5 26h-104v-237zM30 462q0 100 77.5 157.5t195.5 57.5h412v-200h105q300 0 300 -234q0 -118 -76.5 -180.5t-223.5 -62.5h-250v557h-267q-122 0 -122 -95t122 -95v-120q-118 0 -195.5 57.5t-77.5 157.5z" />
    <glyph glyph-name="swashtop_uni042E" horiz-adv-x="1571" 
d="M986 344q0 -112 57 -175.5t138 -63.5t138 63.5t57 175.5q0 111 -56.5 169.5t-138.5 58.5t-138.5 -58.5t-56.5 -169.5zM30 462q0 100 77.5 157.5t195.5 57.5h412v-259h130q20 130 108 202t227 72q159 0 255 -93t96 -255q0 -163 -96.5 -261t-254.5 -98q-145 0 -235 84
t-103 229h-127v-298h-145v557h-267h-12h-1q-109 -6 -109 -95q0 -95 122 -95v-120q-118 0 -195.5 57.5t-77.5 157.5z" />
    <glyph glyph-name="swashtop_Beta" horiz-adv-x="1180" 
d="M715 400h104q140 0 140 83q0 74 -130 74h-114v-157zM715 120h144q130 0 130 85q0 40 -39.5 62t-99.5 23h-135v-170zM30 462q0 100 77.5 157.5t195.5 57.5h527q139 0 209.5 -51t70.5 -133q0 -102 -96 -141q126 -45 126 -157q0 -90 -71.5 -142.5t-208.5 -52.5h-290v557
h-280q-109 -6 -109 -95q0 -95 122 -95v-120q-118 0 -195.5 57.5t-77.5 157.5z" />
    <glyph glyph-name="swashtop_Epsilon" horiz-adv-x="1100" 
d="M30 462q0 100 77.5 157.5t195.5 57.5h757v-120h-345v-139h285v-120h-285v-178h345v-120h-490v557h-279q-110 -5 -110 -95q0 -95 122 -95v-120q-118 0 -195.5 57.5t-77.5 157.5z" />
    <glyph glyph-name="swashtop_Eta" horiz-adv-x="1225" 
d="M30 462q0 100 77.5 157.5t195.5 57.5h412v-259h295v259h145v-677h-145v298h-295v-298h-145v557h-279q-110 -5 -110 -95q0 -95 122 -95v-120q-118 0 -195.5 57.5t-77.5 157.5z" />
    <glyph glyph-name="swashtop_Iota" horiz-adv-x="785" 
d="M30 462q0 100 77.5 157.5t195.5 57.5h412v-677h-145v557h-267h-12h-1q-109 -6 -109 -95q0 -95 122 -95v-120q-118 0 -195.5 57.5t-77.5 157.5z" />
    <glyph glyph-name="swashtop_Kappa" horiz-adv-x="1175" 
d="M30 462q0 100 77.5 157.5t195.5 57.5h412v-259h48l211 259h164l-267 -322l284 -355h-174l-234 298h-32v-298h-145v557h-267q-122 0 -122 -95t122 -95v-120q-118 0 -195.5 57.5t-77.5 157.5z" />
    <glyph glyph-name="swashtop_Mu" horiz-adv-x="1335" 
d="M30 462q0 100 77.5 157.5t195.5 57.5h437l177 -318l178 318h170v-677h-145v469l-154 -279h-99l-152 272v-462h-145v557h-267h-12h-1q-109 -6 -109 -95q0 -95 122 -95v-120q-118 0 -195.5 57.5t-77.5 157.5z" />
    <glyph glyph-name="swashtop_Nu" horiz-adv-x="1255" 
d="M30 462q0 100 77.5 157.5t195.5 57.5h437l300 -478v478h145v-677h-170l-300 478v-478h-145v557h-267q-122 0 -122 -95t122 -95v-120q-118 0 -195.5 57.5t-77.5 157.5z" />
    <glyph glyph-name="swashtop_Pi" horiz-adv-x="1215" 
d="M30 462q0 100 77.5 157.5t195.5 57.5h842v-677h-145v557h-285v-557h-145v557h-279q-110 -5 -110 -95q0 -95 122 -95v-120q-118 0 -195.5 57.5t-77.5 157.5z" />
    <glyph glyph-name="swashtop_Rho" horiz-adv-x="1160" 
d="M715 320h117q137 5 137 123q0 59 -34 85.5t-102 28.5h-118v-237zM30 462q0 100 77.5 157.5t195.5 57.5h517q300 0 300 -234q0 -118 -76.5 -180.5t-223.5 -62.5h-105v-200h-145v557h-267q-122 0 -122 -95t122 -95v-120q-118 0 -195.5 57.5t-77.5 157.5z" />
    <glyph glyph-name="swashtop_Iotadieresis" horiz-adv-x="785" 
d="M657 807q0 33 24.5 53.5t61.5 20.5t61 -20.5t24 -53.5q0 -34 -24 -54t-61 -20t-61.5 20t-24.5 54zM457 807q0 33 24.5 53.5t61.5 20.5t61 -20.5t24 -53.5q0 -34 -24 -54t-61 -20t-61.5 20t-24.5 54zM30 462q0 100 77.5 157.5t195.5 57.5h412v-677h-145v557h-279
q-110 -5 -110 -95q0 -95 122 -95v-120q-118 0 -195.5 57.5t-77.5 157.5z" />
    <glyph glyph-name="A_swashright" horiz-adv-x="1205" 
d="M256 258h183l-92 277zM20 0l249 677h159l207 -557h287q102 0 102 75t-102 75v120q109 0 181 -52t72 -143t-72 -143t-181 -52h-397l-46 138h-263l-46 -138h-150z" />
    <glyph glyph-name="H_swashright" horiz-adv-x="1230" 
d="M70 0v677h145v-259h295v259h145v-557h292q102 0 102 75t-102 75v120q109 0 181 -52t72 -143t-72 -143t-181 -52h-437v298h-295v-298h-145z" />
    <glyph glyph-name="M_swashright" horiz-adv-x="1340" 
d="M70 0v677h170l177 -318l178 318h170v-557h292q102 0 102 75t-102 75v120q109 0 181 -52t72 -143t-72 -143t-181 -52h-437v469l-154 -279h-99l-152 272v-462h-145z" />
    <glyph glyph-name="Alpha_swashright" horiz-adv-x="1205" 
d="M256 258h183l-92 277zM20 0l249 677h159l207 -557h287q102 0 102 75t-102 75v120q109 0 181 -52t72 -143t-72 -143t-181 -52h-397l-46 138h-263l-46 -138h-150z" />
    <glyph glyph-name="Eta_swashright" horiz-adv-x="1230" 
d="M70 0v677h145v-259h295v259h145v-557h292q102 0 102 75t-102 75v120q109 0 181 -52t72 -143t-72 -143t-181 -52h-437v298h-295v-298h-145z" />
    <glyph glyph-name="Lambda_swashright" horiz-adv-x="1205" 
d="M20 0l259 677h139l215 -557h289q102 0 102 75t-102 75v120q109 0 181 -52t72 -143t-72 -143t-181 -52h-397l-178 473l-177 -473h-150z" />
    <glyph glyph-name="Mu_swashright" horiz-adv-x="1340" 
d="M70 0v677h170l177 -318l178 318h170v-557h292q102 0 102 75t-102 75v120q109 0 181 -52t72 -143t-72 -143t-181 -52h-437v469l-154 -279h-99l-152 272v-462h-145z" />
    <glyph glyph-name="Pi_swashright" horiz-adv-x="1220" 
d="M70 0v677h575v-557h292q102 0 102 75t-102 75v120q109 0 181 -52t72 -143t-72 -143t-181 -52h-437v557h-285v-557h-145z" />
    <glyph glyph-name="uni0410_swashright" horiz-adv-x="1205" 
d="M256 258h183l-92 277zM20 0l249 677h159l207 -557h287q102 0 102 75t-102 75v120q109 0 181 -52t72 -143t-72 -143t-181 -52h-397l-46 138h-263l-46 -138h-150z" />
    <glyph glyph-name="uni0418_swashright" horiz-adv-x="1260" 
d="M70 0v677h145v-478l300 478h170v-557h292q102 0 102 75t-102 75v120q109 0 181 -52t72 -143t-72 -143t-181 -52h-437v478l-300 -478h-170z" />
    <glyph glyph-name="uni0419_swashright" horiz-adv-x="1260" 
d="M192 821h136q2 -16 15 -32t30 -16h10q17 0 30 16t15 32h136q-8 -53 -60 -91t-118 -38h-16q-66 0 -118 38t-60 91zM70 0v677h145v-478l300 478h170v-557h305q89 5 89 75q0 75 -102 75v120q109 0 181 -52t72 -143t-72 -143t-181 -52h-437v478l-300 -478h-170z" />
    <glyph glyph-name="uni041B_swashright" horiz-adv-x="1170" 
d="M20 0v136h28q43 0 67.5 81t24.5 242v218h455v-557h305q89 5 89 75q0 75 -102 75v120q109 0 181 -52t72 -143t-72 -143t-181 -52h-437v557h-165v-125q0 -432 -234 -432h-31z" />
    <glyph glyph-name="uni041C_swashright" horiz-adv-x="1340" 
d="M70 0v677h170l177 -318l178 318h170v-557h292q102 0 102 75t-102 75v120q109 0 181 -52t72 -143t-72 -143t-181 -52h-437v469l-154 -279h-99l-152 272v-462h-145z" />
    <glyph glyph-name="uni041D_swashright" horiz-adv-x="1230" 
d="M70 0v677h145v-259h295v259h145v-557h292q102 0 102 75t-102 75v120q109 0 181 -52t72 -143t-72 -143t-181 -52h-437v298h-295v-298h-145z" />
    <glyph glyph-name="uni041F_swashright" horiz-adv-x="1220" 
d="M70 0v677h575v-557h292q102 0 102 75t-102 75v120q109 0 181 -52t72 -143t-72 -143t-181 -52h-437v557h-285v-557h-145z" />
    <glyph glyph-name="uni0427_swashright" horiz-adv-x="1155" 
d="M40 483v194h140v-194q0 -70 27 -101.5t93 -31.5h135v327h145v-557h292q102 0 102 75t-102 75v120q109 0 181 -52t72 -143t-72 -143t-181 -52h-437v230h-136q-141 0 -200 64t-59 189z" />
    <glyph glyph-name="uni0428_swashright" horiz-adv-x="1470" 
d="M70 0v677h145v-557h195v557h145v-557h195v557h145v-557h292q102 0 102 75t-102 75v120q109 0 181 -52t72 -143t-72 -143t-181 -52h-1117z" />
    <glyph glyph-name="uni042F_swashright" horiz-adv-x="1165" 
d="M191 434q0 -62 37.5 -88t112.5 -26h104v237h-117q-137 -5 -137 -123zM40 0l136 225q-136 52 -136 209q0 118 76.5 180.5t223.5 62.5h250v-557h305q89 5 89 75q0 75 -102 75v120q109 0 181 -52t72 -143t-72 -143t-181 -52h-437v200h-105h-19l-122 -200h-159z" />
    <glyph glyph-name="swashleft_i" horiz-adv-x="775" 
d="M555 630q0 33 24.5 53.5t61.5 20.5t61 -20.5t24 -53.5q0 -34 -24 -54t-61 -20t-61.5 20t-24.5 54zM30 305q0 91 72 143t181 52h422v-500h-130v385h-292q-50 0 -78.5 -21t-28.5 -59t28.5 -59t78.5 -21v-115q-109 0 -181 52t-72 143z" />
    <glyph glyph-name="swashleft_j" horiz-adv-x="790" 
d="M559 630q0 33 24.5 53.5t61.5 20.5t61 -20.5t24 -53.5q0 -34 -24 -54t-61 -20t-61.5 20t-24.5 54zM30 305q0 91 72 143t181 52h432v-500q0 -86 -53 -131.5t-133 -45.5h-49v121h36q59 0 59 96v345h-302q-46 -2 -71.5 -23.5t-25.5 -56.5q0 -38 28.5 -59t78.5 -21v-115
q-109 0 -181 52t-72 143z" />
    <glyph glyph-name="swashleft_m" horiz-adv-x="1395" 
d="M30 305q0 91 72 143t181 52h392l23 -61q46 76 137 76q108 0 132 -125q43 125 178 125q91 0 140.5 -56t49.5 -169v-290h-140v290q0 58 -19 84t-60 26q-38 0 -63.5 -35t-27.5 -82v-283h-140v280v10q0 58 -18.5 84t-60.5 26q-38 0 -63.5 -35t-27.5 -82v-283h-140v385h-302
q-46 -2 -71.5 -23.5t-25.5 -56.5q0 -38 28.5 -59t78.5 -21v-115q-109 0 -181 52t-72 143z" />
    <glyph glyph-name="swashleft_n" horiz-adv-x="1135" 
d="M30 305q0 91 72 143t181 52h392l27 -73q56 88 163 88q102 0 156 -60.5t54 -164.5v-290h-140v280v5q0 49 -29 82t-80 33q-48 0 -78.5 -35t-32.5 -82v-283h-140v385h-292q-50 0 -78.5 -21t-28.5 -59t28.5 -59t78.5 -21v-115q-109 0 -181 52t-72 143z" />
    <glyph glyph-name="swashleft_p" horiz-adv-x="1127" 
d="M715 253q0 -69 29 -111t82 -42q54 0 84.5 42.5t30.5 110.5t-30 107.5t-85 39.5q-52 0 -81.5 -42.5t-29.5 -104.5zM30 305q0 91 72 143t181 52h392l27 -77q55 92 155 92q108 0 169 -72t61 -190q0 -117 -63 -192.5t-167 -75.5q-89 0 -142 73v-235h-140v562h-302
q-46 -2 -71.5 -23.5t-25.5 -56.5q0 -38 28.5 -59t78.5 -21v-115q-109 0 -181 52t-72 143z" />
    <glyph glyph-name="swashleft_r" horiz-adv-x="885" 
d="M30 305q0 91 72 143t181 52h392l35 -92q36 92 135 92h20v-125h-20q-64 0 -97 -34.5t-33 -91.5v-249h-140v385h-292q-50 0 -78.5 -21t-28.5 -59t28.5 -59t78.5 -21v-115q-109 0 -181 52t-72 143z" />
    <glyph glyph-name="swashleft_u" horiz-adv-x="1135" 
d="M30 305q0 91 72 143t181 52h422v-290q0 -110 99 -110q64 0 92.5 40.5t28.5 90.5v269h140v-500h-100l-25 65q-52 -80 -165 -80q-104 0 -157 57.5t-53 167.5v175h-282q-50 0 -78.5 -21t-28.5 -59t28.5 -59t78.5 -21v-115q-109 0 -181 52t-72 143z" />
    <glyph glyph-name="swashleft_etatonos" horiz-adv-x="1135" 
d="M757 557l30 160h130l-30 -160h-130zM30 305q0 91 72 143t181 52h392l27 -73q56 88 163 88q102 0 156 -60.5t54 -164.5v-467h-140v457v5q0 49 -29 82t-80 33q-48 0 -78.5 -35t-32.5 -82v-283h-140v385h-302q-46 -2 -71.5 -23.5t-25.5 -56.5q0 -38 28.5 -59t78.5 -21v-115
q-109 0 -181 52t-72 143z" />
    <glyph glyph-name="swashleft_iotatonos" horiz-adv-x="795" 
d="M568 557l30 160h130l-30 -160h-130zM30 305q0 91 72 143t181 52h422v-321q0 -40 10.5 -54.5t39.5 -14.5v-110q-112 0 -151 31t-39 108v246h-282q-50 0 -78.5 -21t-28.5 -59t28.5 -59t78.5 -21v-115q-109 0 -181 52t-72 143z" />
    <glyph glyph-name="swashleft_eta" horiz-adv-x="1135" 
d="M30 305q0 91 72 143t181 52h392l27 -73q56 88 163 88q102 0 156 -60.5t54 -164.5v-467h-140v457v5q0 49 -29 82t-80 33q-48 0 -78.5 -35t-32.5 -82v-283h-140v385h-292q-50 0 -78.5 -21t-28.5 -59t28.5 -59t78.5 -21v-115q-109 0 -181 52t-72 143z" />
    <glyph glyph-name="swashleft_iota" horiz-adv-x="795" 
d="M30 305q0 91 72 143t181 52h422v-321q0 -40 10.5 -54.5t39.5 -14.5v-110q-112 0 -151 31t-39 108v246h-282q-50 0 -78.5 -21t-28.5 -59t28.5 -59t78.5 -21v-115q-109 0 -181 52t-72 143z" />
    <glyph glyph-name="swashleft_kappa" horiz-adv-x="1064" 
d="M30 305q0 91 72 143t181 52h432v-180h34l143 180h154l-190 -240l198 -260h-164l-156 205h-19v-205h-140v385h-292q-50 0 -78.5 -21t-28.5 -59t28.5 -59t78.5 -21v-115q-109 0 -181 52t-72 143z" />
    <glyph glyph-name="swashleft_uni03BC" horiz-adv-x="1145" 
d="M30 305q0 91 72 143t181 52h432v-280v-8q0 -112 99 -112q64 0 92.5 40.5t28.5 90.5v269h140v-500h-100l-23 60q-48 -72 -147 -75h-5q-54 0 -85 28v-190h-140v562h-302q-46 -2 -71.5 -23.5t-25.5 -56.5q0 -38 28.5 -59t78.5 -21v-115q-109 0 -181 52t-72 143z" />
    <glyph glyph-name="swashleft_pi" horiz-adv-x="1135" 
d="M30 305q0 91 72 143t181 52h802v-115h-50v-206q0 -40 10.5 -54.5t39.5 -14.5v-110q-112 0 -151 31t-39 108v246h-160v-385h-140v385h-322q-46 -2 -71.5 -23.5t-25.5 -56.5q0 -38 28.5 -59t78.5 -21v-115q-109 0 -181 52t-72 143z" />
    <glyph glyph-name="swashleft_tau" horiz-adv-x="1005" 
d="M30 305q0 91 72 143t181 52h702v-115h-160v-206q0 -40 10.5 -54.5t39.5 -14.5v-110q-112 0 -151 31t-39 108v246h-402q-50 0 -78.5 -21t-28.5 -59t28.5 -59t78.5 -21v-115q-109 0 -181 52t-72 143z" />
    <glyph glyph-name="swashleft_upsilon" horiz-adv-x="1105" 
d="M30 305q0 91 72 143t181 52h422v-280q0 -48 24.5 -84t76.5 -36q51 0 75 36t24 84v280h140v-280q0 -235 -240 -235t-240 235v165h-292q-46 -2 -71.5 -23.5t-25.5 -56.5q0 -38 28.5 -59t78.5 -21v-115q-109 0 -181 52t-72 143z" />
    <glyph glyph-name="swashleft_psi" horiz-adv-x="1295" 
d="M30 305q0 91 72 143t181 52h422v-245q0 -59 36.5 -99.5t88.5 -40.5v562h140v-562q52 0 88.5 40.5t36.5 99.5v245h140v-245q0 -104 -68.5 -179.5t-175.5 -75.5h-21v-177h-140v177h-21q-107 0 -175.5 75.5t-68.5 179.5v130h-282q-50 0 -78.5 -21t-28.5 -59t28.5 -59
t78.5 -21v-115q-109 0 -181 52t-72 143z" />
    <glyph glyph-name="swashleft_iotadieresis" horiz-adv-x="795" 
d="M651 630q0 33 24.5 53.5t61.5 20.5t61 -20.5t24 -53.5q0 -34 -24 -54t-61 -20t-61.5 20t-24.5 54zM451 630q0 33 24.5 53.5t61.5 20.5t61 -20.5t24 -53.5q0 -34 -24 -54t-61 -20t-61.5 20t-24.5 54zM30 305q0 91 72 143t181 52h422v-321q0 -40 10.5 -54.5t39.5 -14.5
v-110q-112 0 -151 31t-39 108v246h-292q-46 -2 -71.5 -23.5t-25.5 -56.5q0 -38 28.5 -59t78.5 -21v-115q-109 0 -181 52t-72 143z" />
    <glyph glyph-name="swashleft_upsilondieresis" horiz-adv-x="1105" 
d="M822 630q0 33 24.5 53.5t61.5 20.5t61 -20.5t24 -53.5q0 -34 -24 -54t-61 -20t-61.5 20t-24.5 54zM622 630q0 33 24.5 53.5t61.5 20.5t61 -20.5t24 -53.5q0 -34 -24 -54t-61 -20t-61.5 20t-24.5 54zM30 305q0 91 72 143t181 52h422v-280q0 -48 24.5 -84t76.5 -36
q51 0 75 36t24 84v280h140v-280q0 -235 -240 -235t-240 235v165h-282q-50 0 -78.5 -21t-28.5 -59t28.5 -59t78.5 -21v-115q-109 0 -181 52t-72 143z" />
    <glyph glyph-name="swashleft_upsilontonos" horiz-adv-x="1105" 
d="M730 557l30 160h130l-30 -160h-130zM30 305q0 91 72 143t181 52h422v-280q0 -48 24.5 -84t76.5 -36q51 0 75 36t24 84v280h140v-280q0 -235 -240 -235t-240 235v165h-292q-46 -2 -71.5 -23.5t-25.5 -56.5q0 -38 28.5 -59t78.5 -21v-115q-109 0 -181 52t-72 143z" />
    <glyph glyph-name="swashleft_uni0432" horiz-adv-x="1075" 
d="M705 295h90q45 0 64.5 11.5t19.5 38.5q0 50 -84 50h-90v-100zM705 105h100q84 0 84 55q0 50 -84 50h-100v-105zM30 305q0 91 72 143t181 52h522q220 0 220 -135q0 -87 -128 -109q138 -16 138 -111q0 -66 -53.5 -105.5t-166.5 -39.5h-240v385h-302q-46 -2 -71.5 -23.5
t-25.5 -56.5q0 -38 28.5 -59t78.5 -21v-115q-109 0 -181 52t-72 143z" />
    <glyph glyph-name="swashleft_uni0434" horiz-adv-x="1055" 
d="M654 115h161v270h-130v-23q0 -118 -31 -247zM30 305q0 91 72 143t181 52h672v-385h80v-292h-140v177h-310v-177h-140v292h68q31 130 32 270h-262q-50 0 -78.5 -21t-28.5 -59t28.5 -59t78.5 -21v-115q-109 0 -181 52t-72 143z" />
    <glyph glyph-name="swashleft_uni0438" horiz-adv-x="1125" 
d="M30 305q0 91 72 143t181 52h432v-295l190 295h150v-500h-140v295l-190 -295h-150v385h-302q-46 -2 -71.5 -23.5t-25.5 -56.5q0 -38 28.5 -59t78.5 -21v-115q-109 0 -181 52t-72 143z" />
    <glyph glyph-name="swashleft_uni0439" horiz-adv-x="1125" 
d="M627 677h136q2 -16 15 -32t30 -16h10q17 0 30 16t15 32h136q-8 -53 -60 -91t-118 -38h-16q-66 0 -118 38t-60 91zM30 305q0 91 72 143t181 52h432v-295l190 295h150v-500h-140v295l-190 -295h-150v385h-302q-46 -2 -71.5 -23.5t-25.5 -56.5q0 -38 28.5 -59t78.5 -21v-115
q-109 0 -181 52t-72 143z" />
    <glyph glyph-name="swashleft_uni043A" horiz-adv-x="1064" 
d="M30 305q0 91 72 143t181 52h432v-180h34l143 180h154l-190 -240l198 -260h-164l-156 205h-19v-205h-140v385h-292q-50 0 -78.5 -21t-28.5 -59t28.5 -59t78.5 -21v-115q-109 0 -181 52t-72 143z" />
    <glyph glyph-name="swashleft_uni043B" horiz-adv-x="1005" 
d="M30 305q0 91 72 143t181 52h652v-500h-140v385h-110v-23q0 -196 -50.5 -279t-158.5 -83h-31v131h28q38 0 54 56t18 177v21h-272q-46 -2 -71.5 -23.5t-25.5 -56.5q0 -38 28.5 -59t78.5 -21v-115q-109 0 -181 52t-72 143z" />
    <glyph glyph-name="swashleft_uni043C" horiz-adv-x="1235" 
d="M30 305q0 91 72 143t181 52h452l135 -226l135 226h160v-500h-140v309l-114 -192h-82l-114 192v-309h-140v385h-302q-46 -2 -71.5 -23.5t-25.5 -56.5q0 -38 28.5 -59t78.5 -21v-115q-109 0 -181 52t-72 143z" />
    <glyph glyph-name="swashleft_uni043D" horiz-adv-x="1115" 
d="M30 305q0 91 72 143t181 52h432v-180h190v180h140v-500h-140v205h-190v-205h-140v385h-302q-46 -2 -71.5 -23.5t-25.5 -56.5q0 -38 28.5 -59t78.5 -21v-115q-109 0 -181 52t-72 143z" />
    <glyph glyph-name="swashleft_uni043F" horiz-adv-x="1105" 
d="M30 305q0 91 72 143t181 52h752v-500h-140v385h-180v-385h-140v385h-302q-46 -2 -71.5 -23.5t-25.5 -56.5q0 -38 28.5 -59t78.5 -21v-115q-109 0 -181 52t-72 143z" />
    <glyph glyph-name="swashleft_uni0440" horiz-adv-x="1127" 
d="M715 253q0 -69 29 -111t82 -42q54 0 84.5 42.5t30.5 110.5t-30 107.5t-85 39.5q-52 0 -81.5 -42.5t-29.5 -104.5zM30 305q0 91 72 143t181 52h392l27 -77q55 92 155 92q108 0 169 -72t61 -190q0 -117 -63 -192.5t-167 -75.5q-89 0 -142 73v-235h-140v562h-302
q-46 -2 -71.5 -23.5t-25.5 -56.5q0 -38 28.5 -59t78.5 -21v-115q-109 0 -181 52t-72 143z" />
    <glyph glyph-name="swashleft_uni0446" horiz-adv-x="1135" 
d="M30 305q0 91 72 143t181 52h432v-385h180v385h140v-385h80v-292h-140v177h-400v385h-292q-50 0 -78.5 -21t-28.5 -59t28.5 -59t78.5 -21v-115q-109 0 -181 52t-72 143z" />
    <glyph glyph-name="swashleft_uni0447" horiz-adv-x="1065" 
d="M30 305q0 91 72 143t181 52h402v-140v-7q0 -93 79 -93q44 0 91 9v231h140v-500h-140v163q-63 -13 -120 -13q-190 0 -190 200v35h-262q-50 0 -78.5 -21t-28.5 -59t28.5 -59t78.5 -21v-115q-109 0 -181 52t-72 143z" />
    <glyph glyph-name="swashleft_uni0448" horiz-adv-x="1325" 
d="M30 305q0 91 72 143t181 52h432v-385h130v385h140v-385h130v385h140v-500h-680v385h-292q-50 0 -78.5 -21t-28.5 -59t28.5 -59t78.5 -21v-115q-109 0 -181 52t-72 143z" />
    <glyph glyph-name="swashleft_uni0449" horiz-adv-x="1355" 
d="M30 305q0 91 72 143t181 52h432v-385h130v385h140v-385h130v385h140v-385h80v-292h-140v177h-620v385h-292q-50 0 -78.5 -21t-28.5 -59t28.5 -59t78.5 -21v-115q-109 0 -181 52t-72 143z" />
    <glyph glyph-name="swashleft_uni044E" horiz-adv-x="1355" 
d="M940 255q0 -69 30.5 -112t84.5 -43t84.5 43t30.5 112q0 68 -30.5 106.5t-84.5 38.5t-84.5 -38.5t-30.5 -106.5zM30 305q0 91 72 143t181 52h432v-180h95q18 90 83 142.5t161 52.5q120 0 190.5 -71.5t70.5 -188.5q0 -118 -71 -194t-190 -76q-100 0 -166 61t-81 159h-92
v-205h-140v385h-302q-46 -2 -71.5 -23.5t-25.5 -56.5q0 -38 28.5 -59t78.5 -21v-115q-109 0 -181 52t-72 143z" />
    <glyph glyph-name="swashleft_uni0456" horiz-adv-x="775" 
d="M555 630q0 33 24.5 53.5t61.5 20.5t61 -20.5t24 -53.5q0 -34 -24 -54t-61 -20t-61.5 20t-24.5 54zM30 305q0 91 72 143t181 52h422v-500h-130v385h-292q-50 0 -78.5 -21t-28.5 -59t28.5 -59t78.5 -21v-115q-109 0 -181 52t-72 143z" />
    <glyph glyph-name="swashleft_uni0457" horiz-adv-x="775" 
d="M654 630q0 33 24.5 53.5t61.5 20.5t61 -20.5t24 -53.5q0 -34 -24 -54t-61 -20t-61.5 20t-24.5 54zM454 630q0 33 24.5 53.5t61.5 20.5t61 -20.5t24 -53.5q0 -34 -24 -54t-61 -20t-61.5 20t-24.5 54zM30 305q0 91 72 143t181 52h422v-500h-130v385h-292q-50 0 -78.5 -21
t-28.5 -59t28.5 -59t78.5 -21v-115q-109 0 -181 52t-72 143z" />
    <glyph glyph-name="swashleft_uni0458" horiz-adv-x="820" 
d="M589 630q0 33 24.5 53.5t61.5 20.5t61 -20.5t24 -53.5q0 -34 -24 -54t-61 -20t-61.5 20t-24.5 54zM60 305q0 91 72 143t181 52h432v-500q0 -86 -53 -131.5t-133 -45.5h-49v121h36q59 0 59 96v345h-302q-46 -2 -71.5 -23.5t-25.5 -56.5q0 -38 28.5 -59t78.5 -21v-115
q-109 0 -181 52t-72 143z" />
    <glyph glyph-name="swashleft_uni0459" horiz-adv-x="1285" 
d="M935 115h80q38 0 61 17.5t23 47.5q0 55 -87 55h-77v-120zM30 305q0 91 72 143t181 52h652v-150h78q108 0 170 -43t62 -127q0 -82 -58.5 -131t-161.5 -49h-240v385h-100v-23q0 -196 -50.5 -279t-158.5 -83h-31v131h28q40 0 55.5 60.5t16.5 193.5h-262q-50 0 -78.5 -21
t-28.5 -59t28.5 -59t78.5 -21v-115q-109 0 -181 52t-72 143z" />
    <glyph glyph-name="swashleft_uni045A" horiz-adv-x="1405" 
d="M1045 115h90q38 0 61 17.5t23 47.5q0 55 -87 55h-87v-120zM30 305q0 91 72 143t181 52h432v-180h190v180h140v-150h88q108 0 170 -43t62 -127q0 -82 -58.5 -131t-161.5 -49h-240v205h-190v-205h-140v385h-302q-46 -2 -71.5 -23.5t-25.5 -56.5q0 -38 28.5 -59t78.5 -21
v-115q-109 0 -181 52t-72 143z" />
    <glyph glyph-name="swashleft_uni045F" horiz-adv-x="1105" 
d="M30 305q0 91 72 143t181 52h432v-385h180v385h140v-500h-160v-177h-140v177h-160v385h-292q-50 0 -78.5 -21t-28.5 -59t28.5 -59t78.5 -21v-115q-109 0 -181 52t-72 143z" />
    <glyph glyph-name="swashleft_uni0491" horiz-adv-x="945" 
d="M30 305q0 91 72 143t181 52h512v177h140v-292h-220v-385h-140v385h-302q-46 -2 -71.5 -23.5t-25.5 -56.5q0 -38 28.5 -59t78.5 -21v-115q-109 0 -181 52t-72 143z" />
    <glyph glyph-name="a_swashright" horiz-adv-x="1132" 
d="M186 253q0 -72 32.5 -112.5t82.5 -40.5q49 0 80 40t31 113v7q-2 69 -32.5 104.5t-78.5 35.5q-50 0 -82.5 -37.5t-32.5 -109.5zM40 253q0 116 64 189t166 73q99 0 154 -89l28 74h105v-380h302q92 3 92 75q0 75 -102 75v120q109 0 181 -52t72 -143t-72 -143t-181 -52h-397
l-31 73q-54 -88 -151 -88q-101 0 -165.5 76t-64.5 192z" />
    <glyph glyph-name="d_swashright" horiz-adv-x="1127" 
d="M186 253q0 -72 32.5 -112.5t82.5 -40.5q47 0 78 38t33 107v15q-2 69 -32.5 104.5t-78.5 35.5q-50 0 -82.5 -37.5t-32.5 -109.5zM40 253q0 116 64 189t166 73q88 0 142 -71v233h140v-557h302q92 3 92 75q0 75 -102 75v120q109 0 181 -52t72 -143t-72 -143t-181 -52h-392
l-31 73q-54 -88 -151 -88q-101 0 -165.5 76t-64.5 192z" />
    <glyph glyph-name="h_swashright" horiz-adv-x="1135" 
d="M70 0v677h140v-233q57 71 150 71q102 0 156 -60.5t54 -164.5v-170h292q92 3 92 75q0 75 -102 75v120q109 0 181 -52t72 -143t-72 -143t-181 -52h-422v280v5q0 49 -29 82t-80 33q-48 0 -78.5 -35t-32.5 -82v-283h-140z" />
    <glyph glyph-name="i_swashright" horiz-adv-x="775" 
d="M70 0v500h130v-380h292q102 0 102 75t-102 75v120q109 0 181 -52t72 -143t-72 -143t-181 -52h-422zM50 630q0 33 24.5 53.5t61.5 20.5t61 -20.5t24 -53.5q0 -34 -24 -54t-61 -20t-61.5 20t-24.5 54z" />
    <glyph glyph-name="l_swashright" horiz-adv-x="785" 
d="M70 0v677h140v-557h292q102 0 102 75t-102 75v120q109 0 181 -52t72 -143t-72 -143t-181 -52h-432z" />
    <glyph glyph-name="m_swashright" horiz-adv-x="1395" 
d="M70 0v500h100l23 -61q46 76 137 76q108 0 132 -125q43 125 178 125q91 0 140.5 -56t49.5 -169v-170h282q102 0 102 75t-102 75v120q109 0 181 -52t72 -143t-72 -143t-181 -52h-422v290q0 58 -19 84t-60 26q-38 0 -63.5 -35t-27.5 -82v-283h-140v290q0 58 -19 84t-60 26
q-38 0 -63.5 -35t-27.5 -82v-283h-140z" />
    <glyph glyph-name="n_swashright" horiz-adv-x="1135" 
d="M70 0v500h100l27 -73q56 88 163 88q102 0 156 -60.5t54 -164.5v-170h295q89 5 89 75q0 75 -102 75v120q109 0 181 -52t72 -143t-72 -143t-181 -52h-422v280v5q0 49 -29 82t-80 33q-48 0 -78.5 -35t-32.5 -82v-283h-140z" />
    <glyph glyph-name="u_swashright" horiz-adv-x="1135" 
d="M60 210v290h140v-280v-8q0 -112 99 -112q64 0 92.5 40.5t28.5 90.5v269h140v-380h292q102 0 102 75t-102 75v120q109 0 181 -52t72 -143t-72 -143t-181 -52h-392l-25 65q-52 -80 -165 -80q-104 0 -157 57.5t-53 167.5z" />
    <glyph glyph-name="uni03BC_swashright" horiz-adv-x="1145" 
d="M70 -177v677h140v-280v-8q0 -112 99 -112q64 0 92.5 40.5t28.5 90.5v269h140v-380h292q102 0 102 75t-102 75v120q109 0 181 -52t72 -143t-72 -143t-181 -52h-392l-23 60q-48 -72 -147 -75h-5q-54 0 -85 28v-190h-140z" />
    <glyph glyph-name="uni0430_swashright" horiz-adv-x="1132" 
d="M186 253q0 -72 32.5 -112.5t82.5 -40.5q49 0 80 40t31 113v7q-2 69 -32.5 104.5t-78.5 35.5q-50 0 -82.5 -37.5t-32.5 -109.5zM40 253q0 116 64 189t166 73q99 0 154 -89l28 74h105v-380h302q92 3 92 75q0 75 -102 75v120q109 0 181 -52t72 -143t-72 -143t-181 -52h-397
l-31 73q-54 -88 -151 -88q-101 0 -165.5 76t-64.5 192z" />
    <glyph glyph-name="uni0438_swashright" horiz-adv-x="1125" 
d="M70 0v500h140v-295l190 295h150v-380h292q102 0 102 75t-102 75v120q109 0 181 -52t72 -143t-72 -143t-181 -52h-432v295l-190 -295h-150z" />
    <glyph glyph-name="uni0439_swashright" horiz-adv-x="1125" 
d="M122 677h136q2 -16 15 -32t30 -16h10q17 0 30 16t15 32h136q-8 -53 -60 -91t-118 -38h-16q-66 0 -118 38t-60 91zM70 0v500h140v-295l190 295h150v-380h305q89 5 89 75q0 75 -102 75v120q109 0 181 -52t72 -143t-72 -143t-181 -52h-432v295l-190 -295h-150z" />
    <glyph glyph-name="uni043B_swashright" horiz-adv-x="1085" 
d="M20 0v131h28q40 0 56 62t16 196v111h390v-380h302q92 3 92 75q0 75 -102 75v120q109 0 181 -52t72 -143t-72 -143t-181 -52h-432v385h-110v-23q0 -196 -50.5 -279t-158.5 -83h-31z" />
    <glyph glyph-name="uni043C_swashright" horiz-adv-x="1235" 
d="M70 0v500h160l135 -226l135 226h160v-380h292q102 0 102 75t-102 75v120q109 0 181 -52t72 -143t-72 -143t-181 -52h-432v309l-114 -192h-82l-114 192v-309h-140z" />
    <glyph glyph-name="uni043D_swashright" horiz-adv-x="1115" 
d="M70 0v500h140v-180h190v180h140v-380h292q102 0 102 75t-102 75v120q109 0 181 -52t72 -143t-72 -143t-181 -52h-432v205h-190v-205h-140z" />
    <glyph glyph-name="uni043F_swashright" horiz-adv-x="1105" 
d="M70 0v500h460v-380h292q102 0 102 75t-102 75v120q109 0 181 -52t72 -143t-72 -143t-181 -52h-432v385h-180v-385h-140z" />
    <glyph glyph-name="uni0447_swashright" horiz-adv-x="1065" 
d="M40 350v150h140v-140v-7q0 -93 79 -93q44 0 91 9v231h140v-380h292q102 0 102 75t-102 75v120q109 0 181 -52t72 -143t-72 -143t-181 -52h-432v163q-63 -13 -120 -13q-190 0 -190 200z" />
    <glyph glyph-name="uni0448_swashright" horiz-adv-x="1325" 
d="M70 0v500h140v-385h130v385h140v-385h130v385h140v-380h292q102 0 102 75t-102 75v120q109 0 181 -52t72 -143t-72 -143t-181 -52h-972z" />
    <glyph glyph-name="uni044F_swashright" horiz-adv-x="1075" 
d="M186 335q0 -57 78 -60h96v110h-90q-84 0 -84 -50zM40 0l119 185q-119 37 -119 150q0 81 60 123t160 42h240v-380h292h10h3q89 5 89 75q0 75 -102 75v120q109 0 181 -52t72 -143t-72 -143t-181 -52h-432v170h-56l-110 -170h-154z" />
    <glyph glyph-name="uni0456_swashright" horiz-adv-x="775" 
d="M70 0v500h130v-380h292q102 0 102 75t-102 75v120q109 0 181 -52t72 -143t-72 -143t-181 -52h-422zM50 630q0 33 24.5 53.5t61.5 20.5t61 -20.5t24 -53.5q0 -34 -24 -54t-61 -20t-61.5 20t-24.5 54z" />
    <glyph glyph-name="uni0457_swashright" horiz-adv-x="775" 
d="M149 630q0 33 24.5 53.5t61.5 20.5t61 -20.5t24 -53.5q0 -34 -24 -54t-61 -20t-61.5 20t-24.5 54zM70 0v500h130v-380h302q92 3 92 75q0 75 -102 75v120q109 0 181 -52t72 -143t-72 -143t-181 -52h-422zM-51 630q0 33 24.5 53.5t61.5 20.5t61 -20.5t24 -53.5
q0 -34 -24 -54t-61 -20t-61.5 20t-24.5 54z" />
    <glyph glyph-name="uni045B_swashright" horiz-adv-x="1095" 
d="M20 442v115h80v120h140v-120h143v-115h-143v-106q65 14 120 14q190 0 190 -200v-30h262h10h3q89 5 89 75q0 75 -102 75v120q109 0 181 -52t72 -143t-72 -143t-181 -52h-402v150q-1 90 -79 90q-46 0 -91 -9v-231h-140v442h-80z" />
    </font>
</defs>
</svg>
